<svg width="150" height="34" viewBox="0 0 150 34" fill="none" xmlns="http://www.w3.org/2000/svg">
<path d="M8.74844 0.460938H9.54531C10.6547 0.460938 11.7094 0.742188 12.7094 1.30469C12.8812 1.50781 12.9672 1.75 12.9672 2.03125C12.9672 2.57812 12.6312 2.88281 11.9594 2.94531C10.7094 2.55469 9.77969 2.35938 9.17031 2.35938H9.12344C7.37344 2.35938 5.85781 3.39844 4.57656 5.47656C3.49844 8.00781 2.95937 9.85156 2.95937 11.0078C2.6 12.6016 2.42031 14.8672 2.42031 17.8047C2.42031 24.7422 3.82656 29.2109 6.63906 31.2109C7.56094 31.8047 8.63125 32.1016 9.85 32.1016C10.5687 32.1016 11.6781 31.8359 13.1781 31.3047H13.2953C13.8734 31.3047 14.1859 31.6406 14.2328 32.3125C14.2328 33.0781 13.0531 33.625 10.6937 33.9531C10.6 33.9844 10.3422 34 9.92031 34H9.75625C5.00625 34 2.05312 30.5703 0.896873 23.7109C0.646873 21.6016 0.521873 19.6172 0.521873 17.7578C0.521873 8.47656 2.49062 2.90625 6.42812 1.04688C7.33437 0.6875 8.10781 0.492187 8.74844 0.460938ZM25.6187 0.460938H26.5797C28.6578 0.460938 30.3062 1.60156 31.525 3.88281C32.4781 5.80469 32.9547 9.47656 32.9547 14.8984V18.3906C32.9547 24.5938 32.6031 28.375 31.9 29.7344C31.4781 31.125 30.6187 32.2969 29.3219 33.25C28.3375 33.75 27.4234 34 26.5797 34H25.5719C24.5094 34 23.4547 33.5938 22.4078 32.7812C21.5016 31.8594 20.8687 30.9297 20.5094 29.9922C19.6656 28.1484 19.2437 24.3828 19.2437 18.6953V15.6953C19.2437 8.67969 19.9625 4.39063 21.4 2.82812C22.525 1.25 23.9312 0.460938 25.6187 0.460938ZM21.1422 16.0703V18.3438C21.1422 25.4688 21.8453 29.6328 23.2516 30.8359C23.9391 31.6797 24.8375 32.1016 25.9469 32.1016H26.2047C28.2984 32.1016 29.6734 30.8516 30.3297 28.3516C30.8141 26.9453 31.0562 23.5 31.0562 18.0156V15.2734C31.0562 8.80469 30.3687 4.88281 28.9937 3.50781C28.1969 2.74219 27.2672 2.35938 26.2047 2.35938H25.9937C24.0719 2.35938 22.7516 3.55469 22.0328 5.94531C21.4391 7.91406 21.1422 11.2891 21.1422 16.0703ZM45.0203 0.460938C45.6141 0.460938 45.9109 0.8125 45.9109 1.51562V25.3047C45.9109 28.2734 46.8406 30.3594 48.7 31.5625C49.5281 31.9219 50.2547 32.1016 50.8797 32.1016H51.1375C53.3875 32.1016 54.8797 30.6562 55.6141 27.7656C55.7547 26.7031 55.825 25.8828 55.825 25.3047V1.51562C55.825 0.8125 56.1609 0.460938 56.8328 0.460938C57.4266 0.460938 57.7234 0.8125 57.7234 1.51562V25.6562C57.7234 29.5469 56.3328 32.1875 53.5516 33.5781C52.6922 33.8594 52.0125 34 51.5125 34H50.5047C48.3484 34 46.575 32.8594 45.1844 30.5781C44.4031 29.125 44.0125 27.4844 44.0125 25.6562V1.51562C44.0125 0.8125 44.3484 0.460938 45.0203 0.460938ZM72.25 0.460938C78.4375 0.460938 82.2734 2.51563 83.7578 6.625C84.1016 7.40625 84.2734 8.67187 84.2734 10.4219C84.2734 13.7344 82.7422 16.2656 79.6797 18.0156C79.5391 18.0469 79.4688 18.1172 79.4688 18.2266C82.6719 27.9141 84.2734 32.8516 84.2734 33.0391C84.2734 33.6328 83.9375 33.9531 83.2656 34C82.6719 34 82.2031 33.2109 81.8594 31.6328L77.6406 18.9062H77.5234C75.9297 19.3281 74.6797 19.5391 73.7734 19.5391H72.4609V32.9453C72.4609 33.6484 72.125 34 71.4531 34C70.8594 34 70.5625 33.6484 70.5625 32.9453V1.5625C70.5625 0.828125 71.0547 0.460938 72.0391 0.460938H72.25ZM72.4609 2.35938V17.6406H73.4219C75.4375 17.6406 77.4766 17.0469 79.5391 15.8594C80.6641 15.125 81.4688 14.0547 81.9531 12.6484C82.125 12.2266 82.2656 11.4297 82.375 10.2578C82.375 6.17969 80.2812 3.67188 76.0938 2.73438C74.9375 2.48437 73.7266 2.35938 72.4609 2.35938ZM100.511 0.460938C102.308 0.460938 103.823 0.726562 105.058 1.25781C105.261 1.46094 105.362 1.71875 105.362 2.03125C105.362 2.64062 105.011 2.94531 104.308 2.94531C102.777 2.55469 101.511 2.35938 100.511 2.35938C97.6359 2.35938 95.7922 3.625 94.9797 6.15625C94.7297 7.1875 94.6047 8.10156 94.6047 8.89844V9.15625C94.6047 12.1094 95.8703 14.1172 98.4016 15.1797C99.7609 15.7734 101.011 16.3516 102.152 16.9141C104.12 18.0859 105.402 19.6328 105.995 21.5547C106.277 22.5547 106.417 23.7656 106.417 25.1875C106.417 29.4219 104.816 32.1797 101.612 33.4609C100.441 33.8203 99.3547 34 98.3547 34H97.5578C94.8234 33.7656 93.4562 33.4297 93.4562 32.9922C93.3781 32.8359 93.3391 32.6641 93.3391 32.4766C93.3391 31.9453 93.675 31.6406 94.3469 31.5625C95.9562 31.9219 97.1516 32.1016 97.9328 32.1016H97.9797C100.823 32.1016 102.737 31.1016 103.722 29.1016C104.253 27.9766 104.519 26.6562 104.519 25.1406C104.519 21.875 103.378 19.6953 101.097 18.6016C100.175 18.1016 98.9641 17.5391 97.4641 16.9141C94.2922 15.3828 92.7062 12.9219 92.7062 9.53125V8.52344C92.7062 5.08594 94.0422 2.64062 96.7141 1.1875C97.7609 0.703125 99.0266 0.460938 100.511 0.460938ZM116.467 0.460938H127.811C128.514 0.460938 128.866 0.796875 128.866 1.46875C128.866 2.0625 128.514 2.35938 127.811 2.35938H117.311V13.4219H125.116C125.819 13.4219 126.17 13.7578 126.17 14.4297C126.17 15.0234 125.819 15.3203 125.116 15.3203H117.311V32.1016H128.069C128.772 32.1016 129.123 32.4375 129.123 33.1094C129.123 33.7031 128.772 34 128.069 34H116.467C115.764 34 115.413 33.6484 115.413 32.9453V1.51562C115.413 0.8125 115.764 0.460938 116.467 0.460938ZM143.158 0.460938C144.955 0.460938 146.47 0.726562 147.705 1.25781C147.908 1.46094 148.009 1.71875 148.009 2.03125C148.009 2.64062 147.658 2.94531 146.955 2.94531C145.423 2.55469 144.158 2.35938 143.158 2.35938C140.283 2.35938 138.439 3.625 137.627 6.15625C137.377 7.1875 137.252 8.10156 137.252 8.89844V9.15625C137.252 12.1094 138.517 14.1172 141.048 15.1797C142.408 15.7734 143.658 16.3516 144.798 16.9141C146.767 18.0859 148.048 19.6328 148.642 21.5547C148.923 22.5547 149.064 23.7656 149.064 25.1875C149.064 29.4219 147.462 32.1797 144.259 33.4609C143.087 33.8203 142.002 34 141.002 34H140.205C137.47 33.7656 136.103 33.4297 136.103 32.9922C136.025 32.8359 135.986 32.6641 135.986 32.4766C135.986 31.9453 136.322 31.6406 136.994 31.5625C138.603 31.9219 139.798 32.1016 140.58 32.1016H140.627C143.47 32.1016 145.384 31.1016 146.369 29.1016C146.9 27.9766 147.166 26.6562 147.166 25.1406C147.166 21.875 146.025 19.6953 143.744 18.6016C142.822 18.1016 141.611 17.5391 140.111 16.9141C136.939 15.3828 135.353 12.9219 135.353 9.53125V8.52344C135.353 5.08594 136.689 2.64062 139.361 1.1875C140.408 0.703125 141.673 0.460938 143.158 0.460938Z" fill="black"/>
</svg>
