<svg width="312" height="98" viewBox="0 0 312 98" fill="none" xmlns="http://www.w3.org/2000/svg">
<path d="M162.86 67.06C162.673 67.34 162.533 67.6667 162.44 68.04C162.253 68.7867 162.16 69.2067 162.16 69.3C162.16 69.3933 162.067 69.72 161.88 70.28C161.693 70.7467 161.507 71.12 161.32 71.4L160.9 74.2V74.9L161.32 77.84C161.32 78.0267 161.46 78.54 161.74 79.38C162.02 80.1267 162.16 80.64 162.16 80.92C162.253 81.3867 162.347 81.8533 162.44 82.32C162.627 82.6933 162.767 83.1133 162.86 83.58C163.047 84.14 163.513 85.0733 164.26 86.38C165.007 87.6867 165.473 88.5733 165.66 89.04C165.753 88.5733 165.893 88.1533 166.08 87.78C166.36 87.3133 166.593 86.9867 166.78 86.8C166.967 86.52 167.06 86.1933 167.06 85.82C167.153 85.3533 167.2 84.98 167.2 84.7C167.48 84.14 167.667 83.3933 167.76 82.46C167.947 81.5267 168.04 80.8267 168.04 80.36V79.8V79.66V79.24V78.4C168.04 78.12 168.04 77.7 168.04 77.14C168.04 76.4867 167.947 75.9267 167.76 75.46C167.48 75.18 167.293 74.76 167.2 74.2C167.107 73.5467 166.967 72.9867 166.78 72.52C166.593 71.96 166.313 71.4 165.94 70.84C165.66 70.1867 165.38 69.72 165.1 69.44C164.82 69.3467 164.4 68.9267 163.84 68.18C163.373 67.4333 163.047 67.06 162.86 67.06ZM158.66 66.64C158.753 66.1733 158.753 65.8933 158.66 65.8C158.66 65.7067 158.66 65.5667 158.66 65.38V62.86C158.473 63.0467 158.1 63.28 157.54 63.56C157.073 63.84 156.56 64.12 156 64.4C155.533 64.68 155.113 64.96 154.74 65.24C154.367 65.4267 154.227 65.5667 154.32 65.66C154.133 65.66 153.713 65.9867 153.06 66.64C152.5 67.2933 152.08 67.7133 151.8 67.9C151.8 67.9933 151.567 68.3667 151.1 69.02C150.913 69.58 150.82 69.86 150.82 69.86C150.353 70.6067 149.98 71.54 149.7 72.66C149.513 73.78 149.42 74.5267 149.42 74.9V75.46V76.44V76.86L149.84 80.64L150.26 80.36C150.54 80.36 150.867 80.1267 151.24 79.66C151.707 79.1 152.08 78.68 152.36 78.4C152.453 78.4 152.733 78.26 153.2 77.98C153.667 77.7 153.9 77.3267 153.9 76.86C154.087 76.86 154.367 76.6267 154.74 76.16C155.207 75.6 155.533 75.18 155.72 74.9C155.72 74.5267 155.953 74.1533 156.42 73.78C156.607 73.78 156.7 73.64 156.7 73.36C156.887 73.36 156.933 73.36 156.84 73.36C156.747 73.2667 156.793 73.08 156.98 72.8C157.073 72.52 157.353 71.7733 157.82 70.56C158.38 69.3467 158.66 68.5067 158.66 68.04V66.64ZM175.46 58.66L173.5 59.22C173.407 59.4067 173.267 59.64 173.08 59.92C172.707 60.48 172.52 60.8067 172.52 60.9C172.333 60.9933 172.1 61.18 171.82 61.46C171.633 61.74 171.447 61.9733 171.26 62.16C171.167 62.6267 170.98 63.1867 170.7 63.84C170.42 64.4 170.28 65.0067 170.28 65.66V66.36C170.28 67.3867 170.747 68.4133 171.68 69.44C172.613 70.4667 173.593 71.0733 174.62 71.26H176.02C176.487 71.26 176.813 71.26 177 71.26C177.187 71.1667 177.56 71.0267 178.12 70.84C178.307 70.6533 178.353 70.6067 178.26 70.7C178.26 70.7933 178.447 70.7467 178.82 70.56C179.007 70.28 179.1 70.0933 179.1 70C179.193 69.8133 179.333 69.6267 179.52 69.44V69.16C179.52 69.0667 179.52 69.02 179.52 69.02C179.613 68.9267 179.66 68.8333 179.66 68.74V68.04C179.66 67.2 179.613 66.64 179.52 66.36C179.52 65.9867 179.38 65.24 179.1 64.12C179.1 63.9333 179.007 63.7467 178.82 63.56C178.727 63.3733 178.493 63 178.12 62.44C177.933 62.2533 177.747 62.02 177.56 61.74C177.28 61.2733 177.233 60.9933 177.42 60.9H176.86C176.953 60.7133 176.72 60.3867 176.16 59.92C175.693 59.4533 175.507 59.22 175.6 59.22L175.46 58.66ZM134.72 56.7C134.533 56.7 134.393 56.7467 134.3 56.84C134.3 56.84 134.3 57.0733 134.3 57.54C134.207 57.6333 134.16 57.7267 134.16 57.82V58.24C134.16 59.08 133.88 59.6867 133.32 60.06C132.947 60.62 132.76 61.2267 132.76 61.88C132.48 62.3467 132.293 62.6733 132.2 62.86C132.2 62.9533 132.2 63.2333 132.2 63.7V64.4C132.2 66.4533 132.9 67.8067 134.3 68.46C134.953 68.74 135.467 68.9733 135.84 69.16C136.213 69.2533 136.633 69.2067 137.1 69.02C137.567 69.02 137.94 68.8333 138.22 68.46C138.313 68.3667 138.407 68.32 138.5 68.32C138.593 68.2267 138.687 68.1333 138.78 68.04C138.873 67.9467 138.967 67.9 139.06 67.9V67.62H139.62C139.713 67.62 139.947 67.3867 140.32 66.92C140.787 66.4533 141.02 66.0333 141.02 65.66C141.113 65.38 141.16 65.0533 141.16 64.68C141.16 64.2133 141.16 63.8867 141.16 63.7C141.16 63.42 141.16 63.0933 141.16 62.72C141.16 62.2533 141.113 61.8333 141.02 61.46C141.02 61.2733 140.787 60.9467 140.32 60.48C139.947 59.92 139.76 59.5933 139.76 59.5H139.62H139.76L139.06 58.24H138.78C138.967 58.1467 138.873 58.0067 138.5 57.82C138.22 57.54 137.987 57.26 137.8 56.98C137.613 56.8867 137.473 56.7467 137.38 56.56L136.96 56.14L136.68 56.42C136.587 56.5133 136.4 56.56 136.12 56.56H135.7L134.72 56.7ZM169.72 57.54C170 57.0733 169.86 56.7467 169.3 56.56C169.207 56.4667 169.16 56.3267 169.16 56.14C169.067 55.9533 169.02 55.6733 169.02 55.3C167.993 55.2067 166.873 55.02 165.66 54.74C164.54 54.3667 163.42 54.3667 162.3 54.74C161.273 55.02 160.527 55.72 160.06 56.84C159.593 57.8667 159.36 58.7533 159.36 59.5C159.36 60.1533 159.453 60.6667 159.64 61.04C159.733 61.2267 159.78 61.46 159.78 61.74C159.873 61.9267 159.967 62.1133 160.06 62.3C160.153 62.58 160.2 62.7667 160.2 62.86H160.76C160.76 63.2333 160.9 63.56 161.18 63.84C161.553 64.0267 161.88 64.2133 162.16 64.4C162.44 64.68 162.627 64.8667 162.72 64.96C162.907 65.0533 163.233 65.1 163.7 65.1C165.1 65.38 166.267 65.1467 167.2 64.4C168.413 63.7467 169.253 62.9067 169.72 61.88C170.187 61.4133 170.56 60.9467 170.84 60.48C171.213 60.0133 171.633 59.4067 172.1 58.66C171.913 58.66 171.727 58.6133 171.54 58.52C171.353 58.3333 171.213 58.1933 171.12 58.1C170.933 58.1 170.7 58.0067 170.42 57.82C170.14 57.6333 169.907 57.54 169.72 57.54ZM178.12 55.16C178.12 55.44 177.98 55.9533 177.7 56.7C177.42 57.3533 177.14 57.82 176.86 58.1L177.42 58.66L178.4 60.06L179.1 60.9H178.82H179.1C179.1 60.9933 179.287 61.2267 179.66 61.6C180.127 61.9733 180.36 62.2533 180.36 62.44C180.64 62.44 181.107 62.72 181.76 63.28C182.413 63.84 183.02 64.12 183.58 64.12C184.327 64.3067 184.84 64.4 185.12 64.4C185.493 64.3067 185.96 64.0733 186.52 63.7C187.36 63.2333 187.92 62.3933 188.2 61.18C188.573 59.9667 188.76 58.9867 188.76 58.24C188.48 56.9333 188.013 55.9067 187.36 55.16C186.8 54.32 185.82 53.7133 184.42 53.34C183.953 53.34 183.44 53.3867 182.88 53.48C182.413 53.48 181.9 53.5733 181.34 53.76C181.153 53.76 180.873 53.76 180.5 53.76C180.127 53.76 179.847 53.8533 179.66 54.04H178.12V55.16ZM133.04 56.56C132.107 55.9067 131.407 55.3 130.94 54.74C130.567 54.18 130.38 53.48 130.38 52.64H127.16C125.667 52.64 124.267 53.2467 122.96 54.46C121.653 55.6733 120.953 56.9333 120.86 58.24C120.86 58.9867 120.86 59.4533 120.86 59.64C120.86 59.7333 120.907 60.0133 121 60.48C121.187 60.76 121.327 61.0867 121.42 61.46C121.607 61.8333 121.793 62.16 121.98 62.44C122.447 63 123.007 63.4667 123.66 63.84C124.407 64.2133 125.153 64.4 125.9 64.4C126.367 64.4 126.833 64.4 127.3 64.4C127.767 64.4 128.233 64.3067 128.7 64.12C128.887 63.9333 129.213 63.6533 129.68 63.28C130.147 62.9067 130.38 62.6267 130.38 62.44H130.8C130.613 62.2533 130.613 61.9733 130.8 61.6C131.08 61.2267 131.267 61.04 131.36 61.04C131.547 60.76 131.64 60.5267 131.64 60.34C131.733 60.06 131.92 59.8267 132.2 59.64C132.387 58.8933 132.527 58.24 132.62 57.68C132.713 57.12 132.853 56.7467 133.04 56.56ZM139.06 52.36C139.06 53.0133 138.967 53.48 138.78 53.76C138.78 53.9467 138.687 54.18 138.5 54.46C138.313 54.74 138.22 54.9733 138.22 55.16C138.407 55.2533 138.687 55.5333 139.06 56C139.527 56.4667 139.9 56.7933 140.18 56.98C140.647 57.54 141.02 57.96 141.3 58.24C141.58 58.4267 141.953 58.7533 142.42 59.22C142.513 59.4067 142.793 59.6867 143.26 60.06C143.82 60.34 144.24 60.48 144.52 60.48C144.613 60.6667 144.893 60.9 145.36 61.18C145.92 61.3667 146.433 61.46 146.9 61.46H148.02C148.3 61.46 148.533 61.4133 148.72 61.32C149 61.1333 149.373 60.9933 149.84 60.9C150.307 60.4333 150.587 60.1067 150.68 59.92C150.773 59.64 150.913 59.4067 151.1 59.22C151.473 58.7533 151.753 58.1 151.94 57.26C152.127 56.3267 152.08 55.6267 151.8 55.16C151.613 54.6 151.38 53.9933 151.1 53.34C150.913 52.5933 150.493 52.08 149.84 51.8C148.627 50.8667 147.32 50.4 145.92 50.4H145.36H144.66C144.66 50.4 144.38 50.4933 143.82 50.68C143.26 50.7733 142.653 50.9133 142 51.1C141.347 51.2867 140.693 51.4733 140.04 51.66C139.48 51.7533 139.153 51.8 139.06 51.8V52.36ZM165.1 42.7C164.633 42.7 164.167 42.84 163.7 43.12C163.233 43.3067 162.907 43.4 162.72 43.4V43.68C162.44 43.68 162.113 43.9133 161.74 44.38C161.367 44.8467 161.087 45.1733 160.9 45.36C160.807 45.7333 160.76 46.5267 160.76 47.74C160.76 48.2067 160.76 48.72 160.76 49.28C160.853 49.84 161.04 50.3533 161.32 50.82C161.507 51.0067 161.693 51.24 161.88 51.52C162.067 51.7067 162.207 51.8 162.3 51.8L162.86 52.08C163.327 52.2667 163.513 52.36 163.42 52.36C163.327 52.36 163.42 52.36 163.7 52.36C163.793 52.5467 164.12 52.7333 164.68 52.92C165.24 53.1067 165.8 53.2933 166.36 53.48C167.013 53.5733 167.573 53.6667 168.04 53.76C168.6 53.8533 168.927 53.8533 169.02 53.76C169.207 53.3867 169.347 53.0133 169.44 52.64C169.533 52.1733 169.813 51.7067 170.28 51.24C170.467 51.0533 170.84 50.7733 171.4 50.4C171.96 50.0267 172.38 49.84 172.66 49.84C172.66 49.7467 172.66 49.6067 172.66 49.42C172.66 49.14 172.613 48.86 172.52 48.58C172.52 48.3 172.38 48.02 172.1 47.74C172.1 47.2733 171.96 46.8533 171.68 46.48C171.4 46.0133 171.213 45.64 171.12 45.36C170.933 45.1733 170.653 44.8933 170.28 44.52C169.907 44.1467 169.487 43.8667 169.02 43.68C168.647 43.2133 168.227 42.9333 167.76 42.84C167.293 42.7467 166.967 42.7 166.78 42.7H165.1ZM232.16 44.24C232.253 45.08 232.44 46.06 232.72 47.18C233 48.3 233.327 49.1867 233.7 49.84C233.98 50.2133 234.12 50.68 234.12 51.24C234.213 51.52 234.353 51.7533 234.54 51.94C234.82 52.1267 235.007 52.36 235.1 52.64C235.287 53.0133 235.52 53.48 235.8 54.04C236.08 54.6 236.313 54.9733 236.5 55.16C236.967 55.44 237.2 55.9067 237.2 56.56C237.76 56.7467 238.18 57.0733 238.46 57.54C238.833 57.82 239.207 58.1933 239.58 58.66C239.953 59.1267 240.327 59.4533 240.7 59.64C240.887 59.8267 241.213 60.1533 241.68 60.62C242.24 61.0867 242.8 61.5533 243.36 62.02C243.92 62.3933 244.387 62.7667 244.76 63.14C245.227 63.42 245.507 63.56 245.6 63.56V61.88C245.6 61.4133 245.553 60.9933 245.46 60.62C245.367 60.1533 245.32 59.8267 245.32 59.64L244.9 56.98C244.9 56.7933 244.807 56.6067 244.62 56.42C244.433 56.14 244.34 55.9067 244.34 55.72C244.34 55.5333 244.293 55.3 244.2 55.02C244.107 54.74 244.06 54.5067 244.06 54.32C243.967 53.6667 243.64 52.92 243.08 52.08C242.52 51.24 241.96 50.4467 241.4 49.7C241.213 49.42 240.98 49.0933 240.7 48.72C240.42 48.3467 240 48.02 239.44 47.74C239.253 47.46 239.067 47.2733 238.88 47.18C238.693 46.9933 238.553 46.8533 238.46 46.76C238.273 46.76 238.04 46.62 237.76 46.34C237.667 46.34 237.573 46.2933 237.48 46.2C237.387 46.2 237.34 46.2 237.34 46.2C237.34 46.1067 237.293 46.06 237.2 46.06C237.107 46.06 237.06 46.0133 237.06 45.92C236.873 45.8267 236.547 45.5933 236.08 45.22C235.613 44.8467 235.1 44.52 234.54 44.24C234.073 43.8667 233.56 43.54 233 43.26C232.533 42.98 232.253 42.84 232.16 42.84V44.24ZM174.06 46.76V46.9V48.58V49.14V49.56C174.06 49.6533 174.107 49.7467 174.2 49.84C174.947 49.84 175.74 50.2133 176.58 50.96C177.42 51.6133 177.84 52.1733 177.84 52.64C178.12 52.64 178.633 52.5467 179.38 52.36C180.22 52.1733 180.873 52.08 181.34 52.08C182.46 51.8 183.02 51.4733 183.02 51.1C183.3 51.1 183.487 51.0067 183.58 50.82C183.767 50.54 183.907 50.4 184 50.4C184.187 50.4 184.327 50.3067 184.42 50.12C184.513 49.9333 184.7 49.7933 184.98 49.7L185.26 49.42L185.4 48.58C185.4 48.3933 185.493 48.1133 185.68 47.74C185.867 47.3667 185.96 47.0867 185.96 46.9V46.76V46.34C185.867 44.8467 185.12 43.54 183.72 42.42C182.32 41.3 180.92 40.74 179.52 40.74C177.84 40.74 176.393 41.3933 175.18 42.7C174.713 43.0733 174.387 43.5867 174.2 44.24C174.107 44.8933 174.06 45.5933 174.06 46.34V46.76ZM121.98 48.58C121.793 49.0467 121.98 49.42 122.54 49.7C123.1 49.8867 123.52 50.12 123.8 50.4L124.36 50.82C124.453 50.82 124.64 50.8667 124.92 50.96C125.293 51.0533 125.573 51.1 125.76 51.1H130.1C130.287 51.1 130.38 50.96 130.38 50.68C130.473 50.4 130.613 50.12 130.8 49.84C130.8 49.7467 130.847 49.6533 130.94 49.56C131.127 49.3733 131.267 49.0467 131.36 48.58C131.547 48.3933 131.873 48.2533 132.34 48.16C132.807 48.0667 133.367 47.9267 134.02 47.74C133.553 46.9933 133.087 45.9667 132.62 44.66C132.153 43.3533 131.687 42.56 131.22 42.28C130.753 41.8133 130.38 41.44 130.1 41.16C129.913 40.7867 129.447 40.3667 128.7 39.9C127.953 39.8067 127.44 39.7133 127.16 39.62C126.973 39.4333 126.507 39.34 125.76 39.34C124.453 39.5267 123.427 39.9933 122.68 40.74C122.027 41.3933 121.467 42.0933 121 42.84C120.627 43.4 120.393 44.0067 120.3 44.66C120.3 45.22 120.3 45.64 120.3 45.92C120.3 46.3867 120.393 46.7133 120.58 46.9C120.767 46.9933 120.86 47.2733 120.86 47.74C121.233 47.74 121.42 47.9267 121.42 48.3H121.56C121.56 48.3 121.607 48.3933 121.7 48.58H121.98ZM135.56 43.96V46.34V46.9V47.74C136.027 47.74 136.68 48.0667 137.52 48.72C138.36 49.3733 138.78 49.9333 138.78 50.4C139.247 50.12 139.853 49.8867 140.6 49.7C141.44 49.5133 142.093 49.3267 142.56 49.14C142.653 48.86 142.887 48.6733 143.26 48.58C143.633 48.4867 143.913 48.3467 144.1 48.16C144.287 48.16 144.66 47.9733 145.22 47.6C145.5 47.4133 145.733 47.18 145.92 46.9V46.76C146.013 46.76 146.06 46.62 146.06 46.34C146.433 46.06 146.713 45.8267 146.9 45.64C147.273 45.36 147.46 44.8 147.46 43.96C147.927 42.4667 147.927 41.3933 147.46 40.74C146.993 39.5267 146.153 38.5467 144.94 37.8C143.727 36.96 142.467 36.54 141.16 36.54H141.02C139.993 36.54 139.153 36.7733 138.5 37.24C137.847 37.7067 137.287 38.2667 136.82 38.92C136.447 39.5733 136.12 40.2733 135.84 41.02C135.653 41.6733 135.56 42.28 135.56 42.84V43.96ZM41.62 51.1L41.76 48.16V47.74V46.9V46.76V46.34C41.9467 45.8733 41.9467 45.2667 41.76 44.52C41.5733 43.7733 41.3867 43.1667 41.2 42.7C41.2 42.5133 41.1067 42.2333 40.92 41.86C40.8267 41.4867 40.78 41.2067 40.78 41.02C40.5 40.5533 40.3133 40.2267 40.22 40.04C40.1267 39.76 39.9867 39.5267 39.8 39.34C39.8 39.1533 39.5667 38.7333 39.1 38.08C38.7267 37.3333 38.3067 36.5867 37.84 35.84C37.4667 35.0933 37.0467 34.44 36.58 33.88C36.2067 33.2267 36.02 32.9 36.02 32.9C35.5533 33.3667 35.2733 34.2067 35.18 35.42C35.0867 36.6333 35.04 37.4733 35.04 37.94C35.04 38.6867 35.1333 39.48 35.32 40.32C35.6 41.0667 35.8333 41.86 36.02 42.7C36.1133 43.1667 36.3933 43.8667 36.86 44.8C37.42 45.64 37.8867 46.2933 38.26 46.76C38.4467 46.8533 38.54 47.0867 38.54 47.46C38.6333 47.74 38.7733 47.9733 38.96 48.16C38.96 48.2533 39.0067 48.3 39.1 48.3C39.1933 48.3 39.24 48.3467 39.24 48.44C39.24 48.44 39.2867 48.44 39.38 48.44C39.4733 48.5333 39.5667 48.58 39.66 48.58C39.7533 49.0467 40.0333 49.5133 40.5 49.98C40.9667 50.3533 41.2 50.7267 41.2 51.1H41.62ZM146.9 28.56C146.9 28.6533 146.993 28.8867 147.18 29.26C147.367 29.54 147.46 29.82 147.46 30.1C147.74 30.5667 147.927 30.94 148.02 31.22C148.207 31.5 148.393 31.8733 148.58 32.34C148.58 32.5267 148.86 33.04 149.42 33.88C150.073 34.72 150.54 35.14 150.82 35.14L151.8 36.4V35.84V36.4C151.987 36.5867 152.22 36.7267 152.5 36.82C153.06 37.0067 153.48 37.1 153.76 37.1C154.04 37.4733 154.32 37.7067 154.6 37.8C154.88 37.8933 155.113 37.94 155.3 37.94C155.487 37.94 155.767 38.0333 156.14 38.22C156.513 38.3133 156.793 38.4067 156.98 38.5C157.167 38.5 157.447 38.5933 157.82 38.78C158.193 38.9667 158.52 39.06 158.8 39.06C159.36 39.2467 159.967 39.4333 160.62 39.62C161.273 39.7133 161.833 39.8067 162.3 39.9C162.487 39.9 162.767 39.9 163.14 39.9C163.607 39.9 163.933 39.9467 164.12 40.04C164.213 40.04 164.493 40.2267 164.96 40.6C165.427 40.88 165.707 41.02 165.8 41.02V40.04V39.76C165.8 39.0133 165.66 38.1267 165.38 37.1C165.193 36.0733 164.82 35.1867 164.26 34.44C164.167 33.9733 164.027 33.6467 163.84 33.46C163.653 33.2733 163.327 32.9 162.86 32.34C162.767 32.1533 162.393 31.8267 161.74 31.36C161.18 30.8933 160.853 30.66 160.76 30.66L159.92 30.1C159.36 29.7267 158.987 29.4933 158.8 29.4C158.52 29.0267 158.193 28.84 157.82 28.84C157.54 28.7467 157.353 28.6533 157.26 28.56C156.793 28.3733 156.233 28.2333 155.58 28.14C155.02 28.0467 154.413 28 153.76 28C153.013 27.8133 152.453 27.72 152.08 27.72C151.707 27.72 151.287 27.72 150.82 27.72C150.167 27.9067 149.467 28.0467 148.72 28.14C148.067 28.14 147.46 28.28 146.9 28.56ZM164.26 28C164.26 28.3733 164.307 28.84 164.4 29.4C164.587 29.96 164.82 30.4733 165.1 30.94C165.287 31.5 165.427 32.1067 165.52 32.76C165.707 33.4133 165.987 33.9267 166.36 34.3C166.733 34.7667 166.967 35.3267 167.06 35.98C167.247 36.54 167.48 37.1467 167.76 37.8C167.947 38.1733 168.133 38.6867 168.32 39.34C168.6 39.9 168.833 40.46 169.02 41.02C169.393 40.8333 169.86 40.46 170.42 39.9C171.073 39.2467 171.493 38.7333 171.68 38.36C171.867 38.1733 172.053 38.0333 172.24 37.94C172.427 37.7533 172.567 37.4267 172.66 36.96C172.847 36.68 173.033 36.4 173.22 36.12C173.5 35.84 173.733 35.5133 173.92 35.14C174.013 34.7667 174.153 34.3 174.34 33.74C174.62 33.0867 174.9 32.62 175.18 32.34C175.18 31.8733 175.227 31.2667 175.32 30.52C175.507 29.68 175.6 29.0267 175.6 28.56C175.6 28.28 175.647 27.9067 175.74 27.44C175.927 26.9733 176.02 26.6933 176.02 26.6C176.02 26.5067 175.927 26.2733 175.74 25.9C175.647 25.4333 175.6 25.1533 175.6 25.06C175.6 24.5933 175.507 23.9867 175.32 23.24C175.133 22.4933 174.9 21.9333 174.62 21.56C174.62 21.3733 174.527 21.0933 174.34 20.72L174.06 20.16C174.06 19.88 173.873 19.5533 173.5 19.18C173.127 18.8067 172.94 18.5267 172.94 18.34C172.753 18.1533 172.427 17.78 171.96 17.22C171.493 16.66 171.26 16.0533 171.26 15.4H171.12C171.12 15.8667 170.84 16.4733 170.28 17.22C169.813 17.8733 169.487 18.2467 169.3 18.34C169.113 18.5267 168.927 18.8067 168.74 19.18C168.553 19.46 168.32 19.6467 168.04 19.74C168.04 20.2067 167.9 20.58 167.62 20.86C167.34 21.14 167.153 21.3733 167.06 21.56C166.407 22.3067 165.753 23.2867 165.1 24.5C164.54 25.62 164.26 26.6933 164.26 27.72V28ZM0.32 13.16C0.32 12.7867 0.366667 12.46 0.46 12.18C0.46 11.9933 0.46 11.8067 0.46 11.62C0.553334 11.4333 0.6 11.2933 0.6 11.2V9.94C0.6 9.84666 0.646667 9.75333 0.74 9.65999C0.74 9.56666 0.74 9.52 0.74 9.52C0.833334 9.42666 0.88 9.33333 0.88 9.24C1.06667 8.77333 1.25333 8.30666 1.44 7.83999C1.62667 7.37333 1.76667 7.04666 1.86 6.86C2.04667 6.67333 2.18667 6.48666 2.28 6.3C2.37333 6.11333 2.51333 5.92666 2.7 5.73999L2.98 5.46C3.26 5.18 3.35333 5.04 3.26 5.04C3.44667 4.66666 3.68 4.34 3.96 4.06C4.33333 3.78 4.61333 3.40666 4.8 2.94C5.64 2.84667 6.24667 2.38 6.62 1.54C7.08667 1.35333 7.83333 1.07333 8.86 0.699993C9.88667 0.326659 10.6333 0.139992 11.1 0.139992H11.52H13.06C13.34 0.0466594 13.9 0.139994 14.74 0.419996C15.58 0.699998 16.14 0.933331 16.42 1.12C16.6067 1.30666 16.8867 1.44666 17.26 1.54C17.6333 1.63333 17.8667 1.81999 17.96 2.09999C18.24 2.09999 18.4733 2.23999 18.66 2.51999C18.94 2.8 19.1733 2.94 19.36 2.94C19.1733 2.94 19.22 3.08 19.5 3.35999C19.8733 3.63999 20.06 3.87333 20.06 4.06C20.2467 4.24666 20.48 4.52666 20.76 4.9C20.76 4.99333 20.9 5.36666 21.18 6.02C21.46 6.58 21.18 6.86 20.34 6.86H20.06C20.06 6.67333 19.8733 6.34666 19.5 5.87999C19.22 5.31999 18.9867 4.99333 18.8 4.9C18.6133 4.43333 18.2867 4.10666 17.82 3.91999C17.4467 3.73333 17.12 3.40666 16.84 2.94C16.1867 2.47333 15.44 2.19333 14.6 2.09999C13.76 2.00666 12.9667 1.81999 12.22 1.54H11.94C11.4733 1.54 10.7733 1.72666 9.84 2.09999C8.90667 2.37999 8.16 2.66 7.6 2.94C7.32 3.40666 6.99333 3.73333 6.62 3.91999C6.24667 4.01333 5.96667 4.15333 5.78 4.34C5.59333 4.62 5.31333 4.94666 4.94 5.31999C4.66 5.59999 4.52 5.83333 4.52 6.02C4.05333 6.67333 3.68 7.27999 3.4 7.83999C3.12 8.4 2.88667 8.96 2.7 9.52C2.51333 10.4533 2.28 11.2 2 11.76C1.81333 12.32 1.72 13.02 1.72 13.86V15.26C1.72 15.4467 1.72 15.82 1.72 16.38C1.81333 16.8467 1.86 17.1733 1.86 17.36C1.86 17.8267 1.90667 18.1533 2 18.34C2.18667 18.4333 2.28 18.5733 2.28 18.76V19.32C2.28 19.5067 2.42 19.6467 2.7 19.74C2.7 19.9267 2.74667 20.3 2.84 20.86C3.02667 21.3267 3.12 21.6533 3.12 21.84C3.21333 22.3067 3.26 22.7267 3.26 23.1C3.44667 23.38 3.63333 23.6133 3.82 23.8C4.00667 23.8933 4.1 24.0333 4.1 24.22C4.28667 24.6867 4.47333 25.2933 4.66 26.04C4.94 26.6933 5.40667 27.3933 6.06 28.14C6.24667 28.7933 6.57333 29.4467 7.04 30.1C7.04 30.38 7.13333 30.6133 7.32 30.8C7.50667 30.9867 7.6 31.1733 7.6 31.36L8.44 32.06V32.34L8.72 32.62L9.7 33.6H9.42H9.7L10.4 34.44C10.4933 34.44 10.68 34.6267 10.96 35C11.24 35.3733 11.52 35.7933 11.8 36.26C12.1733 36.6333 12.5 37.0067 12.78 37.38C13.1533 37.7533 13.4333 37.94 13.62 37.94L14.18 38.36C14.3667 38.5467 14.6 38.7333 14.88 38.92C15.0667 39.1067 15.2067 39.2933 15.3 39.48C15.4867 39.5733 15.58 39.6667 15.58 39.76C15.7667 39.8533 16 39.9933 16.28 40.18C16.6533 40.2733 16.9333 40.5533 17.12 41.02C17.2133 41.02 17.54 41.2067 18.1 41.58C18.38 41.7667 18.6133 41.9067 18.8 42C19.5467 42.3733 20.06 42.84 20.34 43.4C21.0867 43.68 21.6933 44.0067 22.16 44.38C22.72 44.7533 23.2333 45.08 23.7 45.36C23.98 45.5467 24.26 45.7333 24.54 45.92C24.9133 46.0133 25.3333 46.1533 25.8 46.34C26.08 46.62 26.2667 46.76 26.36 46.76C26.4533 46.8533 26.5933 46.9 26.78 46.9H27.48C27.9467 47.5533 28.5533 47.9733 29.3 48.16C30.0467 48.3467 30.7 48.6733 31.26 49.14C31.3533 49.3267 31.82 49.6067 32.66 49.98C33.5933 50.26 34.1067 50.4 34.2 50.4C34.48 50.7733 34.8067 51.0067 35.18 51.1C35.5533 51.1 35.88 51.1467 36.16 51.24C36.2533 51.24 36.4867 51.3333 36.86 51.52C37.2333 51.7067 37.5133 51.8933 37.7 52.08C38.1667 52.08 38.82 52.3133 39.66 52.78C40.5 53.1533 41.1533 53.34 41.62 53.34L41.2 53.06C41.2 52.8733 41.0133 52.5933 40.64 52.22C40.2667 51.8467 39.9867 51.52 39.8 51.24C39.7067 51.1467 39.52 50.96 39.24 50.68C39.0533 50.4 38.82 50.12 38.54 49.84C38.0733 49.6533 37.56 49.2333 37 48.58C36.5333 47.8333 36.2533 47.2267 36.16 46.76C36.16 46.5733 36.1133 46.4333 36.02 46.34C36.02 46.2467 36.02 46.1067 36.02 45.92C35.74 45.7333 35.6 45.4067 35.6 44.94C35.1333 44.8467 34.8533 44.7067 34.76 44.52C34.76 44.24 34.7133 43.96 34.62 43.68C34.4333 43.2133 34.2933 42.56 34.2 41.72C34.1067 40.88 34.06 40.2267 34.06 39.76C34.06 39.5733 33.92 39.2933 33.64 38.92C33.4533 38.4533 33.36 38.08 33.36 37.8C33.36 37.4267 33.36 37.1 33.36 36.82C33.4533 36.54 33.6867 36.2133 34.06 35.84C34.06 35.3733 34.06 34.86 34.06 34.3C34.06 33.6467 34.1067 33.0867 34.2 32.62L34.62 32.06V30.94C34.7133 30.7533 34.9 30.5667 35.18 30.38C35.5533 30.1933 35.88 30.2867 36.16 30.66L38.26 33.6V33.74C38.26 33.9267 38.3533 34.1133 38.54 34.3C38.6333 34.3 38.7267 34.3467 38.82 34.44C38.82 34.44 38.9133 34.6267 39.1 35C39.38 35.0933 39.5667 35.28 39.66 35.56C39.7533 35.84 39.8 36.12 39.8 36.4C40.1733 36.7733 40.5 37.1933 40.78 37.66C41.1533 38.0333 41.48 38.5933 41.76 39.34C42.4133 40.6467 42.8333 41.8133 43.02 42.84C43.3 43.8667 43.44 45.0333 43.44 46.34V46.76V46.9V47.74V48.16C43.44 48.2533 43.3933 48.6267 43.3 49.28C43.2067 49.84 43.16 50.3533 43.16 50.82C43.16 51.0067 43.1133 51.24 43.02 51.52C43.02 51.7067 43.02 51.8933 43.02 52.08C42.8333 52.2667 42.6933 52.5467 42.6 52.92C42.5067 53.2 42.2267 53.34 41.76 53.34C41.9467 53.4333 42.46 53.62 43.3 53.9C44.2333 54.18 45.1667 54.46 46.1 54.74C47.1267 55.02 48.06 55.3 48.9 55.58C49.74 55.86 50.3 56.0467 50.58 56.14C51.0467 56.3267 51.4667 56.4667 51.84 56.56C52.3067 56.56 52.68 56.6067 52.96 56.7C53.24 56.7 53.5667 56.7467 53.94 56.84C54.3133 56.9333 54.64 56.98 54.92 56.98C55.3867 57.26 56.18 57.54 57.3 57.82C58.42 58.0067 59.0733 58.1 59.26 58.1C59.3533 58.1 59.68 58.1467 60.24 58.24C60.8 58.24 61.36 58.3333 61.92 58.52C62.5733 58.6133 63.1333 58.7533 63.6 58.94C64.16 59.0333 64.5333 59.1267 64.72 59.22C65.1867 59.22 65.7 59.22 66.26 59.22C66.9133 59.22 67.38 59.3133 67.66 59.5C68.0333 59.5 68.4533 59.5467 68.92 59.64C69.48 59.64 69.9467 59.64 70.32 59.64L75.92 60.48H77.6H80.96L80.4 60.9C80.68 60.7133 80.7733 60.62 80.68 60.62C80.5867 60.5267 80.68 60.48 80.96 60.48H81.1H81.52C81.52 60.48 81.5667 60.5733 81.66 60.76V60.9H82.08L82.92 60.48L85.58 60.9H86H86.98H87.26H88.24H88.52H89.22H89.92H90.48H92.86H93.14H93.42H94.12V60.48H94.26H94.4H94.82H97.9H99.16C99.44 60.48 99.6267 60.4333 99.72 60.34C99.8133 60.2467 99.86 60.2933 99.86 60.48H100.28L103.22 60.06H103.78L106.16 59.64L111.2 59.22C112.787 58.94 114.093 58.7067 115.12 58.52C116.147 58.3333 117.407 58.1467 118.9 57.96C119.367 57.7733 119.553 57.68 119.46 57.68C119.46 57.68 119.553 57.4467 119.74 56.98C119.74 56.7933 119.833 56.6533 120.02 56.56C120.02 55.9067 120.3 55.3 120.86 54.74C121.14 54.3667 121.56 53.8533 122.12 53.2C122.773 52.4533 123.333 52.08 123.8 52.08L122.68 51.52C122.027 51.24 121.7 51.0067 121.7 50.82C121.233 50.6333 120.86 50.3533 120.58 49.98C120.3 49.5133 120.02 49.0467 119.74 48.58C119.553 48.3933 119.367 48.1133 119.18 47.74C118.993 47.2733 118.9 46.9467 118.9 46.76C118.807 46.0133 118.76 45.5467 118.76 45.36C118.853 45.1733 118.9 44.8 118.9 44.24C118.9 43.4933 119.18 42.7467 119.74 42C120.3 41.16 120.86 40.46 121.42 39.9C122.82 38.5933 124.5 37.94 126.46 37.94H126.88H127.72C128.187 38.1267 128.467 38.2667 128.56 38.36C128.747 38.36 128.933 38.4067 129.12 38.5C129.307 38.6867 129.54 38.8733 129.82 39.06C130.1 39.1533 130.333 39.2933 130.52 39.48C130.8 39.6667 131.08 39.8067 131.36 39.9L131.64 40.74C131.827 40.74 132.06 40.9267 132.34 41.3C132.713 41.58 132.993 41.9067 133.18 42.28L134.02 43.68C134.113 43.4933 134.113 43.4933 134.02 43.68C134.02 43.7733 134.02 43.68 134.02 43.4C134.02 43.0267 134.02 42.56 134.02 42C134.113 41.44 134.207 41.02 134.3 40.74C134.3 40.2733 134.347 39.9933 134.44 39.9C134.627 39.7133 134.72 39.5267 134.72 39.34C134.813 39.1533 134.953 38.92 135.14 38.64C135.233 38.5467 135.28 38.5 135.28 38.5C135.28 38.4067 135.327 38.3133 135.42 38.22C135.42 38.1267 135.467 38.0333 135.56 37.94H135.7L136.54 37.1V36.96C136.727 36.96 136.82 36.9133 136.82 36.82C136.913 36.6333 137.007 36.4933 137.1 36.4C137.287 36.4 137.473 36.3067 137.66 36.12C137.847 35.9333 138.033 35.84 138.22 35.84C138.5 35.6533 138.733 35.56 138.92 35.56C139.107 35.4667 139.387 35.3267 139.76 35.14C140.413 35.14 141.02 35.1867 141.58 35.28C142.233 35.28 142.747 35.3733 143.12 35.56C143.867 35.7467 144.567 36.0267 145.22 36.4C145.873 36.68 146.433 37.1467 146.9 37.8C147.18 38.08 147.46 38.3133 147.74 38.5C148.02 38.5933 148.3 38.8733 148.58 39.34C148.58 39.5267 148.627 39.8067 148.72 40.18C148.907 40.5533 149.14 40.74 149.42 40.74L152.36 38.5C152.36 38.4067 152.08 38.1733 151.52 37.8C150.96 37.3333 150.54 37.0533 150.26 36.96C150.073 36.7733 149.747 36.4933 149.28 36.12C148.813 35.6533 148.58 35.3267 148.58 35.14H148.3C148.487 35.14 148.393 34.86 148.02 34.3C147.833 34.02 147.647 33.7867 147.46 33.6C146.9 32.9467 146.62 32.2467 146.62 31.5C146.34 31.22 146.06 30.66 145.78 29.82C145.5 28.8867 145.36 28.28 145.36 28C145.36 27.8133 145.407 27.6267 145.5 27.44C145.593 27.2533 145.78 27.16 146.06 27.16C146.527 26.9733 146.807 26.88 146.9 26.88C147.087 26.7867 147.46 26.6933 148.02 26.6C148.3 26.6 148.767 26.5067 149.42 26.32C150.073 26.04 150.54 26.0867 150.82 26.46H151.1L151.52 25.76L151.8 26.46H152.36L152.5 25.76C152.687 26.1333 152.78 26.3667 152.78 26.46C152.873 26.46 152.967 26.46 153.06 26.46L155.86 26.6V26.74C156.327 26.74 156.84 26.9267 157.4 27.3C158.053 27.58 158.473 27.72 158.66 27.72C159.033 27.72 159.453 27.9067 159.92 28.28C160.48 28.56 160.807 28.7 160.9 28.7C161.273 28.7 161.693 29.0267 162.16 29.68C162.627 30.24 162.953 30.38 163.14 30.1C163.047 29.82 163 29.54 163 29.26C162.907 29.0733 162.86 28.8867 162.86 28.7C162.86 28.42 162.86 28.1867 162.86 28V27.16C162.953 27.0667 163 26.9267 163 26.74C163 26.3667 162.953 26.04 162.86 25.76C163.047 25.76 163.327 25.3867 163.7 24.64C164.073 23.8 164.353 23.1 164.54 22.54C164.82 22.1667 165.007 21.9333 165.1 21.84C165.287 21.7467 165.473 21.4667 165.66 21C165.66 20.8133 165.8 20.58 166.08 20.3C166.36 19.9267 166.593 19.6933 166.78 19.6C167.06 18.76 167.387 18.2467 167.76 18.06C168.04 17.5933 168.273 17.2667 168.46 17.08C168.647 16.8 168.833 16.52 169.02 16.24C169.207 16.24 169.347 16.0067 169.44 15.54C169.627 15.0733 169.813 14.84 170 14.84C170.187 14.4667 170.28 14.0933 170.28 13.72C170.373 13.3467 170.653 13.16 171.12 13.16C171.587 13.16 171.867 13.3467 171.96 13.72C172.147 14 172.333 14.2333 172.52 14.42C172.613 14.8867 172.707 15.2133 172.8 15.4C172.987 15.4933 173.22 15.7733 173.5 16.24C173.5 16.4267 173.593 16.6133 173.78 16.8C173.967 16.9867 174.107 17.1733 174.2 17.36C174.387 17.8267 174.527 18.1533 174.62 18.34C174.713 18.4333 174.9 18.5733 175.18 18.76C175.367 19.2267 175.647 19.7867 176.02 20.44C176.393 21 176.673 21.6067 176.86 22.26C176.953 22.7267 177.047 23.2867 177.14 23.94C177.327 24.5 177.42 25.0133 177.42 25.48V27.16C177.42 27.6267 177.327 28.28 177.14 29.12C177.047 29.8667 176.953 30.4733 176.86 30.94C176.86 31.1267 176.767 31.4067 176.58 31.78C176.487 32.06 176.44 32.34 176.44 32.62C176.253 33.0867 176.113 33.4133 176.02 33.6C175.927 33.6933 175.787 33.9267 175.6 34.3C175.507 34.7667 175.273 35.28 174.9 35.84C174.62 36.3067 174.387 36.7267 174.2 37.1C174.107 37.4733 173.967 37.8467 173.78 38.22C173.593 38.5 173.5 38.78 173.5 39.06C173.127 39.2467 172.847 39.48 172.66 39.76C172.567 39.8533 172.427 39.9 172.24 39.9C172.147 39.9 172.1 39.9467 172.1 40.04L171.26 41.02C171.167 41.02 170.98 41.2067 170.7 41.58C170.513 41.86 170.187 42.0933 169.72 42.28C170 42.4667 170.327 42.7 170.7 42.98C171.073 43.26 171.26 43.4933 171.26 43.68C171.447 43.68 171.633 43.8667 171.82 44.24C172.1 44.6133 172.333 44.8 172.52 44.8C172.613 44.52 172.66 44.1933 172.66 43.82C172.66 43.4467 172.753 43.12 172.94 42.84C172.94 42.7467 173.08 42.56 173.36 42.28C173.733 42 173.92 41.72 173.92 41.44H174.06C174.06 41.16 174.247 41.02 174.62 41.02C174.807 40.8333 175.04 40.6467 175.32 40.46C175.88 40.0867 176.253 39.9 176.44 39.9C176.627 39.9 176.907 39.8067 177.28 39.62L177.84 39.34H178.82H179.66C180.407 39.34 181.34 39.5267 182.46 39.9C183.58 40.18 184.42 40.6467 184.98 41.3C185.447 42.0467 186.007 42.8867 186.66 43.82C187.407 44.7533 187.64 45.5933 187.36 46.34V46.76C187.36 47.5067 187.173 48.4867 186.8 49.7C186.333 50.4467 185.96 50.9133 185.68 51.1C185.4 51.2867 185.167 51.6133 184.98 52.08C185.167 52.08 185.353 52.1267 185.54 52.22C185.82 52.3133 185.96 52.2667 185.96 52.08C186.24 51.9867 186.567 51.8467 186.94 51.66C187.22 51.5667 187.453 51.4733 187.64 51.38C187.92 51.2867 188.107 51.24 188.2 51.24C188.387 51.1467 188.62 51.0533 188.9 50.96C189.273 50.7733 189.553 50.5867 189.74 50.4C190.207 50.4 190.58 50.3067 190.86 50.12C191.14 49.9333 191.42 49.84 191.7 49.84C192.073 49.7467 192.4 49.6533 192.68 49.56C192.96 49.4667 193.333 49.42 193.8 49.42C194.36 49.0467 195.013 48.6733 195.76 48.3C196.04 48.3 196.32 48.3 196.6 48.3C196.973 48.2067 197.207 48.16 197.3 48.16C197.953 47.9733 198.467 47.7867 198.84 47.6C199.213 47.32 199.54 47.0867 199.82 46.9C200.287 46.9 200.66 46.9 200.94 46.9C201.22 46.8067 201.593 46.76 202.06 46.76C202.34 46.5733 202.807 46.34 203.46 46.06C204.113 45.78 204.767 45.5467 205.42 45.36C205.887 45.36 206.4 45.2667 206.96 45.08C207.613 44.8 208.267 44.52 208.92 44.24C209.107 44.24 209.62 44.1933 210.46 44.1C211.3 43.9133 212.187 43.7267 213.12 43.54L216.76 42.7C217.227 42.7 217.693 42.6533 218.16 42.56C218.627 42.3733 219.047 42.1867 219.42 42C219.7 42 220.12 41.9067 220.68 41.72C221.333 41.44 221.847 41.3 222.22 41.3C222.407 41.3 222.78 41.2533 223.34 41.16C223.9 41.0667 224.507 41.02 225.16 41.02C225.813 40.8333 226.327 40.74 226.7 40.74C227.167 40.74 227.727 40.74 228.38 40.74C229.5 40.3667 230.48 40.1333 231.32 40.04C232.253 39.9467 233.233 39.8533 234.26 39.76L238.6 39.34H239.44H240.56H240.7H241.12H241.4H241.96H242.1H245.32H248.4H249.1H251.06H251.48H251.9L255.26 39.76H255.4C255.867 39.76 256.333 39.8067 256.8 39.9C257.267 39.9 257.733 39.9 258.2 39.9H259.6C259.787 39.9933 260.02 40.18 260.3 40.46C260.58 40.6467 260.767 40.74 260.86 40.74C261.047 40.74 261.513 40.74 262.26 40.74C263.007 40.74 263.473 40.8333 263.66 41.02C263.94 41.02 264.267 41.02 264.64 41.02C265.107 41.02 265.573 41.1133 266.04 41.3C266.32 41.3933 266.74 41.4867 267.3 41.58C267.86 41.58 268.28 41.72 268.56 42C268.933 42.1867 269.353 42.3267 269.82 42.42C270.38 42.42 270.847 42.5133 271.22 42.7C272.06 43.0733 272.947 43.3533 273.88 43.54C274.813 43.7267 275.793 43.96 276.82 44.24C280.087 45.4533 283.447 46.8067 286.9 48.3C287.18 48.4867 287.413 48.6733 287.6 48.86C287.787 49.0467 288.02 49.2333 288.3 49.42C288.58 49.6067 288.767 49.7 288.86 49.7C289.047 49.7 289.233 49.7467 289.42 49.84C289.793 49.84 290.307 50.0733 290.96 50.54C291.613 50.9133 292.033 51.1467 292.22 51.24L293.62 52.08C293.713 52.2667 293.807 52.4533 293.9 52.64C293.993 52.7333 294.227 52.8733 294.6 53.06C294.787 53.06 295.16 53.34 295.72 53.9C296.28 54.46 296.607 54.74 296.7 54.74L299.5 56.7L300.76 58.1L300.9 58.24C301.087 58.4267 301.273 58.5667 301.46 58.66L301.74 58.94C301.927 59.1267 302.067 59.22 302.16 59.22C302.16 59.4067 302.393 59.7333 302.86 60.2C303.42 60.6667 303.7 60.9467 303.7 61.04C303.793 61.04 303.98 61.2267 304.26 61.6C304.54 61.9733 304.82 62.3933 305.1 62.86C305.473 63.3267 305.8 63.7933 306.08 64.26C306.453 64.6333 306.733 64.9133 306.92 65.1C307.013 65.2867 307.247 65.7067 307.62 66.36C307.993 66.92 308.18 67.34 308.18 67.62C308.367 67.8067 308.553 68.1333 308.74 68.6C308.927 68.9733 309.067 69.2533 309.16 69.44C309.347 69.6267 309.533 70 309.72 70.56C309.907 71.12 310.14 71.5867 310.42 71.96C310.513 72.1467 310.607 72.52 310.7 73.08C310.793 73.64 310.84 74.0133 310.84 74.2C311.027 74.5733 311.12 74.9933 311.12 75.46C311.213 75.8333 311.447 76.3 311.82 76.86L311.96 79.66V82.32C311.867 82.5067 311.82 82.9733 311.82 83.72C311.82 84.4667 311.82 84.98 311.82 85.26C311.447 85.7267 311.213 86.1467 311.12 86.52C311.12 86.8 311.027 87.1733 310.84 87.64C310.653 87.92 310.56 88.3867 310.56 89.04C310.56 89.04 310.42 89.18 310.14 89.46L309.86 89.74C309.673 90.2067 309.487 90.58 309.3 90.86C309.207 91.14 309.113 91.5133 309.02 91.98C308.46 92.82 307.9 93.52 307.34 94.08C306.78 94.64 306.033 95.2933 305.1 96.04C304.633 96.32 304.213 96.5533 303.84 96.74C303.467 96.9267 303 97.16 302.44 97.44C302.253 97.6267 301.787 97.7667 301.04 97.86C300.387 97.86 299.967 97.9067 299.78 98H298.52C298.333 98 297.96 98 297.4 98C296.933 97.9067 296.653 97.86 296.56 97.86C296.093 97.6733 295.72 97.4867 295.44 97.3C295.253 97.02 295.067 96.88 294.88 96.88C294.413 96.6933 293.807 96.32 293.06 95.76C292.313 95.2 292.033 94.6867 292.22 94.22H291.8C291.8 94.0333 291.707 93.8933 291.52 93.8C291.427 93.6133 291.38 93.4267 291.38 93.24C291.193 92.8667 291.053 92.6333 290.96 92.54C290.96 92.3533 290.913 92.1667 290.82 91.98C290.633 91.7933 290.447 91.4667 290.26 91C290.167 90.5333 290.12 90.1133 290.12 89.74V88.48C290.12 88.2933 290.167 88.1067 290.26 87.92C290.353 87.64 290.4 87.36 290.4 87.08C290.773 86.8 290.96 86.52 290.96 86.24L291.1 86.1C291.287 85.9133 291.38 85.7267 291.38 85.54L291.8 85.26C292.08 85.0733 292.267 84.9333 292.36 84.84C292.453 84.7467 292.733 84.7 293.2 84.7C293.387 84.7 293.573 84.6067 293.76 84.42C293.947 84.2333 294.227 84.14 294.6 84.14H295.72C296.187 84.14 296.467 84.2333 296.56 84.42C296.747 84.6067 297.073 84.7 297.54 84.7C298.007 84.7933 298.24 84.8867 298.24 84.98C298.24 84.98 298.427 85.0733 298.8 85.26L298.52 86.1V86.24H298.1C297.633 86.24 297.167 86.1467 296.7 85.96C296.233 85.68 295.767 85.54 295.3 85.54H294.88C294.413 85.54 293.993 85.68 293.62 85.96C293.247 86.24 292.827 86.52 292.36 86.8C292.267 86.9867 292.127 87.36 291.94 87.92C291.847 88.48 291.8 88.9933 291.8 89.46C291.8 90.2067 291.987 91.0467 292.36 91.98C292.733 92.9133 293.2 93.5667 293.76 93.94C294.32 94.5 294.693 94.8733 294.88 95.06C295.067 95.2467 295.533 95.4333 296.28 95.62C296.467 95.8067 296.84 95.9933 297.4 96.18C297.96 96.3667 298.427 96.46 298.8 96.46H299.5C299.873 96.46 300.247 96.3667 300.62 96.18C301.087 95.9933 301.6 95.8067 302.16 95.62C302.44 95.62 302.767 95.5267 303.14 95.34C303.607 95.06 303.933 94.8267 304.12 94.64C304.587 94.2667 304.96 93.9867 305.24 93.8C305.52 93.52 305.847 93.1 306.22 92.54C306.593 92.3533 306.827 92.12 306.92 91.84C307.107 91.56 307.34 91.1867 307.62 90.72C307.9 90.5333 308.133 90.2067 308.32 89.74C308.507 89.18 308.74 88.76 309.02 88.48C309.113 88.2933 309.207 87.9667 309.3 87.5C309.487 87.0333 309.58 86.7533 309.58 86.66C309.767 85.9133 309.953 85.0267 310.14 84C310.327 82.9733 310.42 82.0867 310.42 81.34V79.8C310.42 79.0533 310.327 78.26 310.14 77.42C309.953 76.58 309.767 75.9267 309.58 75.46C309.58 75.0867 309.44 74.4333 309.16 73.5C308.973 72.5667 308.74 71.8667 308.46 71.4C308.273 71.3067 307.993 70.7933 307.62 69.86C307.62 69.58 307.48 69.2067 307.2 68.74C307.013 68.2733 306.92 67.9933 306.92 67.9C306.733 67.7133 306.5 67.48 306.22 67.2C306.033 66.8267 305.94 66.5467 305.94 66.36C305.753 65.9867 305.473 65.5667 305.1 65.1C304.82 64.6333 304.68 64.3067 304.68 64.12H304.12L303.56 62.86H303.42C303.42 62.7667 303.28 62.58 303 62.3C302.813 62.02 302.533 61.74 302.16 61.46C301.88 61.18 301.6 60.9 301.32 60.62C301.04 60.34 300.853 60.1533 300.76 60.06C300.48 59.8733 299.967 59.4067 299.22 58.66C298.473 57.9133 298.007 57.54 297.82 57.54V56.98C297.727 56.98 297.493 56.8867 297.12 56.7C296.84 56.5133 296.467 56.28 296 56C295.627 55.72 295.253 55.4867 294.88 55.3C294.507 55.02 294.18 54.8333 293.9 54.74C293.807 54.2733 293.293 53.8067 292.36 53.34C292.08 53.1533 291.753 52.9667 291.38 52.78C291.1 52.5 290.913 52.36 290.82 52.36C290.073 51.8 289.373 51.4267 288.72 51.24C288.16 50.96 287.507 50.4933 286.76 49.84C286.013 49.6533 285.267 49.42 284.52 49.14C283.867 48.7667 283.213 48.4867 282.56 48.3C281.533 47.5533 280.32 46.9467 278.92 46.48C277.52 46.0133 276.167 45.64 274.86 45.36C274.113 44.9867 273.46 44.8 272.9 44.8C272.807 44.8 272.48 44.7067 271.92 44.52C271.64 44.4267 271.407 44.3333 271.22 44.24C270.94 44.0533 270.567 43.96 270.1 43.96C269.727 43.96 269.447 43.8667 269.26 43.68C269.167 43.68 268.84 43.6333 268.28 43.54C267.813 43.4467 267.393 43.4 267.02 43.4V42.84L260.86 42L256.24 41.3L253.3 41.02H252.74H251.06H247V40.74C246.907 40.9267 246.953 41.02 247.14 41.02C247.327 41.02 247.233 41.02 246.86 41.02H246.58H246.3H245.6H245.46H245.32H244.9H244.34H244.06H243.92H237.2L236.5 41.3H233.7H232.72C232.813 41.3 233.093 41.44 233.56 41.72C234.027 42 234.493 42.3267 234.96 42.7C235.52 43.0733 236.033 43.4 236.5 43.68C236.967 43.96 237.2 44.1467 237.2 44.24C237.667 44.52 238.133 44.7533 238.6 44.94C239.067 45.0333 239.44 45.2667 239.72 45.64C239.72 45.8267 239.86 46.0133 240.14 46.2C240.42 46.3867 240.607 46.5733 240.7 46.76C240.793 46.8533 240.933 46.9467 241.12 47.04C241.307 47.1333 241.587 47.3667 241.96 47.74L242.1 48.16H242.52C242.333 48.16 242.287 48.2533 242.38 48.44C242.567 48.6267 242.66 48.86 242.66 49.14C242.94 49.42 243.36 49.6533 243.92 49.84C244.013 50.5867 244.34 51.24 244.9 51.8C244.9 52.08 244.947 52.3133 245.04 52.5C245.227 52.6867 245.32 52.8733 245.32 53.06C245.32 53.1533 245.413 53.5733 245.6 54.32C245.973 54.7867 246.16 55.2067 246.16 55.58C246.253 55.86 246.3 56.2333 246.3 56.7C246.3 56.7933 246.347 56.9333 246.44 57.12C246.44 57.3067 246.44 57.4933 246.44 57.68C246.533 57.7733 246.58 57.8667 246.58 57.96C246.58 58.0533 246.627 58.24 246.72 58.52C246.813 58.7067 246.86 58.94 246.86 59.22C246.86 59.4067 246.86 59.7333 246.86 60.2C246.953 60.5733 247 60.9933 247 61.46C247.28 61.8333 247.42 62.2533 247.42 62.72C247.513 63.0933 247.56 63.42 247.56 63.7C247.56 64.0733 247.607 64.4933 247.7 64.96C247.887 65.4267 247.607 65.66 246.86 65.66C246.673 65.66 246.253 65.4733 245.6 65.1C245.04 64.7267 244.387 64.3067 243.64 63.84C242.987 63.28 242.333 62.8133 241.68 62.44C241.12 62.0667 240.793 61.88 240.7 61.88H241.12H240.7L238.6 60.06V59.64C238.32 59.64 238.18 59.5 238.18 59.22L237.06 58.1L235.66 56.7C235.567 56.42 235.427 56.14 235.24 55.86C235.053 55.4867 234.727 55.2533 234.26 55.16C233.98 54.4133 233.747 53.76 233.56 53.2C233.467 52.64 233.187 51.9867 232.72 51.24C232.16 50.4933 231.74 49.4667 231.46 48.16C231.18 46.8533 230.947 45.5467 230.76 44.24L230.62 42.28C230.62 41.8133 230.433 41.58 230.06 41.58C229.78 41.58 229.547 41.72 229.36 42C229.267 42 229.08 42 228.8 42C228.52 42 228.287 42.0933 228.1 42.28C227.633 42.28 227.12 42.3267 226.56 42.42C226 42.42 225.58 42.5133 225.3 42.7C224.087 42.7933 223.013 42.9333 222.08 43.12C221.24 43.3067 220.447 43.4 219.7 43.4C218.767 43.7733 217.833 43.96 216.9 43.96C216.807 44.1467 216.527 44.24 216.06 44.24C215.687 44.24 215.453 44.24 215.36 44.24C215.173 44.6133 214.94 44.8 214.66 44.8C214.473 44.8933 214.287 44.8933 214.1 44.8C213.353 44.8933 212.513 45.08 211.58 45.36C210.647 45.5467 209.76 45.7333 208.92 45.92C207.987 46.1067 207.053 46.34 206.12 46.62C205.187 46.9 204.347 47.2733 203.6 47.74C202.853 47.9267 201.967 48.16 200.94 48.44C199.913 48.6267 199.027 48.9533 198.28 49.42C197.16 49.7 196.273 49.84 195.62 49.84C194.967 50.12 194.407 50.4 193.94 50.68C193.567 50.96 193.053 51.1467 192.4 51.24C191.933 51.52 191.513 51.7067 191.14 51.8C190.767 51.8 190.3 51.8933 189.74 52.08C189.553 52.2667 189.227 52.4533 188.76 52.64C188.293 52.7333 187.827 52.8733 187.36 53.06C187.92 53.34 188.2 53.5733 188.2 53.76C188.387 53.9467 188.573 54.2733 188.76 54.74C189.04 54.9267 189.227 55.1133 189.32 55.3C189.413 55.3933 189.553 55.6733 189.74 56.14C189.927 56.6067 190.02 57.12 190.02 57.68C190.113 58.24 190.16 58.8933 190.16 59.64C190.16 60.1067 190.067 60.48 189.88 60.76C189.787 61.04 189.74 61.4133 189.74 61.88C189.553 62.16 189.413 62.44 189.32 62.72C189.133 63.28 189.133 63.56 189.32 63.56H188.76C188.76 63.6533 188.573 63.9333 188.2 64.4C187.92 64.8667 187.593 65.1933 187.22 65.38C186.847 65.5667 186.473 65.7067 186.1 65.8C185.82 65.8 185.54 65.9867 185.26 66.36H184.98H184.42L182.6 65.66C182.413 65.5667 182.133 65.4267 181.76 65.24C181.48 65.1467 181.247 65.0533 181.06 64.96C181.34 65.3333 181.48 66.1733 181.48 67.48C181.48 68.6933 181.293 69.5333 180.92 70C180.453 70.6533 180.08 71.0733 179.8 71.26C179.613 71.4467 179.287 71.7733 178.82 72.24C178.353 72.4267 177.933 72.5667 177.56 72.66C177.28 72.7533 176.907 72.8 176.44 72.8H176.02H175.6H175.46C174.993 72.8 174.527 72.7533 174.06 72.66C173.593 72.5667 173.127 72.4267 172.66 72.24C172.473 72.24 172.147 72.0067 171.68 71.54C171.4 71.3533 171.073 71.12 170.7 70.84C170.7 70.6533 170.513 70.42 170.14 70.14C169.86 69.86 169.72 69.6267 169.72 69.44L169.44 68.88L169.02 68.04C169.02 67.9467 168.973 67.62 168.88 67.06C168.787 66.5 168.833 65.94 169.02 65.38C168.46 65.38 168.04 65.7067 167.76 66.36C167.387 66.36 167.153 66.4067 167.06 66.5C166.687 66.5933 166.313 66.64 165.94 66.64C165.66 66.64 165.38 66.64 165.1 66.64C165.1 66.8267 165.193 67.1067 165.38 67.48C165.473 67.6667 165.613 67.8533 165.8 68.04C165.8 68.2267 165.94 68.5067 166.22 68.88C166.593 69.16 166.873 69.3467 167.06 69.44C167.06 69.6267 167.06 69.86 167.06 70.14C167.153 70.42 167.2 70.6533 167.2 70.84C167.573 71.12 167.853 71.4933 168.04 71.96C168.32 72.7067 168.647 73.5933 169.02 74.62C169.487 75.5533 169.72 76.6267 169.72 77.84V78.96V79.8C169.72 80.36 169.673 80.8733 169.58 81.34C169.58 81.8067 169.487 82.2733 169.3 82.74V83.58C169.3 83.7667 169.253 83.86 169.16 83.86C169.067 83.86 169.02 83.9533 169.02 84.14V84.84C169.02 85.0267 168.927 85.2133 168.74 85.4L168.6 85.54C168.6 85.9133 168.507 86.4733 168.32 87.22C168.133 87.8733 167.947 88.2933 167.76 88.48C167.48 88.76 167.293 88.9933 167.2 89.18C167.2 89.3667 167.153 89.5533 167.06 89.74C166.873 89.74 166.64 89.9733 166.36 90.44C166.08 90.8133 166.08 91 166.36 91L165.8 91.14C165.52 91.14 165.287 91 165.1 90.72C164.82 90.72 164.633 90.6733 164.54 90.58C164.54 90.3933 164.447 90.1133 164.26 89.74C164.167 89.6467 164.073 89.5067 163.98 89.32C163.98 89.04 163.887 88.6667 163.7 88.2C163.42 88.1067 163.187 87.8733 163 87.5C162.907 87.0333 162.813 86.7533 162.72 86.66C162.533 86.4733 162.393 86.1933 162.3 85.82C162.3 85.3533 162.253 85.0267 162.16 84.84C161.88 84.7467 161.693 84.5133 161.6 84.14C161.6 83.7667 161.507 83.4867 161.32 83.3C161.133 83.02 160.993 82.6933 160.9 82.32C160.807 81.9467 160.76 81.62 160.76 81.34C160.48 81.1533 160.247 80.6867 160.06 79.94C159.967 79.1 159.92 78.4 159.92 77.84L159.36 74.76V74.2C159.36 71.2133 160.107 68.6 161.6 66.36L160.2 65.1C160.2 66.4067 160.107 67.62 159.92 68.74C159.733 69.7667 159.36 70.6533 158.8 71.4C158.707 72.6133 158.24 73.78 157.4 74.9L156.7 76.3C156.7 76.3933 156.513 76.58 156.14 76.86C155.86 77.0467 155.72 77.3267 155.72 77.7C155.533 77.7 155.347 77.7933 155.16 77.98C154.973 78.1667 154.74 78.3067 154.46 78.4C154.18 78.8667 153.947 79.24 153.76 79.52C153.667 79.7067 153.387 79.9867 152.92 80.36C152.733 80.5467 152.173 80.9667 151.24 81.62C150.307 82.2733 149.747 82.6 149.56 82.6H149.42C148.953 82.6 148.673 82.4133 148.58 82.04C148.58 81.5733 148.58 81.2933 148.58 81.2C148.393 81.2 148.3 81.06 148.3 80.78C148.3 80.4067 148.3 80.08 148.3 79.8C148.113 79.52 147.927 79.1 147.74 78.54C147.647 77.8867 147.74 77.3267 148.02 76.86L147.46 76.44C147.74 76.44 147.88 76.4867 147.88 76.58C147.973 76.6733 148.02 76.6267 148.02 76.44V76.3L147.46 75.74H148.02C148.02 74.62 148.067 73.6867 148.16 72.94C148.253 72.1933 148.393 71.4 148.58 70.56C148.767 70 148.953 69.6267 149.14 69.44C149.42 69.16 149.653 68.6933 149.84 68.04L150.68 67.2L151.52 66.36L151.8 65.66C151.8 65.4733 151.987 65.38 152.36 65.38C152.64 65.1933 152.827 65.0067 152.92 64.82C153.107 64.54 153.387 64.3067 153.76 64.12C154.04 63.9333 154.32 63.7933 154.6 63.7C154.88 63.5133 155.113 63.3267 155.3 63.14C155.58 62.7667 156 62.44 156.56 62.16C157.213 61.88 157.68 61.5067 157.96 61.04C157.68 60.5733 157.54 59.92 157.54 59.08C157.54 58.1467 157.773 57.3533 158.24 56.7C158.427 56.2333 158.613 55.86 158.8 55.58C158.987 55.3 159.36 55.02 159.92 54.74C160.107 54.5533 160.2 54.4133 160.2 54.32C160.293 54.1333 160.527 53.9467 160.9 53.76C161.18 53.48 161.46 53.34 161.74 53.34H162.16L160.9 52.64V52.36H160.76C160.48 52.1733 160.153 51.8 159.78 51.24C159.5 50.5867 159.36 50.0733 159.36 49.7C159.08 49.14 158.893 48.58 158.8 48.02C158.8 47.3667 158.8 46.8067 158.8 46.34C159.08 45.8733 159.313 45.4067 159.5 44.94C159.78 44.38 160.013 43.96 160.2 43.68C160.48 43.4933 160.667 43.3067 160.76 43.12C160.947 42.84 161.227 42.7 161.6 42.7C161.787 42.6067 161.927 42.5133 162.02 42.42C162.113 42.2333 162.253 42.0467 162.44 41.86L162.86 41.44C162.58 41.44 162.253 41.3933 161.88 41.3C161.6 41.1133 161.273 41.02 160.9 41.02C160.527 41.02 160.153 40.9733 159.78 40.88C159.407 40.7867 159.08 40.74 158.8 40.74C158.52 40.74 158.147 40.6 157.68 40.32C157.213 40.04 156.887 39.9 156.7 39.9C156.233 39.8067 155.767 39.7133 155.3 39.62C154.927 39.4333 154.46 39.34 153.9 39.34L149.56 42.7C149.56 43.3533 149.42 43.96 149.14 44.52C148.953 44.9867 148.767 45.4533 148.58 45.92C148.393 46.1067 148.207 46.34 148.02 46.62C147.927 46.8067 147.74 46.9933 147.46 47.18C147.273 47.5533 147.04 47.88 146.76 48.16C146.573 48.3467 146.34 48.4867 146.06 48.58C146.527 48.58 147.04 48.6733 147.6 48.86C148.16 49.0467 148.58 49.2333 148.86 49.42C149.047 49.42 149.233 49.4667 149.42 49.56C149.793 49.7467 150.073 49.84 150.26 49.84C150.54 49.84 150.773 50.0267 150.96 50.4C151.147 50.68 151.333 50.9133 151.52 51.1C151.52 51.1933 151.66 51.38 151.94 51.66C152.033 51.8467 152.173 51.9867 152.36 52.08C152.453 52.2667 152.547 52.5 152.64 52.78C152.827 52.9667 152.92 53.1533 152.92 53.34C153.013 53.7133 153.153 54.0867 153.34 54.46C153.62 54.8333 153.76 55.2533 153.76 55.72V56.56C153.76 57.4 153.34 58.52 152.5 59.92C151.66 61.32 150.68 62.16 149.56 62.44C148.907 62.8133 148.3 63.0467 147.74 63.14C147.273 63.14 146.667 63.0467 145.92 62.86C145.64 62.6733 145.313 62.58 144.94 62.58C144.567 62.4867 144.287 62.3467 144.1 62.16C144.007 62.16 143.727 61.9733 143.26 61.6C142.793 61.2267 142.513 61.04 142.42 61.04C142.607 61.6 142.7 62.2533 142.7 63C142.7 63.6533 142.653 64.3533 142.56 65.1C142.56 65.7533 142.327 66.36 141.86 66.92C141.487 67.48 141.207 67.9933 141.02 68.46C139.807 69.3 138.5 70 137.1 70.56H135.56C135.093 70.56 134.72 70.4667 134.44 70.28C134.16 70 133.787 69.86 133.32 69.86H134.02L132.62 69.3H132.76C132.48 69.3 132.153 69.0667 131.78 68.6C131.5 68.1333 131.313 67.8067 131.22 67.62L130.38 65.66V65.38V65.1V64.96C130.193 64.96 129.913 65.0533 129.54 65.24C129.167 65.3333 128.887 65.4733 128.7 65.66C128.42 65.66 128.093 65.8 127.72 66.08C127.347 66.2667 127.067 66.36 126.88 66.36H125.9C125.153 66.36 124.313 66.1267 123.38 65.66C122.54 65.1 121.887 64.4467 121.42 63.7C120.86 63.2333 120.533 62.9067 120.44 62.72C120.347 62.44 120.207 62.16 120.02 61.88C119.74 61.4133 119.6 60.9 119.6 60.34C119.6 59.78 119.367 59.4067 118.9 59.22C118.9 59.3133 118.667 59.4067 118.2 59.5C117.827 59.5933 117.36 59.6867 116.8 59.78C116.333 59.8733 115.867 59.9667 115.4 60.06C114.933 60.06 114.653 60.06 114.56 60.06C113.813 60.2467 113.113 60.3867 112.46 60.48C111.807 60.5733 110.967 60.7133 109.94 60.9C108.633 60.9933 107.233 61.1333 105.74 61.32C104.247 61.5067 102.707 61.6933 101.12 61.88L96.22 62.16H95.8H91.74H91.46H90.9H90.48H90.2H89.92H89.5H89.22H86H85.86H85.58H85.3H84.6H84.46H84.32H79.84H79.56H78.86L77.18 61.88H75.22H74.66H73.12L71.16 61.04L64.16 60.48C60.24 60.0133 56.1333 59.22 51.84 58.1C47.64 56.8867 43.6267 55.6267 39.8 54.32C37.6533 53.48 35.5067 52.6867 33.36 51.94C31.3067 51.1 29.3467 50.1667 27.48 49.14C26.4533 48.6733 25.4733 48.16 24.54 47.6C23.7 46.9467 22.7667 46.2933 21.74 45.64C21.2733 45.4533 20.7133 45.1733 20.06 44.8C19.5 44.4267 19.08 44.1467 18.8 43.96C18.6133 43.68 18.1467 43.3067 17.4 42.84C16.6533 42.28 16.1867 42 16 42V41.44L14.46 40.74H14.6C14.5067 40.74 14.32 40.6467 14.04 40.46C13.76 40.18 13.4333 39.9 13.06 39.62C12.78 39.2467 12.5 38.9667 12.22 38.78C11.94 38.5 11.7533 38.36 11.66 38.36V37.94L10.4 36.54C10.4 36.4467 9.98 36.0733 9.14 35.42C8.39333 34.7667 8.02 34.3933 8.02 34.3C8.02 34.1133 7.78667 33.7867 7.32 33.32C6.85333 32.8533 6.62 32.5267 6.62 32.34C6.43333 32.34 6.15333 31.9667 5.78 31.22C5.5 30.4733 5.17333 30.1 4.8 30.1C4.61333 29.7267 4.28667 29.0267 3.82 28C3.44667 26.9733 3.21333 26.1333 3.12 25.48C2.84 25.2 2.37333 24.4067 1.72 23.1C1.53333 22.6333 1.39333 22.26 1.3 21.98C1.20667 21.6067 1.06667 21.28 0.88 21C0.88 20.8133 0.833334 20.44 0.74 19.88C0.74 19.2267 0.693334 18.62 0.6 18.06C0.506667 17.4067 0.413334 16.8467 0.32 16.38C0.32 15.82 0.32 15.4933 0.32 15.4V13.16ZM66.26 73.78C66.54 73.78 66.54 73.9667 66.26 74.34C66.0733 74.62 65.8867 74.8067 65.7 74.9C65.6067 75.0867 65.42 75.2267 65.14 75.32C64.9533 75.4133 64.8133 75.5533 64.72 75.74C64.72 76.02 64.6267 76.2533 64.44 76.44C64.3467 76.5333 64.2533 76.72 64.16 77C64.16 77.1867 64.1133 77.3267 64.02 77.42C64.02 77.5133 64.02 77.6533 64.02 77.84C63.9267 78.0267 63.88 78.1667 63.88 78.26C63.4133 79.0067 62.9467 79.9867 62.48 81.2C62.1067 82.32 61.92 83.2067 61.92 83.86H63.88C64.0667 83.86 64.3 83.8133 64.58 83.72C64.86 83.6267 65.2333 83.58 65.7 83.58C65.98 83.3933 66.4 83.2067 66.96 83.02C67.6133 82.74 68.22 82.5067 68.78 82.32C69.2467 81.8533 69.8067 81.48 70.46 81.2C71.1133 80.92 71.5333 80.64 71.72 80.36C72.1867 80.08 72.42 79.94 72.42 79.94C72.5133 79.8467 72.6067 79.7533 72.7 79.66C72.7 79.5667 72.7467 79.4733 72.84 79.38C73.0267 79.1933 73.12 79.0533 73.12 78.96C73.2133 78.68 73.4467 78.4467 73.82 78.26C74.2867 77.98 74.52 77.7933 74.52 77.7C74.6133 77.3267 74.8 77 75.08 76.72C75.4533 76.3467 75.7333 76.02 75.92 75.74C76.0133 75.5533 76.1067 75.3667 76.2 75.18C76.2933 74.9933 76.5267 74.8533 76.9 74.76C76.9 74.48 76.9933 74.1533 77.18 73.78C77.3667 73.4067 77.5067 73.08 77.6 72.8C77.6 72.6133 77.6933 72.4267 77.88 72.24C78.0667 71.96 78.2533 71.68 78.44 71.4C78.6267 71.3067 78.86 71.12 79.14 70.84C79.42 70.56 79.56 70.2333 79.56 69.86C79.7467 69.6733 79.8867 69.5333 79.98 69.44C80.0733 69.2533 80.2133 68.9267 80.4 68.46C80.4933 68.3667 80.68 68.18 80.96 67.9C81.24 67.5267 81.52 67.2 81.8 66.92C82.08 66.5467 82.3133 66.22 82.5 65.94C82.78 65.66 82.92 65.4733 82.92 65.38C82.2667 65.5667 81.66 65.7533 81.1 65.94C80.6333 66.1267 80.1667 66.3133 79.7 66.5C79.3267 66.5933 79.0467 66.64 78.86 66.64C78.4867 66.8267 78.16 66.9667 77.88 67.06C77.6 67.1533 77.2733 67.34 76.9 67.62C76.5267 67.62 76.1533 67.7133 75.78 67.9C75.5 67.9933 75.1267 68.04 74.66 68.04C74.5667 68.2267 74.0067 68.5533 72.98 69.02C72.0467 69.3933 71.44 69.72 71.16 70C70.6933 70.28 70.32 70.5133 70.04 70.7C69.8533 70.8867 69.7133 71.12 69.62 71.4C69.34 71.4 68.92 71.6333 68.36 72.1C67.8933 72.5667 67.5667 72.8 67.38 72.8L66.26 73.78ZM68.36 69.86C68.5467 69.86 68.92 69.72 69.48 69.44C70.04 69.0667 70.4133 68.74 70.6 68.46C71.16 68.2733 71.6267 68.1333 72 68.04C72.4667 67.9467 72.84 67.8067 73.12 67.62C73.8667 67.1533 74.7067 66.7333 75.64 66.36C76.6667 65.8933 77.5067 65.5667 78.16 65.38C78.3467 65.38 78.6733 65.3333 79.14 65.24C79.6067 65.1467 79.9333 65.0533 80.12 64.96C80.5867 64.68 81.0067 64.54 81.38 64.54C81.7533 64.4467 82.2667 64.3067 82.92 64.12C83.1067 63.9333 83.3867 63.84 83.76 63.84C84.1333 63.7467 84.4133 63.6533 84.6 63.56H86C86.4667 63.3733 86.7467 63.3267 86.84 63.42C86.9333 63.5133 87.0733 63.6067 87.26 63.7C87.0733 64.3533 86.98 64.6333 86.98 64.54C87.0733 64.3533 86.9333 64.4933 86.56 64.96C86.28 65.0533 86.0933 65.1467 86 65.24C85.9067 65.3333 85.7667 65.38 85.58 65.38C85.4867 65.38 85.3 65.52 85.02 65.8C84.74 66.08 84.4133 66.4067 84.04 66.78C83.76 67.06 83.4333 67.3867 83.06 67.76C82.78 68.1333 82.5933 68.3667 82.5 68.46C82.0333 68.9267 81.6133 69.44 81.24 70C80.96 70.4667 80.5867 70.9333 80.12 71.4C80.12 71.68 80.0267 72.0067 79.84 72.38C79.6533 72.7533 79.56 73.08 79.56 73.36C79.28 73.4533 79 73.7333 78.72 74.2C78.5333 74.5733 78.3467 74.8067 78.16 74.9C78.16 75.18 78.02 75.4133 77.74 75.6C77.5533 75.7867 77.3667 76.0667 77.18 76.44C76.9933 76.6267 76.76 76.9067 76.48 77.28C76.2 77.56 76.06 77.7467 76.06 77.84C75.9667 78.4 75.5467 79.0067 74.8 79.66C74.1467 80.22 73.5867 80.7333 73.12 81.2C72.84 81.5733 72.3267 82.04 71.58 82.6C70.8333 83.0667 70.2267 83.3933 69.76 83.58C69.0133 83.58 68.3133 83.9533 67.66 84.7C67.38 84.7 67.0533 84.7467 66.68 84.84C66.3067 84.84 65.98 84.84 65.7 84.84C65.2333 85.0267 64.86 85.1667 64.58 85.26C64.3 85.26 64.0667 85.26 63.88 85.26C63.6 85.26 63.2733 85.3067 62.9 85.4C62.62 85.4933 62.2933 85.54 61.92 85.54C61.64 85.54 61.2667 85.6333 60.8 85.82C60.4267 85.9133 60.24 85.7267 60.24 85.26C60.0533 85.0733 60.0067 84.7467 60.1 84.28C60.1933 83.8133 60.24 83.4867 60.24 83.3C60.4267 82.9267 60.6133 82.32 60.8 81.48C61.08 80.64 61.2667 80.0333 61.36 79.66C61.36 79.4733 61.4067 79.24 61.5 78.96C61.5933 78.5867 61.7333 78.3533 61.92 78.26C61.92 78.0733 62.0133 77.9333 62.2 77.84C62.48 77.6533 62.62 77.3733 62.62 77V76.72C62.62 76.6267 62.6667 76.5333 62.76 76.44C62.8533 76.0667 63.04 75.7867 63.32 75.6C63.6933 75.32 63.9733 75.0867 64.16 74.9C64.16 74.8067 64.2533 74.5733 64.44 74.2C64.6267 73.7333 64.72 73.4533 64.72 73.36C65.1867 73.36 65.56 73.1267 65.84 72.66C66.2133 72.1 66.54 71.68 66.82 71.4C67.0067 71.3067 67.3333 71.0267 67.8 70.56C68.2667 70.0933 68.5933 69.86 68.78 69.86H68.36ZM70.04 39.34C70.04 40.18 70.1333 41.16 70.32 42.28C70.6 43.4 70.9267 44.2867 71.3 44.94C71.4867 45.1267 71.6267 45.36 71.72 45.64C71.8133 45.92 72.0933 46.1533 72.56 46.34C72.56 46.5267 72.6533 46.8067 72.84 47.18L73.12 47.74C73.12 47.9267 73.26 48.16 73.54 48.44C73.82 48.6267 74.0067 48.86 74.1 49.14C74.1 49.2333 74.2867 49.4667 74.66 49.84L75.22 50.4C75.4067 50.4 75.7333 50.82 76.2 51.66C76.76 52.5 77.18 52.8267 77.46 52.64C77.46 52.7333 77.6 52.92 77.88 53.2C78.16 53.48 78.44 53.8067 78.72 54.18C79.0933 54.46 79.42 54.74 79.7 55.02C80.0733 55.2067 80.3067 55.3 80.4 55.3L81.66 56.56L82.92 56.98L82.5 55.16C82.0333 53.1067 81.4733 51.0533 80.82 49C80.26 46.9467 79.4667 45.08 78.44 43.4C78.2533 43.0267 77.9733 42.56 77.6 42C77.32 41.44 77.0867 41.02 76.9 40.74C76.5267 40.3667 76.1533 39.9 75.78 39.34C75.5 38.6867 75.1267 38.22 74.66 37.94C74.5667 37.4733 74.2867 37.1 73.82 36.82C73.3533 36.4467 72.98 36.0267 72.7 35.56C72.6067 35.3733 72.28 35.0467 71.72 34.58C71.2533 34.1133 70.7867 33.7867 70.32 33.6L70.04 35.84V36.4V39.34ZM79.56 42.28C79.7467 42.56 79.84 42.7467 79.84 42.84C80.12 43.3067 80.3067 43.7267 80.4 44.1C80.4933 44.38 80.7267 44.8 81.1 45.36C81.2867 45.5467 81.38 45.78 81.38 46.06C81.4733 46.34 81.5667 46.5733 81.66 46.76C81.66 46.9467 81.7067 47.1333 81.8 47.32C81.9867 47.6933 82.08 47.9733 82.08 48.16C82.92 49.84 83.34 51.5667 83.34 53.34L84.32 56.98C84.32 57.26 84.32 57.6333 84.32 58.1C84.4133 58.5667 84.4133 58.94 84.32 59.22C84.1333 59.4067 83.8533 59.4533 83.48 59.36C83.2 59.1733 83.0133 58.94 82.92 58.66C82.4533 58.4733 81.7533 58.1 80.82 57.54C79.8867 56.8867 79.28 56.56 79 56.56L77.18 54.74C76.9933 54.74 76.3867 54.2267 75.36 53.2C74.4267 52.1733 73.7267 51.52 73.26 51.24C73.26 51.1467 73.2133 51.0533 73.12 50.96C72.9333 50.7733 72.84 50.54 72.84 50.26L72.56 49.42C71.6267 48.4867 71.16 47.74 71.16 47.18C70.88 46.9933 70.6 46.6667 70.32 46.2C70.1333 45.7333 69.9467 45.3133 69.76 44.94C69.76 44.2867 69.5267 43.5867 69.06 42.84C68.8733 42.3733 68.6867 41.72 68.5 40.88C68.4067 40.04 68.36 39.2467 68.36 38.5V36.54V36.4V35.14L69.06 33.6C69.06 33.2267 69.06 32.76 69.06 32.2C69.1533 31.64 69.3867 31.36 69.76 31.36C70.2267 31.1733 70.6 31.36 70.88 31.92C71.2533 32.3867 71.6267 32.7133 72 32.9L72.7 33.6C72.7933 33.6 73.0267 33.7867 73.4 34.16C73.8667 34.5333 74.2867 35 74.66 35.56C75.1267 36.0267 75.5467 36.4933 75.92 36.96C76.3867 37.4267 76.7133 37.7533 76.9 37.94C77.0867 38.1267 77.3667 38.5467 77.74 39.2C78.2067 39.76 78.44 40.2733 78.44 40.74C78.44 40.8333 78.5333 40.9267 78.72 41.02C79 41.3 79.28 41.44 79.56 41.44V42.28ZM239.72 26.74L239.44 27.16C239.253 27.44 239.02 27.6733 238.74 27.86C238.553 28.0467 238.367 28.28 238.18 28.56C237.993 28.6533 237.667 29.0733 237.2 29.82C236.827 30.4733 236.5 30.9867 236.22 31.36C235.94 31.8267 235.66 32.34 235.38 32.9C235.1 33.3667 234.727 33.8333 234.26 34.3C234.073 34.4867 233.84 34.9533 233.56 35.7L233 37.1C233.093 37.2867 233.42 37.2867 233.98 37.1C234.633 36.9133 235.287 36.68 235.94 36.4C236.593 36.0267 237.2 35.6533 237.76 35.28C238.413 34.9067 238.88 34.6267 239.16 34.44C239.907 34.3467 240.467 34.16 240.84 33.88C241.213 33.6 241.633 33.2733 242.1 32.9C242.66 32.5267 243.127 32.2467 243.5 32.06C243.687 32.06 243.873 31.92 244.06 31.64C244.34 31.36 244.62 31.1267 244.9 30.94C245.087 30.7533 245.46 30.4267 246.02 29.96C246.58 29.4933 246.907 29.0267 247 28.56C247.28 28.56 247.513 28.4667 247.7 28.28C247.887 28.0933 248.073 27.9067 248.26 27.72C248.353 27.44 248.493 27.16 248.68 26.88C248.96 26.6 249.1 26.2267 249.1 25.76C249.473 25.5733 249.8 25.2 250.08 24.64C250.453 24.08 250.733 23.7533 250.92 23.66C251.013 23.38 251.06 23.1 251.06 22.82C251.153 22.54 251.293 22.2133 251.48 21.84V21.56L251.9 21V20.58C251.713 20.58 251.34 20.6733 250.78 20.86C250.5 20.9533 250.267 21 250.08 21C249.893 21.0933 249.66 21.2333 249.38 21.42C249.1 21.5133 248.773 21.56 248.4 21.56C247.56 21.84 246.58 22.26 245.46 22.82C244.9 23.2867 244.387 23.6133 243.92 23.8C243.547 23.8933 243.127 24.1267 242.66 24.5C242.66 24.8733 242.473 25.1067 242.1 25.2C242.007 25.2 241.773 25.2933 241.4 25.48C241.213 25.48 240.98 25.5733 240.7 25.76C240.7 26.32 240.467 26.6 240 26.6L239.72 26.74ZM237.06 27.16C237.153 27.16 237.433 26.9267 237.9 26.46C238.46 25.9933 238.88 25.6667 239.16 25.48C239.347 25.2933 239.627 25.1067 240 24.92C240.373 24.64 240.607 24.4067 240.7 24.22C241.913 23.1933 243.313 22.3067 244.9 21.56C245.273 21.28 245.88 20.9533 246.72 20.58C247.653 20.2067 248.447 19.9267 249.1 19.74C249.567 19.6467 250.173 19.46 250.92 19.18C251.76 18.9 252.553 18.76 253.3 18.76C253.58 19.2267 253.72 19.5067 253.72 19.6C253.72 19.6 253.767 19.6 253.86 19.6C253.767 19.6933 253.627 20.0667 253.44 20.72C253.347 21.28 253.3 21.6533 253.3 21.84C253.02 22.3067 252.787 22.7733 252.6 23.24C252.413 23.6133 252.18 23.94 251.9 24.22C251.9 24.6867 251.807 24.9667 251.62 25.06C251.433 25.1533 251.247 25.2933 251.06 25.48C251.06 25.6667 251.013 25.9 250.92 26.18C250.92 26.46 250.92 26.6467 250.92 26.74C250.733 26.74 250.547 26.9267 250.36 27.3C250.173 27.58 249.987 27.8133 249.8 28C249.8 28 249.66 28.14 249.38 28.42L249.1 28.7C249.007 28.7 248.727 29.0267 248.26 29.68C247.887 30.3333 247.467 30.7533 247 30.94C246.907 31.1267 246.627 31.4533 246.16 31.92C245.693 32.3867 245.413 32.62 245.32 32.62C245.133 32.7133 244.993 32.8067 244.9 32.9C244.807 32.9933 244.667 33.0867 244.48 33.18L244.06 33.6C243.967 33.7867 243.733 33.9733 243.36 34.16C243.08 34.2533 242.847 34.3 242.66 34.3C242.38 34.6733 242.007 35 241.54 35.28C241.167 35.4667 240.84 35.6533 240.56 35.84C240.093 36.12 239.767 36.3067 239.58 36.4C239.487 36.4 239.347 36.4467 239.16 36.54C238.88 36.54 238.6 36.6333 238.32 36.82C238.133 36.9133 237.947 37.0067 237.76 37.1C237.387 37.4733 236.92 37.7533 236.36 37.94C235.893 38.0333 235.613 38.1733 235.52 38.36C235.333 38.36 234.913 38.5 234.26 38.78C233.7 38.9667 233.187 39.06 232.72 39.06C232.44 39.2467 232.02 39.3867 231.46 39.48C230.993 39.48 230.76 39.1067 230.76 38.36C230.947 38.36 231.087 38.1733 231.18 37.8C231.273 37.3333 231.413 37.0533 231.6 36.96C231.6 36.68 231.693 36.4 231.88 36.12C232.067 35.84 232.16 35.5133 232.16 35.14C232.253 34.7667 232.44 34.44 232.72 34.16C233 33.7867 233.327 33.2733 233.7 32.62C233.887 32.34 234.167 31.9667 234.54 31.5C234.913 31.0333 235.24 30.5667 235.52 30.1C235.52 29.82 235.613 29.54 235.8 29.26C236.08 28.8867 236.22 28.6533 236.22 28.56C236.407 28.56 236.593 28.42 236.78 28.14C237.06 27.7667 237.153 27.44 237.06 27.16ZM24.26 65.66H24.4H24.82H24.96H25.52H25.8H26.22C27.06 65.66 27.5733 65.5667 27.76 65.38C28.6933 65.38 29.3933 65.2867 29.86 65.1C30.3267 65.1 31.0267 64.8667 31.96 64.4C32.9867 63.84 33.6867 63.56 34.06 63.56V63.14C34.34 63.14 34.76 62.8133 35.32 62.16C35.9733 61.4133 36.5333 60.9933 37 60.9C37.1867 60.7133 37.3267 60.5267 37.42 60.34C37.6067 60.06 37.8867 59.8267 38.26 59.64C38.26 59.36 38.4 59.08 38.68 58.8C38.7733 58.6133 38.9133 58.4267 39.1 58.24L39.66 57.96L36.02 57.54H35.6H34.76H34.62C33.8733 57.54 33.08 57.6333 32.24 57.82C31.4933 57.9133 30.8867 58.0067 30.42 58.1C29.02 58.1933 27.6667 58.7067 26.36 59.64C25.8933 60.1067 25.38 60.5267 24.82 60.9C24.3533 61.18 23.8867 61.6 23.42 62.16C23.0467 62.5333 22.58 63.0467 22.02 63.7C21.46 64.3533 21.04 64.9133 20.76 65.38L24.26 65.66ZM24.4 67.62C23.9333 67.5267 23.5133 67.4333 23.14 67.34C22.2067 67.1533 21.74 67.06 21.74 67.06C21.2733 66.8733 20.62 66.7333 19.78 66.64C18.94 66.4533 18.6133 66.0333 18.8 65.38C18.9867 64.9133 19.2667 64.4933 19.64 64.12C20.0133 63.6533 20.3867 63.2333 20.76 62.86C21.1333 62.3933 21.46 61.9267 21.74 61.46C22.1133 60.9933 22.5333 60.5267 23 60.06C23.6533 59.5933 24.5867 58.9867 25.8 58.24C27.0133 57.4 28.04 56.8867 28.88 56.7C29.3467 56.6067 29.86 56.5133 30.42 56.42C31.0733 56.2333 31.6333 56.14 32.1 56.14C32.2867 56.14 32.52 56.14 32.8 56.14C33.08 56.14 33.36 56.0933 33.64 56L34.76 55.72C34.9467 55.9067 35.2267 55.9533 35.6 55.86C35.9733 55.7667 36.2067 55.72 36.3 55.72C36.6733 55.72 37 55.8133 37.28 56C37.6533 56.0933 38.0733 56.14 38.54 56.14C38.82 56.14 39.1 56.2333 39.38 56.42C39.7533 56.5133 40.1267 56.56 40.5 56.56C41.06 56.6533 41.34 56.6533 41.34 56.56C41.34 56.3733 41.48 56.5133 41.76 56.98L41.62 58.1L39.66 60.06C39.38 60.2467 39.1 60.62 38.82 61.18C38.54 61.6467 38.1667 61.88 37.7 61.88L37.56 62.16C37.1867 62.5333 36.8133 62.86 36.44 63.14C35.7867 63.7933 35.2267 64.12 34.76 64.12C34.3867 64.5867 33.9667 64.9133 33.5 65.1C33.1267 65.2867 32.66 65.4733 32.1 65.66C31.26 66.1267 30.2333 66.5933 29.02 67.06C27.8067 67.4333 26.8733 67.62 26.22 67.62H24.4Z" fill="black"/>
</svg>
