<svg width="587" height="218" viewBox="0 0 587 218" fill="none" xmlns="http://www.w3.org/2000/svg">
<path fill-rule="evenodd" clip-rule="evenodd" d="M128.478 63.4112C157.73 73.1902 179 102.885 179 138C179 181.078 146.988 216 107.5 216C70.9312 216 40.7745 186.051 36.5151 147.41L2 76L70.9084 2.09826L70.8122 1.76354L146.156 1.73646L128.478 63.4112ZM3.19828 76.1812L71.2305 3.21911L88.3623 62.8255C58.1666 71.9539 36 102.153 36 138C36 140.21 36.0843 142.399 36.2495 144.563L3.19828 76.1812Z" fill="#8DB18C"/>
<path d="M128.478 63.4112L127.036 62.9978L126.641 64.3784L128.003 64.8338L128.478 63.4112ZM36.5151 147.41L38.006 147.246L37.9778 146.99L37.8656 146.758L36.5151 147.41ZM2 76L0.902924 74.9771L0.202582 75.7281L0.649477 76.6528L2 76ZM70.9084 2.09826L72.0055 3.12121L72.5846 2.5001L72.35 1.68392L70.9084 2.09826ZM70.8122 1.76354L70.8116 0.26354L68.8206 0.264256L69.3705 2.17787L70.8122 1.76354ZM146.156 1.73646L147.598 2.14977L148.147 0.235747L146.156 0.236462L146.156 1.73646ZM3.19828 76.1812L2.1012 75.1583L1.40086 75.9094L1.84776 76.834L3.19828 76.1812ZM71.2305 3.21911L72.6722 2.80476L71.9403 0.258386L70.1335 2.19616L71.2305 3.21911ZM88.3623 62.8255L88.7963 64.2613L90.2126 63.8331L89.8039 62.4111L88.3623 62.8255ZM36.2495 144.563L34.899 145.216L37.7452 144.449L36.2495 144.563ZM180.5 138C180.5 102.293 158.866 71.9884 128.954 61.9885L128.003 64.8338C156.594 74.3919 177.5 103.478 177.5 138H180.5ZM107.5 217.5C147.937 217.5 180.5 181.781 180.5 138H177.5C177.5 180.375 146.04 214.5 107.5 214.5V217.5ZM35.0241 147.575C39.3547 186.861 70.0567 217.5 107.5 217.5V214.5C71.8058 214.5 42.1942 185.241 38.006 147.246L35.0241 147.575ZM37.8656 146.758L3.35052 75.3472L0.649477 76.6528L35.1645 148.063L37.8656 146.758ZM69.8113 1.07531L0.902924 74.9771L3.09708 77.0229L72.0055 3.12121L69.8113 1.07531ZM69.3705 2.17787L69.4667 2.51259L72.35 1.68392L72.2538 1.34921L69.3705 2.17787ZM146.156 0.236462L70.8116 0.26354L70.8127 3.26354L146.157 3.23646L146.156 0.236462ZM129.92 63.8245L147.598 2.14977L144.714 1.32315L127.036 62.9978L129.92 63.8245ZM4.29535 77.2042L72.3276 4.24206L70.1335 2.19616L2.1012 75.1583L4.29535 77.2042ZM69.7889 3.63346L86.9206 63.2398L89.8039 62.4111L72.6722 2.80476L69.7889 3.63346ZM87.9282 61.3896C57.0455 70.7258 34.5 101.55 34.5 138H37.5C37.5 102.756 59.2876 73.1821 88.7963 64.2613L87.9282 61.3896ZM34.5 138C34.5 140.249 34.5857 142.476 34.7539 144.677L37.7452 144.449C37.5828 142.323 37.5 140.172 37.5 138H34.5ZM1.84776 76.834L34.899 145.216L37.6001 143.91L4.5488 75.5285L1.84776 76.834Z" fill="black"/>
<rect x="88" y="94" width="499" height="90" rx="4" fill="white"/>
<path d="M102.283 119.076H103.279C104.666 119.076 105.984 119.428 107.234 120.131C107.449 120.385 107.557 120.688 107.557 121.039C107.557 121.723 107.137 122.104 106.297 122.182C104.734 121.693 103.572 121.449 102.811 121.449H102.752C100.564 121.449 98.6699 122.748 97.0684 125.346C95.7207 128.51 95.0469 130.814 95.0469 132.26C94.5977 134.252 94.373 137.084 94.373 140.756C94.373 149.428 96.1309 155.014 99.6465 157.514C100.799 158.256 102.137 158.627 103.66 158.627C104.559 158.627 105.945 158.295 107.82 157.631H107.967C108.689 157.631 109.08 158.051 109.139 158.891C109.139 159.848 107.664 160.531 104.715 160.941C104.598 160.98 104.275 161 103.748 161H103.543C97.6055 161 93.9141 156.713 92.4688 148.139C92.1562 145.502 92 143.021 92 140.697C92 129.096 94.4609 122.133 99.3828 119.809C100.516 119.359 101.482 119.115 102.283 119.076ZM116.123 119.076H130.303C131.182 119.076 131.621 119.496 131.621 120.336C131.621 121.078 131.182 121.449 130.303 121.449H117.178V135.277H126.934C127.812 135.277 128.252 135.697 128.252 136.537C128.252 137.279 127.812 137.65 126.934 137.65H117.178V158.627H130.625C131.504 158.627 131.943 159.047 131.943 159.887C131.943 160.629 131.504 161 130.625 161H116.123C115.244 161 114.805 160.561 114.805 159.682V120.395C114.805 119.516 115.244 119.076 116.123 119.076ZM140.129 119.076C147.863 119.076 152.658 121.645 154.514 126.781C154.943 127.758 155.158 129.34 155.158 131.527C155.158 135.668 153.244 138.832 149.416 141.02C146.799 142.289 144.338 142.924 142.033 142.924H140.393V159.682C140.393 160.561 139.973 161 139.133 161C138.391 161 138.02 160.561 138.02 159.682V120.453C138.02 119.535 138.635 119.076 139.865 119.076H140.129ZM140.393 121.449V140.551H141.594C144.113 140.551 146.662 139.809 149.24 138.324C150.646 137.406 151.652 136.068 152.258 134.311C152.473 133.783 152.648 132.787 152.785 131.322C152.785 126.225 150.168 123.09 144.934 121.918C143.488 121.605 141.975 121.449 140.393 121.449ZM164.135 119.076H178.314C179.193 119.076 179.633 119.496 179.633 120.336C179.633 121.078 179.193 121.449 178.314 121.449H165.189V135.277H174.945C175.824 135.277 176.264 135.697 176.264 136.537C176.264 137.279 175.824 137.65 174.945 137.65H165.189V158.627H178.637C179.516 158.627 179.955 159.047 179.955 159.887C179.955 160.629 179.516 161 178.637 161H164.135C163.256 161 162.816 160.561 162.816 159.682V120.395C162.816 119.516 163.256 119.076 164.135 119.076ZM188.346 119.076C193.756 119.076 197.867 121.977 200.68 127.777C202.34 131.781 203.17 136.508 203.17 141.957V143.715C203.17 149.555 201.656 154.105 198.629 157.367C196.07 159.789 193.15 161 189.869 161H189.137C187.594 161 186.666 160.824 186.354 160.473C186.139 160.219 186.031 159.887 186.031 159.477V120.453C186.031 119.535 186.646 119.076 187.877 119.076H188.346ZM188.404 121.449V158.568L188.873 158.627H189.4C192.623 158.627 195.279 157.465 197.369 155.141C199.654 152.27 200.797 148.314 200.797 143.275V142.396C200.797 135.17 199.439 129.633 196.725 125.785C195.396 123.93 193.502 122.611 191.041 121.83C190.025 121.576 189.146 121.449 188.404 121.449ZM219.441 119.076C220.242 119.076 220.74 120.043 220.936 121.977C225.506 142.289 228.299 154.896 229.314 159.799C229.314 160.541 228.895 160.941 228.055 161C227.234 161 226.736 160.033 226.561 158.1L224.51 149.252H213.494C211.736 156.615 210.77 160.395 210.594 160.59C210.34 160.863 210.008 161 209.598 161C208.855 161 208.484 160.561 208.484 159.682C214.422 135.268 217.693 121.928 218.299 119.662C218.572 119.271 218.953 119.076 219.441 119.076ZM219.236 125.873C216.326 137.787 214.607 144.73 214.08 146.703C214.139 146.781 214.168 146.84 214.168 146.879H223.982C223.982 146.645 222.439 139.643 219.354 125.873H219.236ZM254.533 119.076H268.713C269.592 119.076 270.031 119.496 270.031 120.336C270.031 121.078 269.592 121.449 268.713 121.449H255.588V135.277H265.344C266.223 135.277 266.662 135.697 266.662 136.537C266.662 137.279 266.223 137.65 265.344 137.65H255.588V159.682C255.588 160.561 255.168 161 254.328 161C253.586 161 253.215 160.561 253.215 159.682V120.395C253.215 119.516 253.654 119.076 254.533 119.076ZM281.527 119.076H282.729C285.326 119.076 287.387 120.502 288.91 123.354C290.102 125.756 290.697 130.346 290.697 137.123V141.488C290.697 149.242 290.258 153.969 289.379 155.668C288.852 157.406 287.777 158.871 286.156 160.062C284.926 160.688 283.783 161 282.729 161H281.469C280.141 161 278.822 160.492 277.514 159.477C276.381 158.324 275.59 157.162 275.141 155.99C274.086 153.686 273.559 148.979 273.559 141.869V138.119C273.559 129.35 274.457 123.988 276.254 122.035C277.66 120.062 279.418 119.076 281.527 119.076ZM275.932 138.588V141.43C275.932 150.336 276.811 155.541 278.568 157.045C279.428 158.1 280.551 158.627 281.938 158.627H282.26C284.877 158.627 286.596 157.064 287.416 153.939C288.021 152.182 288.324 147.875 288.324 141.02V137.592C288.324 129.506 287.465 124.604 285.746 122.885C284.75 121.928 283.588 121.449 282.26 121.449H281.996C279.594 121.449 277.943 122.943 277.045 125.932C276.303 128.393 275.932 132.611 275.932 138.588ZM303.746 119.076C311.48 119.076 316.275 121.645 318.131 126.781C318.561 127.758 318.775 129.34 318.775 131.527C318.775 135.668 316.861 138.832 313.033 141.02C312.857 141.059 312.77 141.146 312.77 141.283C316.773 153.393 318.775 159.564 318.775 159.799C318.775 160.541 318.355 160.941 317.516 161C316.773 161 316.188 160.014 315.758 158.041L310.484 142.133H310.338C308.346 142.66 306.783 142.924 305.65 142.924H304.01V159.682C304.01 160.561 303.59 161 302.75 161C302.008 161 301.637 160.561 301.637 159.682V120.453C301.637 119.535 302.252 119.076 303.482 119.076H303.746ZM304.01 121.449V140.551H305.211C307.73 140.551 310.279 139.809 312.857 138.324C314.264 137.406 315.27 136.068 315.875 134.311C316.09 133.783 316.266 132.787 316.402 131.322C316.402 126.225 313.785 123.09 308.551 121.918C307.105 121.605 305.592 121.449 304.01 121.449ZM329.158 119.076C329.9 119.076 330.467 119.994 330.857 121.83L341.141 152.094H341.229L351.775 119.662C352.029 119.271 352.4 119.076 352.889 119.076C353.631 119.076 354.002 119.516 354.002 120.395V159.682C354.002 160.561 353.582 161 352.742 161C352 161 351.629 160.561 351.629 159.682V128.246C351.512 128.305 350.281 131.996 347.938 139.32C344.422 150.277 342.508 156.137 342.195 156.898C341.902 157.211 341.551 157.367 341.141 157.367C340.379 157.367 339.764 156.312 339.295 154.203C339.217 154.086 336.258 145.346 330.418 127.982L330.271 127.895V159.682C330.271 160.561 329.852 161 329.012 161C328.27 161 327.898 160.561 327.898 159.682V120.395C327.898 119.516 328.318 119.076 329.158 119.076ZM384.055 119.076H384.377C386.037 119.076 387.639 120.199 389.182 122.445C390.1 124.34 390.559 126.4 390.559 128.627C390.559 132.064 389.309 135.014 386.809 137.475C385.227 138.998 384.436 139.809 384.436 139.906C385.529 142.25 387.131 145.189 389.24 148.725H389.328C389.758 146.947 390.324 143.656 391.027 138.852C391.34 138.402 391.74 138.178 392.229 138.178C392.893 138.178 393.264 138.598 393.342 139.438C392.678 144.32 391.955 148.5 391.174 151.977L395.979 159.418C396.018 159.594 396.037 159.75 396.037 159.887C396.037 160.551 395.617 160.922 394.777 161C394.211 161 393.557 160.297 392.814 158.891L390.295 155.258H390.178C389.436 157.621 388.244 159.34 386.604 160.414C385.822 160.805 385.119 161 384.494 161H384.055C381.711 161 379.885 159.135 378.576 155.404C378.088 153.939 377.844 151.762 377.844 148.871C377.844 145.492 379.055 142.348 381.477 139.438C379.27 134.242 378.166 130.639 378.166 128.627V126.518C378.166 124.389 378.918 122.416 380.422 120.6C381.438 119.584 382.648 119.076 384.055 119.076ZM380.539 126.986V128.158C380.539 129.896 381.447 132.973 383.264 137.387H383.439C385.568 135.336 386.779 133.91 387.072 133.109C387.814 131.762 388.186 130.248 388.186 128.568C388.186 125.971 387.443 123.861 385.959 122.24C385.217 121.752 384.602 121.488 384.113 121.449C382.121 121.449 380.93 123.295 380.539 126.986ZM380.217 149.135C380.217 153.881 381.252 156.957 383.322 158.363C383.811 158.539 384.143 158.627 384.318 158.627C385.686 158.627 386.887 157.221 387.922 154.408C388.273 153.236 388.449 152.533 388.449 152.299V152.24C386.73 149.408 384.797 145.98 382.648 141.957C381.027 144.145 380.217 146.537 380.217 149.135ZM422.135 119.076C427.545 119.076 431.656 121.977 434.469 127.777C436.129 131.781 436.959 136.508 436.959 141.957V143.715C436.959 149.555 435.445 154.105 432.418 157.367C429.859 159.789 426.939 161 423.658 161H422.926C421.383 161 420.455 160.824 420.143 160.473C419.928 160.219 419.82 159.887 419.82 159.477V120.453C419.82 119.535 420.436 119.076 421.666 119.076H422.135ZM422.193 121.449V158.568L422.662 158.627H423.189C426.412 158.627 429.068 157.465 431.158 155.141C433.443 152.27 434.586 148.314 434.586 143.275V142.396C434.586 135.17 433.229 129.633 430.514 125.785C429.186 123.93 427.291 122.611 424.83 121.83C423.814 121.576 422.936 121.449 422.193 121.449ZM447.693 119.076H461.873C462.752 119.076 463.191 119.496 463.191 120.336C463.191 121.078 462.752 121.449 461.873 121.449H448.748V135.277H458.504C459.383 135.277 459.822 135.697 459.822 136.537C459.822 137.279 459.383 137.65 458.504 137.65H448.748V158.627H462.195C463.074 158.627 463.514 159.047 463.514 159.887C463.514 160.629 463.074 161 462.195 161H447.693C446.814 161 446.375 160.561 446.375 159.682V120.395C446.375 119.516 446.814 119.076 447.693 119.076ZM478.057 119.076C480.303 119.076 482.197 119.408 483.74 120.072C483.994 120.326 484.121 120.648 484.121 121.039C484.121 121.801 483.682 122.182 482.803 122.182C480.889 121.693 479.307 121.449 478.057 121.449C474.463 121.449 472.158 123.031 471.143 126.195C470.83 127.484 470.674 128.627 470.674 129.623V129.945C470.674 133.637 472.256 136.146 475.42 137.475C477.119 138.217 478.682 138.939 480.107 139.643C482.568 141.107 484.17 143.041 484.912 145.443C485.264 146.693 485.439 148.207 485.439 149.984C485.439 155.277 483.438 158.725 479.434 160.326C477.969 160.775 476.611 161 475.361 161H474.365C470.947 160.707 469.238 160.287 469.238 159.74C469.141 159.545 469.092 159.33 469.092 159.096C469.092 158.432 469.512 158.051 470.352 157.953C472.363 158.402 473.857 158.627 474.834 158.627H474.893C478.447 158.627 480.84 157.377 482.07 154.877C482.734 153.471 483.066 151.82 483.066 149.926C483.066 145.844 481.641 143.119 478.789 141.752C477.637 141.127 476.123 140.424 474.248 139.643C470.283 137.729 468.301 134.652 468.301 130.414V129.154C468.301 124.857 469.971 121.801 473.311 119.984C474.619 119.379 476.201 119.076 478.057 119.076ZM494.943 119.076C495.686 119.076 496.057 119.516 496.057 120.395V159.682C496.057 160.561 495.637 161 494.797 161C494.055 161 493.684 160.561 493.684 159.682V120.395C493.684 119.516 494.104 119.076 494.943 119.076ZM517.25 119.076H517.455C519.35 119.076 521.059 119.535 522.582 120.453C522.758 120.707 522.846 120.99 522.846 121.303C522.846 121.986 522.426 122.367 521.586 122.445L519.154 121.713C518.49 121.537 517.855 121.449 517.25 121.449C512.992 121.449 510.199 124.545 508.871 130.736C508.344 133.471 508.08 136.391 508.08 139.496C508.08 148.969 510.033 154.994 513.939 157.572C515.346 158.275 516.537 158.627 517.514 158.627H517.631C518.92 158.627 519.867 158.451 520.473 158.1V137.914H514.818C513.939 137.914 513.5 137.504 513.5 136.684C513.5 135.922 513.939 135.541 514.818 135.541H521.527C522.406 135.541 522.846 135.98 522.846 136.859V158.949C522.846 159.867 522.162 160.414 520.795 160.59C519.955 160.863 519.057 161 518.1 161H517.045C515.678 161 514.057 160.453 512.182 159.359C507.865 156.234 505.707 149.594 505.707 139.438C505.707 129.301 507.953 122.904 512.445 120.248C513.734 119.467 515.336 119.076 517.25 119.076ZM535.279 119.076C536.021 119.076 536.656 120.111 537.184 122.182C537.809 123.686 541.637 133.9 548.668 152.826H548.785V120.395C548.785 119.516 549.205 119.076 550.045 119.076C550.787 119.076 551.158 119.516 551.158 120.395V159.682C551.158 160.561 550.738 161 549.898 161C549.156 161 548.521 159.965 547.994 157.895C547.389 156.391 543.57 146.176 536.539 127.25H536.393V159.682C536.393 160.561 535.973 161 535.133 161C534.391 161 534.02 160.561 534.02 159.682V120.395C534.02 119.516 534.439 119.076 535.279 119.076Z" fill="black"/>
<path d="M102.283 119.076V118.076H102.259L102.234 118.077L102.283 119.076ZM107.234 120.131L107.998 119.485L107.882 119.348L107.725 119.259L107.234 120.131ZM106.297 122.182L105.999 123.136L106.19 123.196L106.389 123.177L106.297 122.182ZM97.0684 125.346L96.2171 124.821L96.1777 124.885L96.1483 124.954L97.0684 125.346ZM95.0469 132.26L96.0224 132.48L96.0469 132.371V132.26H95.0469ZM99.6465 157.514L99.067 158.329L99.0857 158.342L99.105 158.354L99.6465 157.514ZM107.82 157.631V156.631H107.648L107.486 156.688L107.82 157.631ZM109.139 158.891H110.139V158.856L110.136 158.821L109.139 158.891ZM104.715 160.941L104.577 159.951L104.486 159.964L104.399 159.993L104.715 160.941ZM92.4688 148.139L91.4757 148.256L91.4786 148.281L91.4827 148.305L92.4688 148.139ZM99.3828 119.809L99.0142 118.879L98.9846 118.891L98.9558 118.904L99.3828 119.809ZM102.283 120.076H103.279V118.076H102.283V120.076ZM103.279 120.076C104.488 120.076 105.638 120.381 106.744 121.002L107.725 119.259C106.33 118.475 104.844 118.076 103.279 118.076V120.076ZM106.471 120.777C106.524 120.839 106.557 120.909 106.557 121.039H108.557C108.557 120.466 108.375 119.93 107.998 119.485L106.471 120.777ZM106.557 121.039C106.557 121.108 106.546 121.132 106.548 121.128C106.551 121.12 106.56 121.106 106.57 121.097C106.582 121.086 106.509 121.158 106.204 121.186L106.389 123.177C106.925 123.128 107.482 122.97 107.914 122.578C108.375 122.16 108.557 121.6 108.557 121.039H106.557ZM106.595 121.227C105.021 120.735 103.735 120.449 102.811 120.449V122.449C103.41 122.449 104.448 122.652 105.999 123.136L106.595 121.227ZM102.811 120.449H102.752V122.449H102.811V120.449ZM102.752 120.449C100.089 120.449 97.9213 122.057 96.2171 124.821L97.9196 125.871C99.4186 123.439 101.04 122.449 102.752 122.449V120.449ZM96.1483 124.954C94.8012 128.117 94.0469 130.59 94.0469 132.26H96.0469C96.0469 131.039 96.6402 128.903 97.9884 125.738L96.1483 124.954ZM94.0714 132.04C93.5978 134.14 93.373 137.059 93.373 140.756H95.373C95.373 137.109 95.5975 134.364 96.0224 132.48L94.0714 132.04ZM93.373 140.756C93.373 145.15 93.8172 148.825 94.7375 151.749C95.6587 154.677 97.0778 156.914 99.067 158.329L100.226 156.699C98.6996 155.613 97.4819 153.808 96.6453 151.149C95.8078 148.488 95.373 145.034 95.373 140.756H93.373ZM99.105 158.354C100.436 159.212 101.967 159.627 103.66 159.627V157.627C102.307 157.627 101.161 157.3 100.188 156.673L99.105 158.354ZM103.66 159.627C104.743 159.627 106.27 159.241 108.154 158.573L107.486 156.688C105.62 157.349 104.374 157.627 103.66 157.627V159.627ZM107.82 158.631H107.967V156.631H107.82V158.631ZM107.967 158.631C108.052 158.631 108.089 158.643 108.094 158.645C108.094 158.645 108.081 158.639 108.07 158.627C108.051 158.607 108.121 158.665 108.141 158.96L110.136 158.821C110.098 158.276 109.943 157.705 109.534 157.265C109.103 156.801 108.529 156.631 107.967 156.631V158.631ZM108.139 158.891C108.139 158.755 108.26 158.913 107.612 159.214C107.01 159.493 106.021 159.75 104.577 159.951L104.853 161.932C106.358 161.722 107.581 161.433 108.453 161.028C109.28 160.645 110.139 159.983 110.139 158.891H108.139ZM104.399 159.993C104.459 159.973 104.49 159.971 104.456 159.976C104.433 159.979 104.391 159.983 104.325 159.987C104.192 159.995 104.002 160 103.748 160V162C104.021 162 104.256 161.995 104.446 161.984C104.598 161.974 104.832 161.957 105.031 161.89L104.399 159.993ZM103.748 160H103.543V162H103.748V160ZM103.543 160C100.849 160 98.7243 159.043 97.0791 157.132C95.4 155.182 94.1622 152.169 93.4548 147.972L91.4827 148.305C92.2206 152.683 93.5512 156.1 95.5635 158.437C97.6096 160.814 100.3 162 103.543 162V160ZM93.4618 148.021C93.1533 145.418 93 142.977 93 140.697H91C91 143.066 91.1592 145.586 91.4757 148.256L93.4618 148.021ZM93 140.697C93 134.953 93.6112 130.438 94.7885 127.107C95.9627 123.785 97.6662 121.725 99.8098 120.713L98.9558 118.904C96.1776 120.216 94.1896 122.8 92.9029 126.441C91.6193 130.072 91 134.84 91 140.697H93ZM99.7514 120.738C100.83 120.311 101.682 120.107 102.332 120.075L102.234 118.077C101.283 118.124 100.202 118.408 99.0142 118.879L99.7514 120.738ZM117.178 121.449V120.449H116.178V121.449H117.178ZM117.178 135.277H116.178V136.277H117.178V135.277ZM117.178 137.65V136.65H116.178V137.65H117.178ZM117.178 158.627H116.178V159.627H117.178V158.627ZM116.123 120.076H130.303V118.076H116.123V120.076ZM130.303 120.076C130.599 120.076 130.636 120.148 130.601 120.114C130.557 120.072 130.621 120.082 130.621 120.336H132.621C132.621 119.75 132.465 119.13 131.982 118.668C131.508 118.215 130.885 118.076 130.303 118.076V120.076ZM130.621 120.336C130.621 120.425 130.608 120.458 130.609 120.456C130.612 120.448 130.625 120.425 130.646 120.407C130.664 120.392 130.662 120.402 130.609 120.417C130.553 120.433 130.455 120.449 130.303 120.449V122.449C130.859 122.449 131.463 122.335 131.937 121.935C132.443 121.507 132.621 120.91 132.621 120.336H130.621ZM130.303 120.449H117.178V122.449H130.303V120.449ZM116.178 121.449V135.277H118.178V121.449H116.178ZM117.178 136.277H126.934V134.277H117.178V136.277ZM126.934 136.277C127.23 136.277 127.267 136.349 127.232 136.315C127.188 136.274 127.252 136.283 127.252 136.537H129.252C129.252 135.951 129.096 135.331 128.613 134.869C128.139 134.416 127.516 134.277 126.934 134.277V136.277ZM127.252 136.537C127.252 136.626 127.239 136.659 127.239 136.657C127.243 136.649 127.256 136.626 127.277 136.608C127.295 136.593 127.293 136.603 127.239 136.618C127.184 136.634 127.086 136.65 126.934 136.65V138.65C127.49 138.65 128.093 138.537 128.568 138.136C129.074 137.708 129.252 137.111 129.252 136.537H127.252ZM126.934 136.65H117.178V138.65H126.934V136.65ZM116.178 137.65V158.627H118.178V137.65H116.178ZM117.178 159.627H130.625V157.627H117.178V159.627ZM130.625 159.627C130.921 159.627 130.958 159.698 130.923 159.665C130.879 159.623 130.943 159.633 130.943 159.887H132.943C132.943 159.301 132.788 158.681 132.305 158.219C131.83 157.765 131.208 157.627 130.625 157.627V159.627ZM130.943 159.887C130.943 159.976 130.93 160.009 130.931 160.007C130.934 159.998 130.947 159.976 130.969 159.958C130.987 159.942 130.984 159.953 130.931 159.968C130.875 159.984 130.778 160 130.625 160V162C131.181 162 131.785 161.886 132.259 161.486C132.766 161.058 132.943 160.46 132.943 159.887H130.943ZM130.625 160H116.123V162H130.625V160ZM116.123 160C115.838 160 115.807 159.929 115.841 159.963C115.875 159.997 115.805 159.967 115.805 159.682H113.805C113.805 160.275 113.954 160.904 114.427 161.378C114.901 161.851 115.529 162 116.123 162V160ZM115.805 159.682V120.395H113.805V159.682H115.805ZM115.805 120.395C115.805 120.109 115.875 120.079 115.841 120.113C115.807 120.147 115.838 120.076 116.123 120.076V118.076C115.529 118.076 114.901 118.225 114.427 118.699C113.954 119.172 113.805 119.801 113.805 120.395H115.805ZM154.514 126.781L153.573 127.121L153.585 127.153L153.598 127.184L154.514 126.781ZM149.416 141.02L149.852 141.919L149.883 141.905L149.912 141.888L149.416 141.02ZM140.393 142.924V141.924H139.393V142.924H140.393ZM140.393 121.449V120.449H139.393V121.449H140.393ZM140.393 140.551H139.393V141.551H140.393V140.551ZM149.24 138.324L149.739 139.191L149.763 139.177L149.787 139.162L149.24 138.324ZM152.258 134.311L151.332 133.933L151.321 133.959L151.312 133.985L152.258 134.311ZM152.785 131.322L153.781 131.415L153.785 131.369V131.322H152.785ZM144.934 121.918L145.152 120.942L145.145 120.941L144.934 121.918ZM140.129 120.076C143.897 120.076 146.85 120.703 149.054 121.884C151.233 123.051 152.729 124.784 153.573 127.121L155.454 126.442C154.443 123.642 152.614 121.522 149.998 120.121C147.407 118.733 144.096 118.076 140.129 118.076V120.076ZM153.598 127.184C153.939 127.959 154.158 129.363 154.158 131.527H156.158C156.158 129.316 155.947 127.557 155.429 126.379L153.598 127.184ZM154.158 131.527C154.158 135.281 152.461 138.128 148.92 140.151L149.912 141.888C154.027 139.536 156.158 136.054 156.158 131.527H154.158ZM148.98 140.12C146.464 141.34 144.152 141.924 142.033 141.924V143.924C144.523 143.924 147.134 143.238 149.852 141.919L148.98 140.12ZM142.033 141.924H140.393V143.924H142.033V141.924ZM139.393 142.924V159.682H141.393V142.924H139.393ZM139.393 159.682C139.393 159.978 139.321 160.015 139.355 159.98C139.396 159.936 139.387 160 139.133 160V162C139.719 162 140.339 161.844 140.801 161.361C141.254 160.887 141.393 160.264 141.393 159.682H139.393ZM139.133 160C139.044 160 139.011 159.987 139.013 159.987C139.021 159.991 139.044 160.004 139.062 160.025C139.077 160.043 139.067 160.041 139.052 159.987C139.036 159.932 139.02 159.834 139.02 159.682H137.02C137.02 160.238 137.133 160.841 137.534 161.316C137.962 161.822 138.559 162 139.133 162V160ZM139.02 159.682V120.453H137.02V159.682H139.02ZM139.02 120.453C139.02 120.334 139.039 120.278 139.048 120.259C139.054 120.245 139.059 120.236 139.079 120.222C139.137 120.178 139.345 120.076 139.865 120.076V118.076C139.155 118.076 138.44 118.204 137.883 118.619C137.271 119.075 137.02 119.748 137.02 120.453H139.02ZM139.865 120.076H140.129V118.076H139.865V120.076ZM139.393 121.449V140.551H141.393V121.449H139.393ZM140.393 141.551H141.594V139.551H140.393V141.551ZM141.594 141.551C144.318 141.551 147.037 140.747 149.739 139.191L148.741 137.458C146.287 138.87 143.909 139.551 141.594 139.551V141.551ZM149.787 139.162C151.399 138.109 152.534 136.58 153.203 134.636L151.312 133.985C150.771 135.556 149.894 136.703 148.694 137.487L149.787 139.162ZM153.184 134.688C153.462 134.006 153.645 132.871 153.781 131.415L151.789 131.229C151.652 132.703 151.484 133.56 151.332 133.933L153.184 134.688ZM153.785 131.322C153.785 128.599 153.083 126.295 151.59 124.507C150.101 122.724 147.917 121.561 145.152 120.942L144.715 122.894C147.185 123.447 148.926 124.437 150.055 125.789C151.179 127.135 151.785 128.948 151.785 131.322H153.785ZM145.145 120.941C143.626 120.612 142.041 120.449 140.393 120.449V122.449C141.908 122.449 143.351 122.599 144.722 122.895L145.145 120.941ZM165.189 121.449V120.449H164.189V121.449H165.189ZM165.189 135.277H164.189V136.277H165.189V135.277ZM165.189 137.65V136.65H164.189V137.65H165.189ZM165.189 158.627H164.189V159.627H165.189V158.627ZM164.135 120.076H178.314V118.076H164.135V120.076ZM178.314 120.076C178.611 120.076 178.648 120.148 178.612 120.114C178.569 120.072 178.633 120.082 178.633 120.336H180.633C180.633 119.75 180.477 119.13 179.994 118.668C179.519 118.215 178.897 118.076 178.314 118.076V120.076ZM178.633 120.336C178.633 120.425 178.619 120.458 178.62 120.456C178.623 120.448 178.636 120.425 178.658 120.407C178.676 120.392 178.673 120.402 178.62 120.417C178.564 120.433 178.467 120.449 178.314 120.449V122.449C178.871 122.449 179.474 122.335 179.948 121.935C180.455 121.507 180.633 120.91 180.633 120.336H178.633ZM178.314 120.449H165.189V122.449H178.314V120.449ZM164.189 121.449V135.277H166.189V121.449H164.189ZM165.189 136.277H174.945V134.277H165.189V136.277ZM174.945 136.277C175.242 136.277 175.278 136.349 175.243 136.315C175.2 136.274 175.264 136.283 175.264 136.537H177.264C177.264 135.951 177.108 135.331 176.625 134.869C176.15 134.416 175.528 134.277 174.945 134.277V136.277ZM175.264 136.537C175.264 136.626 175.25 136.659 175.251 136.657C175.254 136.649 175.267 136.626 175.289 136.608C175.307 136.593 175.304 136.603 175.251 136.618C175.195 136.634 175.098 136.65 174.945 136.65V138.65C175.502 138.65 176.105 138.537 176.579 138.136C177.086 137.708 177.264 137.111 177.264 136.537H175.264ZM174.945 136.65H165.189V138.65H174.945V136.65ZM164.189 137.65V158.627H166.189V137.65H164.189ZM165.189 159.627H178.637V157.627H165.189V159.627ZM178.637 159.627C178.933 159.627 178.97 159.698 178.935 159.665C178.891 159.623 178.955 159.633 178.955 159.887H180.955C180.955 159.301 180.799 158.681 180.316 158.219C179.842 157.765 179.219 157.627 178.637 157.627V159.627ZM178.955 159.887C178.955 159.976 178.942 160.009 178.943 160.007C178.946 159.998 178.959 159.976 178.98 159.958C178.998 159.942 178.996 159.953 178.943 159.968C178.887 159.984 178.789 160 178.637 160V162C179.193 162 179.796 161.886 180.271 161.486C180.777 161.058 180.955 160.46 180.955 159.887H178.955ZM178.637 160H164.135V162H178.637V160ZM164.135 160C163.849 160 163.819 159.929 163.853 159.963C163.887 159.997 163.816 159.967 163.816 159.682H161.816C161.816 160.275 161.965 160.904 162.439 161.378C162.912 161.851 163.541 162 164.135 162V160ZM163.816 159.682V120.395H161.816V159.682H163.816ZM163.816 120.395C163.816 120.109 163.887 120.079 163.853 120.113C163.819 120.147 163.849 120.076 164.135 120.076V118.076C163.541 118.076 162.912 118.225 162.439 118.699C161.965 119.172 161.816 119.801 161.816 120.395H163.816ZM200.68 127.777L201.603 127.394L201.592 127.367L201.58 127.341L200.68 127.777ZM198.629 157.367L199.316 158.093L199.34 158.071L199.362 158.047L198.629 157.367ZM186.354 160.473L185.59 161.119L185.598 161.128L185.606 161.137L186.354 160.473ZM188.404 121.449V120.449H187.404V121.449H188.404ZM188.404 158.568H187.404V159.451L188.28 159.561L188.404 158.568ZM188.873 158.627L188.749 159.619L188.811 159.627H188.873V158.627ZM197.369 155.141L198.113 155.809L198.133 155.787L198.152 155.763L197.369 155.141ZM196.725 125.785L197.542 125.209L197.538 125.203L196.725 125.785ZM191.041 121.83L191.344 120.877L191.314 120.868L191.284 120.86L191.041 121.83ZM188.346 120.076C190.861 120.076 193.036 120.746 194.91 122.069C196.794 123.398 198.427 125.424 199.78 128.214L201.58 127.341C200.12 124.33 198.291 122.006 196.063 120.434C193.826 118.856 191.241 118.076 188.346 118.076V120.076ZM199.756 128.16C201.355 132.016 202.17 136.607 202.17 141.957H204.17C204.17 136.409 203.325 131.547 201.603 127.394L199.756 128.16ZM202.17 141.957V143.715H204.17V141.957H202.17ZM202.17 143.715C202.17 149.383 200.704 153.662 197.896 156.687L199.362 158.047C202.609 154.549 204.17 149.726 204.17 143.715H202.17ZM197.941 156.641C195.554 158.901 192.875 160 189.869 160V162C193.426 162 196.587 160.677 199.316 158.093L197.941 156.641ZM189.869 160H189.137V162H189.869V160ZM189.137 160C188.394 160 187.846 159.957 187.47 159.886C187.04 159.804 187.022 159.719 187.101 159.808L185.606 161.137C185.998 161.577 186.6 161.756 187.098 161.851C187.649 161.955 188.337 162 189.137 162V160ZM187.117 159.827C187.088 159.793 187.031 159.707 187.031 159.477H185.031C185.031 160.066 185.189 160.645 185.59 161.119L187.117 159.827ZM187.031 159.477V120.453H185.031V159.477H187.031ZM187.031 120.453C187.031 120.334 187.051 120.278 187.06 120.259C187.066 120.245 187.071 120.236 187.091 120.222C187.149 120.178 187.357 120.076 187.877 120.076V118.076C187.166 118.076 186.451 118.204 185.895 118.619C185.283 119.075 185.031 119.748 185.031 120.453H187.031ZM187.877 120.076H188.346V118.076H187.877V120.076ZM187.404 121.449V158.568H189.404V121.449H187.404ZM188.28 159.561L188.749 159.619L188.997 157.635L188.528 157.576L188.28 159.561ZM188.873 159.627H189.4V157.627H188.873V159.627ZM189.4 159.627C192.897 159.627 195.827 158.352 198.113 155.809L196.626 154.472C194.732 156.578 192.349 157.627 189.4 157.627V159.627ZM198.152 155.763C200.622 152.659 201.797 148.457 201.797 143.275H199.797C199.797 148.172 198.687 151.88 196.587 154.518L198.152 155.763ZM201.797 143.275V142.396H199.797V143.275H201.797ZM201.797 142.396C201.797 135.067 200.424 129.293 197.542 125.209L195.908 126.362C198.455 129.972 199.797 135.273 199.797 142.396H201.797ZM197.538 125.203C196.068 123.149 193.982 121.715 191.344 120.877L190.738 122.783C193.022 123.508 194.725 124.71 195.911 126.367L197.538 125.203ZM191.284 120.86C190.218 120.594 189.254 120.449 188.404 120.449V122.449C189.039 122.449 189.833 122.559 190.798 122.8L191.284 120.86ZM220.936 121.977L219.941 122.077L219.947 122.137L219.96 122.196L220.936 121.977ZM229.314 159.799H230.314V159.696L230.294 159.596L229.314 159.799ZM228.055 161V162H228.09L228.124 161.998L228.055 161ZM226.561 158.1L227.556 158.009L227.55 157.941L227.535 157.874L226.561 158.1ZM224.51 149.252L225.484 149.026L225.304 148.252H224.51V149.252ZM213.494 149.252V148.252H212.705L212.521 149.02L213.494 149.252ZM210.594 160.59L211.327 161.27L211.332 161.265L211.337 161.259L210.594 160.59ZM208.484 159.682L207.513 159.445L207.484 159.562V159.682H208.484ZM218.299 119.662L217.48 119.089L217.378 119.233L217.333 119.404L218.299 119.662ZM219.236 125.873V124.873H218.451L218.265 125.636L219.236 125.873ZM214.08 146.703L213.114 146.445L212.988 146.914L213.28 147.303L214.08 146.703ZM214.168 146.879H213.168V147.879H214.168V146.879ZM223.982 146.879V147.879H224.982V146.879H223.982ZM219.354 125.873L220.329 125.654L220.154 124.873H219.354V125.873ZM219.441 120.076C219.334 120.076 219.378 119.971 219.527 120.259C219.69 120.576 219.847 121.153 219.941 122.077L221.93 121.876C221.829 120.867 221.64 119.994 221.305 119.343C220.955 118.665 220.349 118.076 219.441 118.076V120.076ZM219.96 122.196C224.531 142.512 227.322 155.11 228.335 160.002L230.294 159.596C229.276 154.683 226.481 142.066 221.911 121.757L219.96 122.196ZM228.314 159.799C228.314 159.892 228.301 159.935 228.297 159.946C228.295 159.953 228.298 159.943 228.309 159.932C228.33 159.913 228.275 159.982 227.985 160.002L228.124 161.998C228.674 161.959 229.249 161.799 229.69 161.379C230.149 160.941 230.314 160.363 230.314 159.799H228.314ZM228.055 160C228.052 160 228.06 160 228.073 160.004C228.086 160.008 228.093 160.013 228.091 160.012C228.086 160.008 228.031 159.965 227.955 159.817C227.794 159.505 227.64 158.932 227.556 158.009L225.565 158.19C225.657 159.2 225.84 160.078 226.177 160.733C226.532 161.423 227.146 162 228.055 162V160ZM227.535 157.874L225.484 149.026L223.536 149.478L225.586 158.325L227.535 157.874ZM224.51 148.252H213.494V150.252H224.51V148.252ZM212.521 149.02C211.643 152.7 210.963 155.479 210.482 157.361C210.241 158.303 210.052 159.013 209.913 159.495C209.843 159.738 209.789 159.912 209.751 160.025C209.731 160.083 209.72 160.111 209.716 160.119C209.693 160.172 209.735 160.049 209.85 159.921L211.337 161.259C211.474 161.106 211.544 160.931 211.556 160.904C211.587 160.831 211.616 160.751 211.643 160.672C211.698 160.513 211.762 160.302 211.835 160.048C211.982 159.536 212.177 158.804 212.419 157.857C212.905 155.959 213.588 153.167 214.467 149.484L212.521 149.02ZM209.861 159.909C209.816 159.958 209.76 160 209.598 160V162C210.255 162 210.864 161.769 211.327 161.27L209.861 159.909ZM209.598 160C209.509 160 209.476 159.987 209.478 159.987C209.486 159.991 209.508 160.004 209.527 160.025C209.542 160.043 209.532 160.041 209.517 159.987C209.501 159.932 209.484 159.834 209.484 159.682H207.484C207.484 160.238 207.598 160.841 207.999 161.316C208.426 161.822 209.024 162 209.598 162V160ZM209.456 159.918C215.396 135.494 218.663 122.172 219.265 119.92L217.333 119.404C216.723 121.684 213.448 135.041 207.513 159.445L209.456 159.918ZM219.118 120.236C219.199 120.12 219.27 120.076 219.441 120.076V118.076C218.636 118.076 217.945 118.423 217.48 119.089L219.118 120.236ZM218.265 125.636C215.353 137.556 213.638 144.486 213.114 146.445L215.046 146.961C215.577 144.975 217.299 138.018 220.208 126.11L218.265 125.636ZM213.28 147.303C213.289 147.315 213.273 147.296 213.252 147.253C213.24 147.23 213.221 147.189 213.205 147.133C213.188 147.079 213.168 146.991 213.168 146.879H215.168C215.168 146.633 215.083 146.444 215.04 146.358C214.989 146.256 214.93 146.169 214.88 146.103L213.28 147.303ZM214.168 147.879H223.982V145.879H214.168V147.879ZM224.982 146.879C224.982 146.788 224.969 146.703 224.967 146.692C224.962 146.657 224.956 146.618 224.949 146.58C224.935 146.502 224.915 146.4 224.891 146.277C224.841 146.03 224.768 145.679 224.671 145.226C224.478 144.318 224.188 142.988 223.802 141.236C223.03 137.734 221.872 132.539 220.329 125.654L218.378 126.092C219.921 132.976 221.078 138.168 221.849 141.667C222.234 143.417 222.523 144.742 222.715 145.643C222.811 146.094 222.883 146.436 222.93 146.67C222.953 146.788 222.97 146.874 222.98 146.931C222.985 146.961 222.988 146.976 222.988 146.982C222.993 147.012 222.982 146.956 222.982 146.879H224.982ZM219.354 124.873H219.236V126.873H219.354V124.873ZM255.588 121.449V120.449H254.588V121.449H255.588ZM255.588 135.277H254.588V136.277H255.588V135.277ZM255.588 137.65V136.65H254.588V137.65H255.588ZM254.533 120.076H268.713V118.076H254.533V120.076ZM268.713 120.076C269.009 120.076 269.046 120.148 269.011 120.114C268.967 120.072 269.031 120.082 269.031 120.336H271.031C271.031 119.75 270.876 119.13 270.393 118.668C269.918 118.215 269.295 118.076 268.713 118.076V120.076ZM269.031 120.336C269.031 120.425 269.018 120.458 269.019 120.456C269.022 120.448 269.035 120.425 269.056 120.407C269.075 120.392 269.072 120.402 269.019 120.417C268.963 120.433 268.866 120.449 268.713 120.449V122.449C269.269 122.449 269.873 122.335 270.347 121.935C270.853 121.507 271.031 120.91 271.031 120.336H269.031ZM268.713 120.449H255.588V122.449H268.713V120.449ZM254.588 121.449V135.277H256.588V121.449H254.588ZM255.588 136.277H265.344V134.277H255.588V136.277ZM265.344 136.277C265.64 136.277 265.677 136.349 265.642 136.315C265.598 136.274 265.662 136.283 265.662 136.537H267.662C267.662 135.951 267.506 135.331 267.023 134.869C266.549 134.416 265.926 134.277 265.344 134.277V136.277ZM265.662 136.537C265.662 136.626 265.649 136.659 265.65 136.657C265.653 136.649 265.666 136.626 265.687 136.608C265.705 136.593 265.703 136.603 265.65 136.618C265.594 136.634 265.496 136.65 265.344 136.65V138.65C265.9 138.65 266.504 138.537 266.978 138.136C267.484 137.708 267.662 137.111 267.662 136.537H265.662ZM265.344 136.65H255.588V138.65H265.344V136.65ZM254.588 137.65V159.682H256.588V137.65H254.588ZM254.588 159.682C254.588 159.978 254.516 160.015 254.55 159.98C254.592 159.936 254.582 160 254.328 160V162C254.914 162 255.534 161.844 255.996 161.361C256.449 160.887 256.588 160.264 256.588 159.682H254.588ZM254.328 160C254.239 160 254.206 159.987 254.208 159.987C254.216 159.991 254.239 160.004 254.257 160.025C254.272 160.043 254.262 160.041 254.247 159.987C254.231 159.932 254.215 159.834 254.215 159.682H252.215C252.215 160.238 252.329 160.841 252.729 161.316C253.157 161.822 253.754 162 254.328 162V160ZM254.215 159.682V120.395H252.215V159.682H254.215ZM254.215 120.395C254.215 120.109 254.285 120.079 254.252 120.113C254.218 120.147 254.248 120.076 254.533 120.076V118.076C253.94 118.076 253.311 118.225 252.837 118.699C252.364 119.172 252.215 119.801 252.215 120.395H254.215ZM288.91 123.354L289.806 122.909L289.799 122.896L289.792 122.882L288.91 123.354ZM289.379 155.668L288.491 155.209L288.449 155.29L288.422 155.378L289.379 155.668ZM286.156 160.062L286.609 160.954L286.682 160.917L286.748 160.868L286.156 160.062ZM277.514 159.477L276.801 160.178L276.848 160.225L276.901 160.267L277.514 159.477ZM275.141 155.99L276.074 155.632L276.063 155.603L276.05 155.574L275.141 155.99ZM276.254 122.035L276.99 122.712L277.032 122.666L277.068 122.616L276.254 122.035ZM278.568 157.045L279.344 156.413L279.287 156.344L279.218 156.285L278.568 157.045ZM287.416 153.939L286.471 153.614L286.458 153.649L286.449 153.686L287.416 153.939ZM285.746 122.885L286.453 122.178L286.446 122.171L286.439 122.164L285.746 122.885ZM277.045 125.932L278.002 126.22L278.003 126.22L277.045 125.932ZM281.527 120.076H282.729V118.076H281.527V120.076ZM282.729 120.076C284.861 120.076 286.628 121.204 288.028 123.825L289.792 122.882C288.145 119.799 285.791 118.076 282.729 118.076V120.076ZM288.014 123.798C288.538 124.853 288.966 126.474 289.259 128.726C289.549 130.964 289.697 133.76 289.697 137.123H291.697C291.697 133.709 291.547 130.821 291.242 128.469C290.939 126.132 290.474 124.256 289.806 122.909L288.014 123.798ZM289.697 137.123V141.488H291.697V137.123H289.697ZM289.697 141.488C289.697 145.351 289.588 148.437 289.372 150.756C289.152 153.127 288.83 154.552 288.491 155.209L290.267 156.127C290.806 155.085 291.144 153.297 291.363 150.941C291.587 148.534 291.697 145.379 291.697 141.488H289.697ZM288.422 155.378C287.964 156.887 287.031 158.179 285.564 159.257L286.748 160.868C288.524 159.563 289.739 157.926 290.336 155.958L288.422 155.378ZM285.703 159.171C284.572 159.746 283.585 160 282.729 160V162C283.982 162 285.28 161.629 286.609 160.954L285.703 159.171ZM282.729 160H281.469V162H282.729V160ZM281.469 160C280.413 160 279.304 159.6 278.127 158.687L276.901 160.267C278.34 161.384 279.868 162 281.469 162V160ZM278.227 158.776C277.164 157.694 276.462 156.645 276.074 155.632L274.207 156.348C274.717 157.68 275.598 158.954 276.801 160.178L278.227 158.776ZM276.05 155.574C275.59 154.569 275.208 152.943 274.948 150.62C274.69 148.317 274.559 145.403 274.559 141.869H272.559C272.559 145.445 272.691 148.439 272.96 150.843C273.227 153.227 273.637 155.107 274.231 156.406L276.05 155.574ZM274.559 141.869V138.119H272.559V141.869H274.559ZM274.559 138.119C274.559 133.761 274.782 130.29 275.219 127.686C275.663 125.033 276.302 123.46 276.99 122.712L275.518 121.358C274.409 122.564 273.7 124.647 273.246 127.356C272.784 130.114 272.559 133.708 272.559 138.119H274.559ZM277.068 122.616C278.319 120.861 279.793 120.076 281.527 120.076V118.076C279.043 118.076 277.001 119.264 275.44 121.455L277.068 122.616ZM274.932 138.588V141.43H276.932V138.588H274.932ZM274.932 141.43C274.932 145.906 275.152 149.497 275.605 152.18C275.831 153.521 276.121 154.664 276.484 155.589C276.843 156.503 277.304 157.279 277.918 157.805L279.218 156.285C278.954 156.059 278.645 155.621 278.345 154.857C278.05 154.105 277.79 153.108 277.577 151.847C277.151 149.324 276.932 145.859 276.932 141.43H274.932ZM277.793 157.677C278.847 158.97 280.257 159.627 281.938 159.627V157.627C280.845 157.627 280.009 157.23 279.344 156.413L277.793 157.677ZM281.938 159.627H282.26V157.627H281.938V159.627ZM282.26 159.627C283.783 159.627 285.117 159.165 286.184 158.195C287.233 157.242 287.942 155.873 288.383 154.193L286.449 153.686C286.069 155.131 285.51 156.106 284.839 156.715C284.187 157.308 283.353 157.627 282.26 157.627V159.627ZM288.362 154.265C288.711 153.25 288.943 151.618 289.095 149.461C289.248 147.275 289.324 144.459 289.324 141.02H287.324C287.324 144.436 287.249 147.2 287.1 149.321C286.948 151.471 286.726 152.871 286.471 153.614L288.362 154.265ZM289.324 141.02V137.592H287.324V141.02H289.324ZM289.324 137.592C289.324 133.522 289.109 130.21 288.665 127.678C288.23 125.198 287.546 123.271 286.453 122.178L285.039 123.592C285.665 124.217 286.27 125.6 286.695 128.023C287.11 130.393 287.324 133.576 287.324 137.592H289.324ZM286.439 122.164C285.265 121.036 283.857 120.449 282.26 120.449V122.449C283.318 122.449 284.235 122.82 285.053 123.606L286.439 122.164ZM282.26 120.449H281.996V122.449H282.26V120.449ZM281.996 120.449C280.568 120.449 279.31 120.901 278.285 121.828C277.281 122.737 276.569 124.042 276.087 125.644L278.003 126.22C278.419 124.833 278.981 123.896 279.628 123.311C280.254 122.744 281.022 122.449 281.996 122.449V120.449ZM276.088 125.643C275.299 128.258 274.932 132.608 274.932 138.588H276.932C276.932 132.614 277.307 128.527 278.002 126.22L276.088 125.643ZM318.131 126.781L317.19 127.121L317.202 127.153L317.216 127.184L318.131 126.781ZM313.033 141.02L313.25 141.996L313.398 141.963L313.529 141.888L313.033 141.02ZM312.77 141.283H311.77V141.444L311.82 141.597L312.77 141.283ZM317.516 161V162H317.55L317.585 161.998L317.516 161ZM315.758 158.041L316.735 157.828L316.724 157.777L316.707 157.726L315.758 158.041ZM310.484 142.133L311.434 141.818L311.206 141.133H310.484V142.133ZM310.338 142.133V141.133H310.208L310.082 141.166L310.338 142.133ZM304.01 142.924V141.924H303.01V142.924H304.01ZM304.01 121.449V120.449H303.01V121.449H304.01ZM304.01 140.551H303.01V141.551H304.01V140.551ZM312.857 138.324L313.356 139.191L313.381 139.177L313.404 139.162L312.857 138.324ZM315.875 134.311L314.949 133.933L314.938 133.959L314.93 133.985L315.875 134.311ZM316.402 131.322L317.398 131.415L317.402 131.369V131.322H316.402ZM308.551 121.918L308.769 120.942L308.762 120.941L308.551 121.918ZM303.746 120.076C307.514 120.076 310.467 120.703 312.671 121.884C314.85 123.051 316.346 124.784 317.19 127.121L319.071 126.442C318.06 123.642 316.231 121.522 313.615 120.121C311.024 118.733 307.713 118.076 303.746 118.076V120.076ZM317.216 127.184C317.557 127.959 317.775 129.363 317.775 131.527H319.775C319.775 129.316 319.565 127.557 319.046 126.379L317.216 127.184ZM317.775 131.527C317.775 135.281 316.078 138.128 312.537 140.151L313.529 141.888C317.644 139.536 319.775 136.054 319.775 131.527H317.775ZM312.816 140.043C312.622 140.087 312.354 140.182 312.128 140.408C311.877 140.659 311.77 140.979 311.77 141.283H313.77C313.77 141.451 313.706 141.659 313.543 141.822C313.404 141.96 313.269 141.992 313.25 141.996L312.816 140.043ZM311.82 141.597C313.822 147.651 315.323 152.22 316.323 155.303C316.823 156.845 317.197 158.013 317.446 158.808C317.57 159.207 317.662 159.507 317.721 159.712C317.752 159.816 317.772 159.888 317.783 159.934C317.789 159.957 317.791 159.965 317.79 159.962C317.79 159.96 317.788 159.949 317.785 159.931C317.783 159.921 317.775 159.869 317.775 159.799H319.775C319.775 159.676 319.751 159.569 319.749 159.557C319.74 159.516 319.73 159.475 319.721 159.437C319.701 159.36 319.674 159.264 319.642 159.153C319.576 158.929 319.48 158.614 319.355 158.211C319.103 157.405 318.726 156.229 318.225 154.686C317.223 151.597 315.721 147.024 313.719 140.969L311.82 141.597ZM317.775 159.799C317.775 159.892 317.762 159.935 317.758 159.946C317.756 159.953 317.759 159.943 317.77 159.932C317.791 159.913 317.736 159.982 317.446 160.002L317.585 161.998C318.135 161.959 318.71 161.799 319.151 161.379C319.61 160.941 319.775 160.363 319.775 159.799H317.775ZM317.516 160C317.663 160 317.597 160.116 317.379 159.75C317.168 159.393 316.941 158.777 316.735 157.828L314.781 158.254C315.004 159.278 315.285 160.141 315.66 160.771C316.028 161.391 316.626 162 317.516 162V160ZM316.707 157.726L311.434 141.818L309.535 142.447L314.809 158.356L316.707 157.726ZM310.484 141.133H310.338V143.133H310.484V141.133ZM310.082 141.166C308.117 141.686 306.653 141.924 305.65 141.924V143.924C306.913 143.924 308.574 143.634 310.594 143.1L310.082 141.166ZM305.65 141.924H304.01V143.924H305.65V141.924ZM303.01 142.924V159.682H305.01V142.924H303.01ZM303.01 159.682C303.01 159.978 302.938 160.015 302.972 159.98C303.014 159.936 303.004 160 302.75 160V162C303.336 162 303.956 161.844 304.418 161.361C304.871 160.887 305.01 160.264 305.01 159.682H303.01ZM302.75 160C302.661 160 302.628 159.987 302.63 159.987C302.638 159.991 302.661 160.004 302.679 160.025C302.694 160.043 302.684 160.041 302.669 159.987C302.653 159.932 302.637 159.834 302.637 159.682H300.637C300.637 160.238 300.751 160.841 301.151 161.316C301.579 161.822 302.176 162 302.75 162V160ZM302.637 159.682V120.453H300.637V159.682H302.637ZM302.637 120.453C302.637 120.334 302.657 120.278 302.665 120.259C302.671 120.245 302.677 120.236 302.696 120.222C302.755 120.178 302.963 120.076 303.482 120.076V118.076C302.772 118.076 302.057 118.204 301.5 118.619C300.888 119.075 300.637 119.748 300.637 120.453H302.637ZM303.482 120.076H303.746V118.076H303.482V120.076ZM303.01 121.449V140.551H305.01V121.449H303.01ZM304.01 141.551H305.211V139.551H304.01V141.551ZM305.211 141.551C307.935 141.551 310.654 140.747 313.356 139.191L312.358 137.458C309.905 138.87 307.526 139.551 305.211 139.551V141.551ZM313.404 139.162C315.016 138.109 316.151 136.58 316.82 134.636L314.93 133.985C314.388 135.556 313.511 136.703 312.311 137.487L313.404 139.162ZM316.801 134.688C317.079 134.006 317.262 132.871 317.398 131.415L315.407 131.229C315.269 132.703 315.101 133.56 314.949 133.933L316.801 134.688ZM317.402 131.322C317.402 128.599 316.7 126.295 315.207 124.507C313.719 122.724 311.534 121.561 308.769 120.942L308.332 122.894C310.802 123.447 312.543 124.437 313.672 125.789C314.796 127.135 315.402 128.948 315.402 131.322H317.402ZM308.762 120.941C307.243 120.612 305.658 120.449 304.01 120.449V122.449C305.526 122.449 306.968 122.599 308.339 122.895L308.762 120.941ZM330.857 121.83L329.879 122.038L329.892 122.096L329.911 122.152L330.857 121.83ZM341.141 152.094L340.194 152.415L340.424 153.094H341.141V152.094ZM341.229 152.094V153.094H341.955L342.179 152.403L341.229 152.094ZM351.775 119.662L350.937 119.117L350.865 119.228L350.824 119.353L351.775 119.662ZM351.629 128.246H352.629V126.628L351.182 127.352L351.629 128.246ZM347.938 139.32L348.89 139.626L348.89 139.625L347.938 139.32ZM342.195 156.898L342.925 157.582L343.051 157.448L343.12 157.278L342.195 156.898ZM339.295 154.203L340.271 153.986L340.231 153.804L340.127 153.648L339.295 154.203ZM330.418 127.982L331.366 127.664L331.248 127.314L330.932 127.125L330.418 127.982ZM330.271 127.895L330.786 127.037L329.271 126.128V127.895H330.271ZM329.158 120.076C329.04 120.076 329.098 119.98 329.289 120.29C329.483 120.605 329.693 121.162 329.879 122.038L331.836 121.622C331.631 120.662 331.363 119.843 330.991 119.24C330.615 118.631 330.018 118.076 329.158 118.076V120.076ZM329.911 122.152L340.194 152.415L342.087 151.772L331.804 121.508L329.911 122.152ZM341.141 153.094H341.229V151.094H341.141V153.094ZM342.179 152.403L352.726 119.971L350.824 119.353L340.278 151.784L342.179 152.403ZM352.614 120.207C352.658 120.139 352.692 120.117 352.71 120.108C352.73 120.097 352.78 120.076 352.889 120.076V118.076C352.081 118.076 351.386 118.427 350.937 119.117L352.614 120.207ZM352.889 120.076C352.978 120.076 353.011 120.09 353.009 120.089C353 120.085 352.978 120.073 352.96 120.051C352.944 120.033 352.955 120.036 352.97 120.089C352.985 120.144 353.002 120.242 353.002 120.395H355.002C355.002 119.838 354.888 119.235 354.488 118.761C354.06 118.254 353.462 118.076 352.889 118.076V120.076ZM353.002 120.395V159.682H355.002V120.395H353.002ZM353.002 159.682C353.002 159.978 352.93 160.015 352.964 159.98C353.006 159.936 352.996 160 352.742 160V162C353.328 162 353.948 161.844 354.41 161.361C354.864 160.887 355.002 160.264 355.002 159.682H353.002ZM352.742 160C352.653 160 352.62 159.987 352.622 159.987C352.63 159.991 352.653 160.004 352.671 160.025C352.687 160.043 352.676 160.041 352.661 159.987C352.645 159.932 352.629 159.834 352.629 159.682H350.629C350.629 160.238 350.743 160.841 351.143 161.316C351.571 161.822 352.168 162 352.742 162V160ZM352.629 159.682V128.246H350.629V159.682H352.629ZM351.182 127.352C351.009 127.438 350.906 127.552 350.873 127.59C350.827 127.641 350.796 127.688 350.778 127.715C350.741 127.77 350.715 127.822 350.699 127.852C350.667 127.918 350.635 127.992 350.607 128.06C350.549 128.201 350.477 128.395 350.391 128.633C350.219 129.113 349.978 129.818 349.669 130.742C349.052 132.594 348.157 135.353 346.985 139.016L348.89 139.625C350.062 135.964 350.954 133.215 351.567 131.375C351.874 130.454 352.109 129.767 352.273 129.309C352.356 129.079 352.417 128.917 352.458 128.817C352.48 128.764 352.489 128.745 352.488 128.747C352.487 128.749 352.484 128.755 352.479 128.764C352.475 128.772 352.465 128.788 352.452 128.809C352.44 128.828 352.413 128.867 352.372 128.913C352.344 128.946 352.245 129.056 352.076 129.141L351.182 127.352ZM346.985 139.015C343.458 150.009 341.563 155.805 341.27 156.519L343.12 157.278C343.453 156.468 345.386 150.546 348.89 139.626L346.985 139.015ZM341.466 156.214C341.352 156.335 341.261 156.367 341.141 156.367V158.367C341.841 158.367 342.452 158.086 342.925 157.582L341.466 156.214ZM341.141 156.367C341.295 156.367 341.214 156.488 340.972 156.072C340.741 155.678 340.498 155.005 340.271 153.986L338.319 154.42C338.561 155.511 338.859 156.42 339.244 157.08C339.617 157.719 340.225 158.367 341.141 158.367V156.367ZM340.127 153.648C340.165 153.705 340.188 153.753 340.191 153.76C340.199 153.776 340.204 153.788 340.206 153.793C340.21 153.802 340.212 153.806 340.21 153.801C340.206 153.791 340.198 153.771 340.185 153.736C340.16 153.668 340.124 153.564 340.074 153.424C339.976 153.143 339.832 152.727 339.642 152.174C339.263 151.069 338.704 149.424 337.964 147.239C336.485 142.87 334.286 136.345 331.366 127.664L329.47 128.301C332.39 136.983 334.59 143.51 336.07 147.881C336.81 150.066 337.37 151.714 337.75 152.823C337.94 153.377 338.086 153.799 338.187 154.086C338.237 154.23 338.278 154.343 338.308 154.424C338.322 154.464 338.336 154.502 338.349 154.533C338.355 154.548 338.363 154.569 338.372 154.59C338.377 154.601 338.384 154.618 338.394 154.638C338.4 154.649 338.424 154.699 338.463 154.758L340.127 153.648ZM330.932 127.125L330.786 127.037L329.757 128.752L329.903 128.84L330.932 127.125ZM329.271 127.895V159.682H331.271V127.895H329.271ZM329.271 159.682C329.271 159.978 329.2 160.015 329.234 159.98C329.275 159.936 329.266 160 329.012 160V162C329.598 162 330.218 161.844 330.68 161.361C331.133 160.887 331.271 160.264 331.271 159.682H329.271ZM329.012 160C328.923 160 328.89 159.987 328.892 159.987C328.9 159.991 328.922 160.004 328.941 160.025C328.956 160.043 328.946 160.041 328.931 159.987C328.915 159.932 328.898 159.834 328.898 159.682H326.898C326.898 160.238 327.012 160.841 327.413 161.316C327.84 161.822 328.438 162 329.012 162V160ZM328.898 159.682V120.395H326.898V159.682H328.898ZM328.898 120.395C328.898 120.098 328.97 120.061 328.936 120.097C328.895 120.14 328.904 120.076 329.158 120.076V118.076C328.572 118.076 327.952 118.232 327.49 118.715C327.037 119.19 326.898 119.812 326.898 120.395H328.898ZM389.182 122.445L390.082 122.009L390.049 121.941L390.006 121.879L389.182 122.445ZM386.809 137.475L387.502 138.195L387.51 138.187L386.809 137.475ZM384.436 139.906H383.436V140.128L383.529 140.329L384.436 139.906ZM389.24 148.725L388.381 149.237L388.672 149.725H389.24V148.725ZM389.328 148.725V149.725H390.115L390.3 148.96L389.328 148.725ZM391.027 138.852L390.206 138.28L390.072 138.474L390.038 138.707L391.027 138.852ZM393.342 139.438L394.333 139.572L394.348 139.459L394.337 139.345L393.342 139.438ZM391.174 151.977L390.198 151.757L390.106 152.167L390.334 152.519L391.174 151.977ZM395.979 159.418L396.955 159.201L396.916 159.026L396.819 158.876L395.979 159.418ZM394.777 161V162H394.824L394.87 161.996L394.777 161ZM392.814 158.891L393.699 158.424L393.671 158.37L393.636 158.321L392.814 158.891ZM390.295 155.258L391.117 154.688L390.818 154.258H390.295V155.258ZM390.178 155.258V154.258H389.444L389.224 154.958L390.178 155.258ZM386.604 160.414L387.051 161.308L387.103 161.283L387.151 161.251L386.604 160.414ZM378.576 155.404L377.627 155.721L377.63 155.728L377.633 155.735L378.576 155.404ZM381.477 139.438L382.245 140.077L382.636 139.608L382.397 139.047L381.477 139.438ZM380.422 120.6L379.715 119.893L379.682 119.926L379.652 119.962L380.422 120.6ZM380.539 126.986L379.545 126.881L379.539 126.934V126.986H380.539ZM383.264 137.387L382.339 137.767L382.594 138.387H383.264V137.387ZM383.439 137.387V138.387H383.843L384.133 138.107L383.439 137.387ZM387.072 133.109L386.196 132.627L386.159 132.694L386.133 132.766L387.072 133.109ZM385.959 122.24L386.697 121.565L386.613 121.473L386.509 121.405L385.959 122.24ZM384.113 121.449L384.193 120.452L384.153 120.449H384.113V121.449ZM383.322 158.363L382.76 159.19L382.865 159.261L382.984 159.304L383.322 158.363ZM387.922 154.408L388.86 154.754L388.871 154.725L388.88 154.696L387.922 154.408ZM388.449 152.24H389.449V151.961L389.304 151.721L388.449 152.24ZM382.648 141.957L383.531 141.486L382.786 140.092L381.845 141.362L382.648 141.957ZM384.055 120.076H384.377V118.076H384.055V120.076ZM384.377 120.076C385.54 120.076 386.88 120.861 388.357 123.012L390.006 121.879C388.398 119.538 386.534 118.076 384.377 118.076V120.076ZM388.282 122.881C389.13 124.632 389.559 126.543 389.559 128.627H391.559C391.559 126.258 391.069 124.048 390.082 122.009L388.282 122.881ZM389.559 128.627C389.559 131.79 388.421 134.485 386.107 136.762L387.51 138.187C390.197 135.543 391.559 132.339 391.559 128.627H389.559ZM386.115 136.754C385.322 137.518 384.72 138.11 384.313 138.527C384.111 138.733 383.947 138.907 383.83 139.043C383.773 139.108 383.712 139.181 383.66 139.254C383.635 139.288 383.597 139.344 383.561 139.412C383.548 139.437 383.436 139.635 383.436 139.906H385.436C385.436 140.165 385.33 140.346 385.329 140.347C385.305 140.392 385.286 140.419 385.285 140.419C385.283 140.422 385.296 140.404 385.338 140.356C385.418 140.264 385.551 140.122 385.744 139.924C386.129 139.53 386.713 138.955 387.502 138.195L386.115 136.754ZM383.529 140.329C384.643 142.716 386.264 145.688 388.381 149.237L390.099 148.212C387.998 144.691 386.415 141.784 385.342 139.483L383.529 140.329ZM389.24 149.725H389.328V147.725H389.24V149.725ZM390.3 148.96C390.742 147.132 391.314 143.798 392.017 138.996L390.038 138.707C389.334 143.515 388.774 146.763 388.356 148.49L390.3 148.96ZM391.848 139.423C392 139.204 392.111 139.178 392.229 139.178V137.178C391.369 137.178 390.68 137.6 390.206 138.28L391.848 139.423ZM392.229 139.178C392.29 139.178 392.306 139.187 392.296 139.183C392.281 139.177 392.265 139.165 392.256 139.155C392.246 139.144 392.317 139.22 392.346 139.53L394.337 139.345C394.288 138.815 394.135 138.261 393.754 137.83C393.343 137.366 392.789 137.178 392.229 137.178V139.178ZM392.351 139.303C391.689 144.167 390.971 148.317 390.198 151.757L392.149 152.196C392.939 148.683 393.666 144.474 394.333 139.572L392.351 139.303ZM390.334 152.519L395.138 159.96L396.819 158.876L392.014 151.434L390.334 152.519ZM395.002 159.635C395.03 159.76 395.037 159.842 395.037 159.887H397.037C397.037 159.658 397.005 159.427 396.955 159.201L395.002 159.635ZM395.037 159.887C395.037 159.948 395.028 159.964 395.032 159.954C395.038 159.94 395.05 159.923 395.06 159.914C395.071 159.904 394.994 159.975 394.685 160.004L394.87 161.996C395.4 161.946 395.953 161.793 396.384 161.412C396.849 161.002 397.037 160.447 397.037 159.887H395.037ZM394.777 160C394.913 160 394.857 160.074 394.594 159.791C394.353 159.533 394.052 159.093 393.699 158.424L391.93 159.357C392.319 160.095 392.716 160.71 393.13 161.154C393.521 161.575 394.075 162 394.777 162V160ZM393.636 158.321L391.117 154.688L389.473 155.828L391.993 159.461L393.636 158.321ZM390.295 154.258H390.178V156.258H390.295V154.258ZM389.224 154.958C388.532 157.16 387.457 158.66 386.056 159.577L387.151 161.251C389.032 160.019 390.339 158.082 391.132 155.557L389.224 154.958ZM386.156 159.52C385.462 159.867 384.915 160 384.494 160V162C385.324 162 386.183 161.743 387.051 161.308L386.156 159.52ZM384.494 160H384.055V162H384.494V160ZM384.055 160C382.39 160 380.797 158.713 379.52 155.073L377.633 155.735C378.973 159.557 381.032 162 384.055 162V160ZM379.525 155.088C379.088 153.779 378.844 151.731 378.844 148.871H376.844C376.844 151.793 377.087 154.1 377.627 155.721L379.525 155.088ZM378.844 148.871C378.844 145.754 379.954 142.831 382.245 140.077L380.708 138.798C378.156 141.865 376.844 145.23 376.844 148.871H378.844ZM382.397 139.047C381.301 136.467 380.488 134.302 379.95 132.546C379.406 130.771 379.166 129.482 379.166 128.627H377.166C377.166 129.784 377.477 131.302 378.037 133.131C378.603 134.978 379.445 137.213 380.556 139.828L382.397 139.047ZM379.166 128.627V126.518H377.166V128.627H379.166ZM379.166 126.518C379.166 124.647 379.82 122.895 381.192 121.237L379.652 119.962C378.016 121.937 377.166 124.13 377.166 126.518H379.166ZM381.129 121.307C381.962 120.474 382.92 120.076 384.055 120.076V118.076C382.377 118.076 380.913 118.694 379.715 119.893L381.129 121.307ZM379.539 126.986V128.158H381.539V126.986H379.539ZM379.539 128.158C379.539 129.172 379.799 130.486 380.261 132.052C380.728 133.635 381.423 135.542 382.339 137.767L384.188 137.006C383.288 134.817 382.62 132.979 382.179 131.486C381.734 129.976 381.539 128.882 381.539 128.158H379.539ZM383.264 138.387H383.439V136.387H383.264V138.387ZM384.133 138.107C385.21 137.07 386.071 136.175 386.707 135.427C387.319 134.705 387.799 134.033 388.011 133.453L386.133 132.766C386.052 132.986 385.78 133.427 385.182 134.132C384.607 134.809 383.798 135.653 382.746 136.667L384.133 138.107ZM387.948 133.592C388.779 132.083 389.186 130.401 389.186 128.568H387.186C387.186 130.095 386.85 131.44 386.196 132.627L387.948 133.592ZM389.186 128.568C389.186 125.769 388.38 123.403 386.697 121.565L385.221 122.916C386.507 124.32 387.186 126.172 387.186 128.568H389.186ZM386.509 121.405C385.723 120.888 384.936 120.512 384.193 120.452L384.034 122.446C384.267 122.465 384.71 122.616 385.409 123.076L386.509 121.405ZM384.113 120.449C382.738 120.449 381.643 121.118 380.885 122.291C380.165 123.407 379.746 124.973 379.545 126.881L381.534 127.092C381.722 125.308 382.095 124.106 382.566 123.376C383 122.704 383.496 122.449 384.113 122.449V120.449ZM379.217 149.135C379.217 153.931 380.245 157.482 382.76 159.19L383.884 157.536C382.259 156.432 381.217 153.831 381.217 149.135H379.217ZM382.984 159.304C383.243 159.397 383.477 159.474 383.682 159.528C383.868 159.577 384.097 159.627 384.318 159.627V157.627C384.364 157.627 384.339 157.633 384.193 157.594C384.066 157.56 383.89 157.505 383.661 157.422L382.984 159.304ZM384.318 159.627C385.388 159.627 386.285 159.065 387.005 158.222C387.715 157.39 388.324 156.211 388.86 154.754L386.983 154.063C386.485 155.418 385.975 156.348 385.484 156.923C385.003 157.486 384.616 157.627 384.318 157.627V159.627ZM388.88 154.696C389.057 154.103 389.194 153.618 389.288 153.244C389.37 152.916 389.449 152.561 389.449 152.299H387.449C387.449 152.271 387.441 152.384 387.347 152.759C387.265 153.089 387.138 153.541 386.964 154.121L388.88 154.696ZM389.449 152.299V152.24H387.449V152.299H389.449ZM389.304 151.721C387.598 148.91 385.673 145.499 383.531 141.486L381.766 142.428C383.92 146.462 385.863 149.907 387.594 152.759L389.304 151.721ZM381.845 141.362C380.103 143.713 379.217 146.312 379.217 149.135H381.217C381.217 146.762 381.952 144.577 383.452 142.552L381.845 141.362ZM434.469 127.777L435.392 127.394L435.381 127.367L435.369 127.341L434.469 127.777ZM432.418 157.367L433.105 158.093L433.129 158.071L433.151 158.047L432.418 157.367ZM420.143 160.473L419.379 161.119L419.387 161.128L419.395 161.137L420.143 160.473ZM422.193 121.449V120.449H421.193V121.449H422.193ZM422.193 158.568H421.193V159.451L422.069 159.561L422.193 158.568ZM422.662 158.627L422.538 159.619L422.6 159.627H422.662V158.627ZM431.158 155.141L431.902 155.809L431.922 155.787L431.941 155.763L431.158 155.141ZM430.514 125.785L431.331 125.209L431.327 125.203L430.514 125.785ZM424.83 121.83L425.133 120.877L425.103 120.868L425.073 120.86L424.83 121.83ZM422.135 120.076C424.65 120.076 426.825 120.746 428.699 122.069C430.583 123.398 432.216 125.424 433.569 128.214L435.369 127.341C433.909 124.33 432.08 122.006 429.852 120.434C427.615 118.856 425.03 118.076 422.135 118.076V120.076ZM433.545 128.16C435.144 132.016 435.959 136.607 435.959 141.957H437.959C437.959 136.409 437.114 131.547 435.392 127.394L433.545 128.16ZM435.959 141.957V143.715H437.959V141.957H435.959ZM435.959 143.715C435.959 149.383 434.493 153.662 431.685 156.687L433.151 158.047C436.398 154.549 437.959 149.726 437.959 143.715H435.959ZM431.731 156.641C429.343 158.901 426.664 160 423.658 160V162C427.215 162 430.376 160.677 433.105 158.093L431.731 156.641ZM423.658 160H422.926V162H423.658V160ZM422.926 160C422.183 160 421.635 159.957 421.259 159.886C420.829 159.804 420.811 159.719 420.89 159.808L419.395 161.137C419.787 161.577 420.389 161.756 420.887 161.851C421.438 161.955 422.126 162 422.926 162V160ZM420.906 159.827C420.877 159.793 420.82 159.707 420.82 159.477H418.82C418.82 160.066 418.978 160.645 419.379 161.119L420.906 159.827ZM420.82 159.477V120.453H418.82V159.477H420.82ZM420.82 120.453C420.82 120.334 420.84 120.278 420.849 120.259C420.855 120.245 420.86 120.236 420.88 120.222C420.938 120.178 421.146 120.076 421.666 120.076V118.076C420.955 118.076 420.24 118.204 419.684 118.619C419.072 119.075 418.82 119.748 418.82 120.453H420.82ZM421.666 120.076H422.135V118.076H421.666V120.076ZM421.193 121.449V158.568H423.193V121.449H421.193ZM422.069 159.561L422.538 159.619L422.786 157.635L422.317 157.576L422.069 159.561ZM422.662 159.627H423.189V157.627H422.662V159.627ZM423.189 159.627C426.686 159.627 429.616 158.352 431.902 155.809L430.415 154.472C428.521 156.578 426.138 157.627 423.189 157.627V159.627ZM431.941 155.763C434.411 152.659 435.586 148.457 435.586 143.275H433.586C433.586 148.172 432.476 151.88 430.376 154.518L431.941 155.763ZM435.586 143.275V142.396H433.586V143.275H435.586ZM435.586 142.396C435.586 135.067 434.213 129.293 431.331 125.209L429.697 126.362C432.244 129.972 433.586 135.273 433.586 142.396H435.586ZM431.327 125.203C429.857 123.149 427.771 121.715 425.133 120.877L424.527 122.783C426.811 123.508 428.514 124.71 429.701 126.367L431.327 125.203ZM425.073 120.86C424.007 120.594 423.043 120.449 422.193 120.449V122.449C422.828 122.449 423.622 122.559 424.588 122.8L425.073 120.86ZM448.748 121.449V120.449H447.748V121.449H448.748ZM448.748 135.277H447.748V136.277H448.748V135.277ZM448.748 137.65V136.65H447.748V137.65H448.748ZM448.748 158.627H447.748V159.627H448.748V158.627ZM447.693 120.076H461.873V118.076H447.693V120.076ZM461.873 120.076C462.169 120.076 462.206 120.148 462.171 120.114C462.127 120.072 462.191 120.082 462.191 120.336H464.191C464.191 119.75 464.036 119.13 463.553 118.668C463.078 118.215 462.456 118.076 461.873 118.076V120.076ZM462.191 120.336C462.191 120.425 462.178 120.458 462.179 120.456C462.182 120.448 462.195 120.425 462.217 120.407C462.235 120.392 462.232 120.402 462.179 120.417C462.123 120.433 462.026 120.449 461.873 120.449V122.449C462.429 122.449 463.033 122.335 463.507 121.935C464.014 121.507 464.191 120.91 464.191 120.336H462.191ZM461.873 120.449H448.748V122.449H461.873V120.449ZM447.748 121.449V135.277H449.748V121.449H447.748ZM448.748 136.277H458.504V134.277H448.748V136.277ZM458.504 136.277C458.8 136.277 458.837 136.349 458.802 136.315C458.758 136.274 458.822 136.283 458.822 136.537H460.822C460.822 135.951 460.667 135.331 460.184 134.869C459.709 134.416 459.086 134.277 458.504 134.277V136.277ZM458.822 136.537C458.822 136.626 458.809 136.659 458.81 136.657C458.813 136.649 458.826 136.626 458.847 136.608C458.866 136.593 458.863 136.603 458.81 136.618C458.754 136.634 458.657 136.65 458.504 136.65V138.65C459.06 138.65 459.664 138.537 460.138 138.136C460.644 137.708 460.822 137.111 460.822 136.537H458.822ZM458.504 136.65H448.748V138.65H458.504V136.65ZM447.748 137.65V158.627H449.748V137.65H447.748ZM448.748 159.627H462.195V157.627H448.748V159.627ZM462.195 159.627C462.492 159.627 462.528 159.698 462.493 159.665C462.45 159.623 462.514 159.633 462.514 159.887H464.514C464.514 159.301 464.358 158.681 463.875 158.219C463.4 157.765 462.778 157.627 462.195 157.627V159.627ZM462.514 159.887C462.514 159.976 462.5 160.009 462.501 160.007C462.504 159.998 462.517 159.976 462.539 159.958C462.557 159.942 462.554 159.953 462.501 159.968C462.445 159.984 462.348 160 462.195 160V162C462.752 162 463.355 161.886 463.829 161.486C464.336 161.058 464.514 160.46 464.514 159.887H462.514ZM462.195 160H447.693V162H462.195V160ZM447.693 160C447.408 160 447.378 159.929 447.412 159.963C447.446 159.997 447.375 159.967 447.375 159.682H445.375C445.375 160.275 445.524 160.904 445.997 161.378C446.471 161.851 447.1 162 447.693 162V160ZM447.375 159.682V120.395H445.375V159.682H447.375ZM447.375 120.395C447.375 120.109 447.446 120.079 447.412 120.113C447.378 120.147 447.408 120.076 447.693 120.076V118.076C447.1 118.076 446.471 118.225 445.997 118.699C445.524 119.172 445.375 119.801 445.375 120.395H447.375ZM483.74 120.072L484.447 119.365L484.312 119.23L484.136 119.154L483.74 120.072ZM482.803 122.182L482.556 123.151L482.677 123.182H482.803V122.182ZM471.143 126.195L470.19 125.89L470.179 125.924L470.171 125.96L471.143 126.195ZM475.42 137.475L475.82 136.558L475.814 136.555L475.807 136.553L475.42 137.475ZM480.107 139.643L480.619 138.783L480.585 138.763L480.55 138.746L480.107 139.643ZM484.912 145.443L485.875 145.173L485.871 145.16L485.868 145.148L484.912 145.443ZM479.434 160.326L479.727 161.282L479.766 161.27L479.805 161.255L479.434 160.326ZM474.365 161L474.28 161.996L474.322 162H474.365V161ZM469.238 159.74H470.238V159.504L470.133 159.293L469.238 159.74ZM470.352 157.953L470.569 156.977L470.404 156.94L470.236 156.96L470.352 157.953ZM482.07 154.877L482.968 155.319L482.971 155.311L482.975 155.304L482.07 154.877ZM478.789 141.752L478.312 142.631L478.334 142.643L478.357 142.654L478.789 141.752ZM474.248 139.643L473.813 140.543L473.838 140.555L473.863 140.566L474.248 139.643ZM473.311 119.984L472.891 119.077L472.861 119.09L472.833 119.106L473.311 119.984ZM478.057 120.076C480.21 120.076 481.961 120.395 483.345 120.991L484.136 119.154C482.433 118.421 480.395 118.076 478.057 118.076V120.076ZM483.033 120.779C483.082 120.828 483.121 120.888 483.121 121.039H485.121C485.121 120.409 484.906 119.824 484.447 119.365L483.033 120.779ZM483.121 121.039C483.121 121.136 483.107 121.176 483.105 121.18C483.105 121.181 483.107 121.176 483.114 121.166C483.12 121.156 483.128 121.147 483.137 121.14C483.172 121.11 483.12 121.182 482.803 121.182V123.182C483.364 123.182 483.972 123.063 484.446 122.652C484.949 122.217 485.121 121.614 485.121 121.039H483.121ZM483.05 121.213C481.096 120.714 479.424 120.449 478.057 120.449V122.449C479.19 122.449 480.681 122.673 482.556 123.151L483.05 121.213ZM478.057 120.449C476.115 120.449 474.428 120.877 473.067 121.811C471.699 122.75 470.753 124.138 470.19 125.89L472.095 126.501C472.548 125.089 473.262 124.103 474.199 123.46C475.143 122.812 476.404 122.449 478.057 122.449V120.449ZM470.171 125.96C469.845 127.302 469.674 128.526 469.674 129.623H471.674C471.674 128.728 471.815 127.667 472.114 126.431L470.171 125.96ZM469.674 129.623V129.945H471.674V129.623H469.674ZM469.674 129.945C469.674 131.934 470.101 133.68 471.014 135.129C471.931 136.584 473.292 137.666 475.033 138.397L475.807 136.553C474.384 135.955 473.371 135.118 472.706 134.063C472.038 133.003 471.674 131.648 471.674 129.945H469.674ZM475.02 138.391C476.707 139.128 478.255 139.844 479.665 140.539L480.55 138.746C479.108 138.035 477.531 137.306 475.82 136.558L475.02 138.391ZM479.596 140.502C481.876 141.859 483.298 143.606 483.957 145.739L485.868 145.148C485.042 142.476 483.261 140.356 480.619 138.783L479.596 140.502ZM483.949 145.714C484.269 146.85 484.439 148.267 484.439 149.984H486.439C486.439 148.147 486.258 146.536 485.875 145.173L483.949 145.714ZM484.439 149.984C484.439 152.51 483.961 154.508 483.073 156.037C482.194 157.552 480.875 158.673 479.062 159.398L479.805 161.255C481.996 160.378 483.68 158.975 484.803 157.042C485.917 155.124 486.439 152.751 486.439 149.984H484.439ZM479.14 159.37C477.75 159.797 476.493 160 475.361 160V162C476.73 162 478.188 161.754 479.727 161.282L479.14 159.37ZM475.361 160H474.365V162H475.361V160ZM474.451 160.004C472.755 159.858 471.535 159.685 470.759 159.494C470.362 159.397 470.146 159.31 470.051 159.256C469.9 159.171 470.238 159.3 470.238 159.74H468.238C468.238 160.454 468.79 160.841 469.066 160.997C469.399 161.185 469.824 161.324 470.281 161.436C471.214 161.665 472.558 161.849 474.28 161.996L474.451 160.004ZM470.133 159.293C470.11 159.247 470.092 159.186 470.092 159.096H468.092C468.092 159.474 468.172 159.843 468.344 160.187L470.133 159.293ZM470.092 159.096C470.092 159.035 470.101 159.016 470.098 159.024C470.094 159.034 470.085 159.047 470.079 159.053C470.075 159.056 470.158 158.982 470.467 158.946L470.236 156.96C469.705 157.022 469.158 157.187 468.735 157.571C468.28 157.984 468.092 158.534 468.092 159.096H470.092ZM470.134 158.929C472.156 159.381 473.741 159.627 474.834 159.627V157.627C473.974 157.627 472.57 157.424 470.569 156.977L470.134 158.929ZM474.834 159.627H474.893V157.627H474.834V159.627ZM474.893 159.627C478.703 159.627 481.52 158.26 482.968 155.319L481.173 154.435C480.16 156.494 478.191 157.627 474.893 157.627V159.627ZM482.975 155.304C483.714 153.738 484.066 151.936 484.066 149.926H482.066C482.066 151.704 481.755 153.203 481.166 154.45L482.975 155.304ZM484.066 149.926C484.066 145.592 482.526 142.435 479.221 140.85L478.357 142.654C480.755 143.804 482.066 146.095 482.066 149.926H484.066ZM479.266 140.873C478.072 140.225 476.524 139.508 474.633 138.72L473.863 140.566C475.722 141.34 477.201 142.028 478.312 142.631L479.266 140.873ZM474.683 138.742C472.832 137.849 471.501 136.713 470.628 135.358C469.757 134.006 469.301 132.372 469.301 130.414H467.301C467.301 132.694 467.836 134.718 468.947 136.442C470.056 138.163 471.699 139.522 473.813 140.543L474.683 138.742ZM469.301 130.414V129.154H467.301V130.414H469.301ZM469.301 129.154C469.301 125.166 470.818 122.478 473.788 120.863L472.833 119.106C469.123 121.123 467.301 124.549 467.301 129.154H469.301ZM473.73 120.892C474.875 120.362 476.306 120.076 478.057 120.076V118.076C476.096 118.076 474.363 118.396 472.891 119.077L473.73 120.892ZM494.943 120.076C495.032 120.076 495.065 120.09 495.063 120.089C495.055 120.085 495.033 120.073 495.014 120.051C494.999 120.033 495.01 120.036 495.024 120.089C495.04 120.144 495.057 120.242 495.057 120.395H497.057C497.057 119.838 496.943 119.235 496.542 118.761C496.115 118.254 495.517 118.076 494.943 118.076V120.076ZM495.057 120.395V159.682H497.057V120.395H495.057ZM495.057 159.682C495.057 159.978 494.985 160.015 495.019 159.98C495.06 159.936 495.051 160 494.797 160V162C495.383 162 496.003 161.844 496.465 161.361C496.918 160.887 497.057 160.264 497.057 159.682H495.057ZM494.797 160C494.708 160 494.675 159.987 494.677 159.987C494.685 159.991 494.708 160.004 494.726 160.025C494.741 160.043 494.731 160.041 494.716 159.987C494.7 159.932 494.684 159.834 494.684 159.682H492.684C492.684 160.238 492.797 160.841 493.198 161.316C493.626 161.822 494.223 162 494.797 162V160ZM494.684 159.682V120.395H492.684V159.682H494.684ZM494.684 120.395C494.684 120.098 494.755 120.061 494.722 120.097C494.68 120.14 494.689 120.076 494.943 120.076V118.076C494.357 118.076 493.737 118.232 493.276 118.715C492.822 119.19 492.684 119.812 492.684 120.395H494.684ZM522.582 120.453L523.404 119.884L523.282 119.707L523.098 119.597L522.582 120.453ZM521.586 122.445L521.298 123.403L521.484 123.459L521.679 123.441L521.586 122.445ZM519.154 121.713L519.443 120.755L519.427 120.751L519.41 120.746L519.154 121.713ZM508.871 130.736L507.893 130.527L507.891 130.537L507.889 130.547L508.871 130.736ZM513.939 157.572L513.389 158.407L513.439 158.44L513.492 158.467L513.939 157.572ZM520.473 158.1L520.975 158.964L521.473 158.675V158.1H520.473ZM520.473 137.914H521.473V136.914H520.473V137.914ZM520.795 160.59L520.667 159.598L520.574 159.61L520.485 159.639L520.795 160.59ZM512.182 159.359L511.595 160.169L511.635 160.198L511.678 160.223L512.182 159.359ZM512.445 120.248L512.954 121.109L512.964 121.103L512.445 120.248ZM517.25 120.076H517.455V118.076H517.25V120.076ZM517.455 120.076C519.18 120.076 520.709 120.492 522.066 121.31L523.098 119.597C521.409 118.579 519.519 118.076 517.455 118.076V120.076ZM521.76 121.022C521.818 121.107 521.846 121.191 521.846 121.303H523.846C523.846 120.789 523.697 120.307 523.404 119.884L521.76 121.022ZM521.846 121.303C521.846 121.372 521.835 121.396 521.837 121.392C521.84 121.383 521.849 121.369 521.859 121.36C521.871 121.35 521.798 121.421 521.493 121.45L521.679 123.441C522.214 123.391 522.771 123.233 523.203 122.842C523.664 122.423 523.846 121.864 523.846 121.303H521.846ZM521.874 121.488L519.443 120.755L518.866 122.67L521.298 123.403L521.874 121.488ZM519.41 120.746C518.674 120.551 517.953 120.449 517.25 120.449V122.449C517.758 122.449 518.307 122.523 518.898 122.68L519.41 120.746ZM517.25 120.449C514.845 120.449 512.81 121.338 511.219 123.101C509.66 124.83 508.577 127.341 507.893 130.527L509.849 130.946C510.494 127.94 511.471 125.808 512.704 124.441C513.907 123.108 515.397 122.449 517.25 122.449V120.449ZM507.889 130.547C507.349 133.35 507.08 136.334 507.08 139.496H509.08C509.08 136.447 509.339 133.591 509.853 130.926L507.889 130.547ZM507.08 139.496C507.08 144.291 507.573 148.279 508.594 151.428C509.616 154.581 511.189 156.955 513.389 158.407L514.49 156.738C512.784 155.611 511.427 153.684 510.496 150.811C509.564 147.934 509.08 144.174 509.08 139.496H507.08ZM513.492 158.467C514.962 159.202 516.315 159.627 517.514 159.627V157.627C516.759 157.627 515.729 157.349 514.387 156.678L513.492 158.467ZM517.514 159.627H517.631V157.627H517.514V159.627ZM517.631 159.627C518.97 159.627 520.136 159.451 520.975 158.964L519.971 157.235C519.598 157.451 518.869 157.627 517.631 157.627V159.627ZM521.473 158.1V137.914H519.473V158.1H521.473ZM520.473 136.914H514.818V138.914H520.473V136.914ZM514.818 136.914C514.517 136.914 514.476 136.842 514.512 136.875C514.529 136.891 514.53 136.902 514.524 136.886C514.516 136.863 514.5 136.802 514.5 136.684H512.5C512.5 137.266 512.659 137.882 513.147 138.338C513.622 138.781 514.241 138.914 514.818 138.914V136.914ZM514.5 136.684C514.5 136.587 514.514 136.547 514.516 136.543C514.516 136.541 514.514 136.547 514.508 136.557C514.501 136.566 514.493 136.575 514.485 136.582C514.449 136.613 514.501 136.541 514.818 136.541V134.541C514.257 134.541 513.649 134.66 513.175 135.071C512.673 135.506 512.5 136.108 512.5 136.684H514.5ZM514.818 136.541H521.527V134.541H514.818V136.541ZM521.527 136.541C521.813 136.541 521.843 136.612 521.809 136.578C521.775 136.544 521.846 136.574 521.846 136.859H523.846C523.846 136.266 523.697 135.637 523.223 135.163C522.75 134.69 522.121 134.541 521.527 134.541V136.541ZM521.846 136.859V158.949H523.846V136.859H521.846ZM521.846 158.949C521.846 159.121 521.8 159.194 521.708 159.267C521.57 159.378 521.264 159.521 520.667 159.598L520.922 161.582C521.693 161.483 522.413 161.265 522.958 160.829C523.55 160.355 523.846 159.695 523.846 158.949H521.846ZM520.485 159.639C519.753 159.877 518.96 160 518.1 160V162C519.153 162 520.157 161.849 521.105 161.541L520.485 159.639ZM518.1 160H517.045V162H518.1V160ZM517.045 160C515.93 160 514.489 159.548 512.686 158.496L511.678 160.223C513.624 161.359 515.426 162 517.045 162V160ZM512.768 158.549C508.873 155.729 506.707 149.545 506.707 139.438H504.707C504.707 149.643 506.858 156.74 511.595 160.169L512.768 158.549ZM506.707 139.438C506.707 129.335 508.966 123.467 512.954 121.109L511.936 119.387C506.94 122.342 504.707 129.267 504.707 139.438H506.707ZM512.964 121.103C514.059 120.439 515.47 120.076 517.25 120.076V118.076C515.202 118.076 513.409 118.494 511.927 119.393L512.964 121.103ZM537.184 122.182L536.215 122.428L536.232 122.499L536.26 122.565L537.184 122.182ZM548.668 152.826L547.731 153.174L547.973 153.826H548.668V152.826ZM548.785 152.826V153.826H549.785V152.826H548.785ZM547.994 157.895L548.963 157.648L548.947 157.583L548.922 157.521L547.994 157.895ZM536.539 127.25L537.476 126.902L537.234 126.25H536.539V127.25ZM536.393 127.25V126.25H535.393V127.25H536.393ZM535.279 120.076C535.123 120.076 535.204 119.959 535.46 120.375C535.699 120.766 535.96 121.429 536.215 122.428L538.153 121.935C537.88 120.864 537.56 119.974 537.164 119.33C536.785 118.711 536.178 118.076 535.279 118.076V120.076ZM536.26 122.565C536.876 124.046 540.693 134.232 547.731 153.174L549.605 152.478C542.58 133.569 538.742 123.325 538.107 121.798L536.26 122.565ZM548.668 153.826H548.785V151.826H548.668V153.826ZM549.785 152.826V120.395H547.785V152.826H549.785ZM549.785 120.395C549.785 120.098 549.857 120.061 549.823 120.097C549.781 120.14 549.791 120.076 550.045 120.076V118.076C549.459 118.076 548.839 118.232 548.377 118.715C547.924 119.19 547.785 119.812 547.785 120.395H549.785ZM550.045 120.076C550.134 120.076 550.167 120.09 550.165 120.089C550.157 120.085 550.134 120.073 550.116 120.051C550.101 120.033 550.111 120.036 550.126 120.089C550.142 120.144 550.158 120.242 550.158 120.395H552.158C552.158 119.838 552.044 119.235 551.644 118.761C551.216 118.254 550.619 118.076 550.045 118.076V120.076ZM550.158 120.395V159.682H552.158V120.395H550.158ZM550.158 159.682C550.158 159.978 550.087 160.015 550.12 159.98C550.162 159.936 550.152 160 549.898 160V162C550.484 162 551.105 161.844 551.566 161.361C552.02 160.887 552.158 160.264 552.158 159.682H550.158ZM549.898 160C550.055 160 549.974 160.117 549.718 159.701C549.479 159.31 549.218 158.647 548.963 157.648L547.025 158.141C547.298 159.212 547.618 160.102 548.013 160.746C548.393 161.365 549 162 549.898 162V160ZM548.922 157.521C548.323 156.034 544.512 145.84 537.476 126.902L535.602 127.598C542.628 146.512 546.454 156.748 547.066 158.268L548.922 157.521ZM536.539 126.25H536.393V128.25H536.539V126.25ZM535.393 127.25V159.682H537.393V127.25H535.393ZM535.393 159.682C535.393 159.978 535.321 160.015 535.355 159.98C535.396 159.936 535.387 160 535.133 160V162C535.719 162 536.339 161.844 536.801 161.361C537.254 160.887 537.393 160.264 537.393 159.682H535.393ZM535.133 160C535.044 160 535.011 159.987 535.013 159.987C535.021 159.991 535.044 160.004 535.062 160.025C535.077 160.043 535.067 160.041 535.052 159.987C535.036 159.932 535.02 159.834 535.02 159.682H533.02C533.02 160.238 533.133 160.841 533.534 161.316C533.962 161.822 534.559 162 535.133 162V160ZM535.02 159.682V120.395H533.02V159.682H535.02ZM535.02 120.395C535.02 120.098 535.091 120.061 535.057 120.097C535.016 120.14 535.025 120.076 535.279 120.076V118.076C534.693 118.076 534.073 118.232 533.611 118.715C533.158 119.19 533.02 119.812 533.02 120.395H535.02Z" fill="black"/>
</svg>
