<svg width="173" height="34" viewBox="0 0 173 34" fill="none" xmlns="http://www.w3.org/2000/svg">
<path d="M1.94218 0.460938C2.53593 0.460938 2.83281 0.8125 2.83281 1.51562V28.5156H2.87968L10.4266 12.6484C10.6453 12.4297 10.9109 12.3203 11.2234 12.3203C11.7391 12.3203 12.2625 13.0234 12.7937 14.4297C16.9656 22.8984 19.325 27.6484 19.8719 28.6797H19.9187V1.51562C19.9187 0.8125 20.2547 0.460938 20.9266 0.460938C21.5203 0.460938 21.8172 0.8125 21.8172 1.51562V32.9453C21.8172 33.6484 21.4812 34 20.8094 34C20.2937 34 19.7547 33.2578 19.1922 31.7734L11.2234 15.6484H11.1766L2.62187 33.6719C2.41875 33.8906 2.15312 34 1.825 34C1.23125 34 0.934372 33.6484 0.934372 32.9453V1.51562C0.934372 0.8125 1.27031 0.460938 1.94218 0.460938ZM35.7109 0.460938H47.0547C47.7578 0.460938 48.1094 0.796875 48.1094 1.46875C48.1094 2.0625 47.7578 2.35938 47.0547 2.35938H36.5547V13.4219H44.3594C45.0625 13.4219 45.4141 13.7578 45.4141 14.4297C45.4141 15.0234 45.0625 15.3203 44.3594 15.3203H36.5547V32.1016H47.3125C48.0156 32.1016 48.3672 32.4375 48.3672 33.1094C48.3672 33.7031 48.0156 34 47.3125 34H35.7109C35.0078 34 34.6562 33.6484 34.6562 32.9453V1.51562C34.6562 0.8125 35.0078 0.460938 35.7109 0.460938ZM56.6359 0.460938C57.2297 0.460938 57.5266 0.8125 57.5266 1.51562V32.1016H68.2844C68.9875 32.1016 69.3391 32.4375 69.3391 33.1094C69.3391 33.7031 68.9875 34 68.2844 34H56.6828C55.9797 34 55.6281 33.6484 55.6281 32.9453V1.51562C55.6281 0.8125 55.9641 0.460938 56.6359 0.460938ZM80.6078 0.460938H81.4047C82.5141 0.460938 83.5687 0.742188 84.5687 1.30469C84.7406 1.50781 84.8266 1.75 84.8266 2.03125C84.8266 2.57812 84.4906 2.88281 83.8187 2.94531C82.5687 2.55469 81.6391 2.35938 81.0297 2.35938H80.9828C79.2328 2.35938 77.7172 3.39844 76.4359 5.47656C75.3578 8.00781 74.8187 9.85156 74.8187 11.0078C74.4594 12.6016 74.2797 14.8672 74.2797 17.8047C74.2797 24.7422 75.6859 29.2109 78.4984 31.2109C79.4203 31.8047 80.4906 32.1016 81.7094 32.1016C82.4281 32.1016 83.5375 31.8359 85.0375 31.3047H85.1547C85.7328 31.3047 86.0453 31.6406 86.0922 32.3125C86.0922 33.0781 84.9125 33.625 82.5531 33.9531C82.4594 33.9844 82.2016 34 81.7797 34H81.6156C76.8656 34 73.9125 30.5703 72.7562 23.7109C72.5062 21.6016 72.3812 19.6172 72.3812 17.7578C72.3812 8.47656 74.35 2.90625 78.2875 1.04688C79.1937 0.6875 79.9672 0.492187 80.6078 0.460938ZM97.4781 0.460938H98.4391C100.517 0.460938 102.166 1.60156 103.384 3.88281C104.337 5.80469 104.814 9.47656 104.814 14.8984V18.3906C104.814 24.5938 104.462 28.375 103.759 29.7344C103.337 31.125 102.478 32.2969 101.181 33.25C100.197 33.75 99.2828 34 98.4391 34H97.4312C96.3687 34 95.3141 33.5938 94.2672 32.7812C93.3609 31.8594 92.7281 30.9297 92.3687 29.9922C91.525 28.1484 91.1031 24.3828 91.1031 18.6953V15.6953C91.1031 8.67969 91.8219 4.39063 93.2594 2.82812C94.3844 1.25 95.7906 0.460938 97.4781 0.460938ZM93.0016 16.0703V18.3438C93.0016 25.4688 93.7047 29.6328 95.1109 30.8359C95.7984 31.6797 96.6969 32.1016 97.8062 32.1016H98.0641C100.158 32.1016 101.533 30.8516 102.189 28.3516C102.673 26.9453 102.916 23.5 102.916 18.0156V15.2734C102.916 8.80469 102.228 4.88281 100.853 3.50781C100.056 2.74219 99.1266 2.35938 98.0641 2.35938H97.8531C95.9312 2.35938 94.6109 3.55469 93.8922 5.94531C93.2984 7.91406 93.0016 11.2891 93.0016 16.0703ZM116.973 0.460938C117.567 0.460938 118.02 1.19531 118.333 2.66406L126.559 26.875H126.63L135.067 0.929688C135.27 0.617188 135.567 0.460938 135.958 0.460938C136.552 0.460938 136.848 0.8125 136.848 1.51562V32.9453C136.848 33.6484 136.512 34 135.841 34C135.247 34 134.95 33.6484 134.95 32.9453V7.79688C134.856 7.84375 133.872 10.7969 131.997 16.6562C129.184 25.4219 127.653 30.1094 127.403 30.7188C127.169 30.9688 126.887 31.0938 126.559 31.0938C125.95 31.0938 125.458 30.25 125.083 28.5625C125.02 28.4688 122.653 21.4766 117.981 7.58594L117.864 7.51562V32.9453C117.864 33.6484 117.528 34 116.856 34C116.262 34 115.966 33.6484 115.966 32.9453V1.51562C115.966 0.8125 116.302 0.460938 116.973 0.460938ZM150.742 0.460938H162.086C162.789 0.460938 163.141 0.796875 163.141 1.46875C163.141 2.0625 162.789 2.35938 162.086 2.35938H151.586V13.4219H159.391C160.094 13.4219 160.445 13.7578 160.445 14.4297C160.445 15.0234 160.094 15.3203 159.391 15.3203H151.586V32.1016H162.344C163.047 32.1016 163.398 32.4375 163.398 33.1094C163.398 33.7031 163.047 34 162.344 34H150.742C150.039 34 149.688 33.6484 149.688 32.9453V1.51562C149.688 0.8125 150.039 0.460938 150.742 0.460938ZM171.761 0.460938C172.37 0.460938 172.675 0.8125 172.675 1.51562V28.0938C172.675 28.7969 172.339 29.1484 171.667 29.1484C171.073 29.1484 170.777 28.7969 170.777 28.0938V1.51562C170.777 0.8125 171.105 0.460938 171.761 0.460938ZM171.667 31.8906H171.761C172.433 32.0156 172.769 32.3516 172.769 32.8984V32.9922C172.644 33.6641 172.308 34 171.761 34H171.667C170.995 33.875 170.659 33.5391 170.659 32.9922V32.8984C170.784 32.2266 171.12 31.8906 171.667 31.8906Z" fill="black"/>
</svg>
